G04 EAGLE Gerber RS-274X export*
G75*
%MOMM*%
%FSLAX34Y34*%
%LPD*%
%INBottom Copper*%
%IPPOS*%
%AMOC8*
5,1,8,0,0,1.08239X$1,22.5*%
G01*
%ADD10C,2.540000*%
%ADD11C,1.778000*%
%ADD12R,2.000000X2.000000*%
%ADD13C,2.000000*%
%ADD14C,1.000000*%

G36*
X989337Y12194D02*
X989337Y12194D01*
X989342Y12193D01*
X989435Y12214D01*
X989529Y12232D01*
X989533Y12235D01*
X989538Y12236D01*
X989616Y12292D01*
X989694Y12345D01*
X989697Y12349D01*
X989701Y12352D01*
X989752Y12434D01*
X989804Y12513D01*
X989804Y12518D01*
X989807Y12523D01*
X989839Y12700D01*
X989839Y787400D01*
X989838Y787405D01*
X989839Y787410D01*
X989818Y787503D01*
X989800Y787597D01*
X989797Y787601D01*
X989796Y787606D01*
X989740Y787684D01*
X989687Y787762D01*
X989683Y787765D01*
X989680Y787769D01*
X989598Y787820D01*
X989519Y787872D01*
X989514Y787872D01*
X989509Y787875D01*
X989332Y787907D01*
X12700Y787907D01*
X12695Y787906D01*
X12690Y787907D01*
X12597Y787886D01*
X12504Y787868D01*
X12499Y787865D01*
X12494Y787864D01*
X12416Y787808D01*
X12338Y787755D01*
X12335Y787751D01*
X12331Y787748D01*
X12280Y787666D01*
X12228Y787587D01*
X12228Y787582D01*
X12225Y787577D01*
X12193Y787400D01*
X12193Y12700D01*
X12194Y12695D01*
X12193Y12690D01*
X12214Y12597D01*
X12232Y12504D01*
X12235Y12499D01*
X12236Y12494D01*
X12292Y12416D01*
X12345Y12338D01*
X12349Y12335D01*
X12352Y12331D01*
X12434Y12280D01*
X12513Y12228D01*
X12518Y12228D01*
X12523Y12225D01*
X12700Y12193D01*
X989332Y12193D01*
X989337Y12194D01*
G37*
%LPC*%
G36*
X722602Y95075D02*
X722602Y95075D01*
X720204Y96069D01*
X718297Y97975D01*
X694875Y121397D01*
X692969Y123304D01*
X691975Y125702D01*
X691975Y246024D01*
X691974Y246029D01*
X691975Y246034D01*
X691954Y246127D01*
X691936Y246221D01*
X691933Y246225D01*
X691932Y246230D01*
X691876Y246308D01*
X691823Y246386D01*
X691819Y246389D01*
X691816Y246393D01*
X691734Y246444D01*
X691655Y246496D01*
X691650Y246496D01*
X691645Y246499D01*
X691468Y246531D01*
X690736Y246531D01*
X688338Y247525D01*
X683246Y252617D01*
X683239Y252621D01*
X683235Y252627D01*
X683156Y252676D01*
X683079Y252728D01*
X683071Y252729D01*
X683065Y252733D01*
X682887Y252765D01*
X671582Y252765D01*
X671574Y252764D01*
X671566Y252765D01*
X671477Y252744D01*
X671385Y252726D01*
X671379Y252721D01*
X671371Y252719D01*
X671223Y252617D01*
X671032Y252425D01*
X649768Y252425D01*
X648875Y253318D01*
X648875Y274582D01*
X649768Y275475D01*
X671032Y275475D01*
X671925Y274582D01*
X671925Y266322D01*
X671925Y266318D01*
X671925Y266315D01*
X671925Y266313D01*
X671925Y266312D01*
X671946Y266219D01*
X671964Y266125D01*
X671967Y266121D01*
X671968Y266116D01*
X672024Y266038D01*
X672077Y265960D01*
X672081Y265957D01*
X672084Y265953D01*
X672166Y265902D01*
X672245Y265850D01*
X672250Y265850D01*
X672255Y265847D01*
X672432Y265815D01*
X687098Y265815D01*
X689496Y264821D01*
X694588Y259729D01*
X694595Y259725D01*
X694599Y259719D01*
X694678Y259670D01*
X694755Y259618D01*
X694763Y259617D01*
X694769Y259613D01*
X694947Y259581D01*
X699798Y259581D01*
X702196Y258587D01*
X704031Y256752D01*
X705025Y254354D01*
X705025Y129913D01*
X705026Y129905D01*
X705025Y129897D01*
X705046Y129807D01*
X705064Y129716D01*
X705069Y129710D01*
X705071Y129702D01*
X705173Y129554D01*
X726454Y108273D01*
X726461Y108269D01*
X726465Y108263D01*
X726544Y108214D01*
X726621Y108162D01*
X726629Y108161D01*
X726635Y108157D01*
X726813Y108125D01*
X936887Y108125D01*
X936895Y108126D01*
X936903Y108125D01*
X936993Y108146D01*
X937084Y108164D01*
X937090Y108169D01*
X937098Y108171D01*
X937246Y108273D01*
X945827Y116854D01*
X945831Y116861D01*
X945837Y116865D01*
X945886Y116944D01*
X945938Y117021D01*
X945939Y117029D01*
X945943Y117035D01*
X945975Y117213D01*
X945975Y454287D01*
X945974Y454295D01*
X945975Y454303D01*
X945954Y454393D01*
X945936Y454484D01*
X945931Y454490D01*
X945929Y454498D01*
X945827Y454646D01*
X937246Y463227D01*
X937239Y463231D01*
X937235Y463237D01*
X937156Y463286D01*
X937079Y463338D01*
X937071Y463339D01*
X937065Y463343D01*
X936887Y463375D01*
X899201Y463375D01*
X899193Y463374D01*
X899185Y463375D01*
X899095Y463354D01*
X899004Y463336D01*
X898998Y463331D01*
X898990Y463329D01*
X898842Y463227D01*
X898040Y462425D01*
X898024Y462400D01*
X897998Y462377D01*
X897478Y461704D01*
X897166Y461526D01*
X897125Y461489D01*
X897060Y461444D01*
X896806Y461191D01*
X896021Y460865D01*
X895996Y460849D01*
X895963Y460837D01*
X895225Y460415D01*
X894869Y460369D01*
X894817Y460351D01*
X894739Y460335D01*
X894408Y460197D01*
X893558Y460197D01*
X893529Y460191D01*
X893494Y460193D01*
X892592Y460078D01*
X892588Y460079D01*
X892573Y460075D01*
X892558Y460074D01*
X892540Y460075D01*
X892488Y460057D01*
X892412Y460040D01*
X891222Y459548D01*
X891072Y459485D01*
X886928Y459485D01*
X883101Y461071D01*
X880945Y463227D01*
X880938Y463231D01*
X880934Y463237D01*
X880855Y463286D01*
X880778Y463338D01*
X880770Y463339D01*
X880763Y463343D01*
X880586Y463375D01*
X849602Y463375D01*
X847204Y464369D01*
X832669Y478904D01*
X831675Y481302D01*
X831675Y623598D01*
X832669Y625996D01*
X847204Y640531D01*
X847647Y640715D01*
X847648Y640715D01*
X848872Y641222D01*
X849602Y641525D01*
X880586Y641525D01*
X880594Y641526D01*
X880601Y641525D01*
X880691Y641546D01*
X880782Y641564D01*
X880789Y641569D01*
X880797Y641571D01*
X880945Y641673D01*
X883101Y643829D01*
X884155Y644266D01*
X885379Y644773D01*
X886604Y645280D01*
X886928Y645415D01*
X891072Y645415D01*
X894899Y643829D01*
X897829Y640899D01*
X899415Y637072D01*
X899415Y632928D01*
X897829Y629101D01*
X894899Y626171D01*
X894308Y625926D01*
X893083Y625418D01*
X891859Y624911D01*
X891858Y624911D01*
X891072Y624585D01*
X886928Y624585D01*
X883101Y626171D01*
X880945Y628327D01*
X880938Y628331D01*
X880934Y628337D01*
X880855Y628386D01*
X880778Y628438D01*
X880770Y628439D01*
X880763Y628443D01*
X880586Y628475D01*
X853813Y628475D01*
X853805Y628474D01*
X853797Y628475D01*
X853707Y628454D01*
X853616Y628436D01*
X853610Y628431D01*
X853602Y628429D01*
X853454Y628327D01*
X844873Y619746D01*
X844869Y619739D01*
X844863Y619735D01*
X844814Y619656D01*
X844762Y619579D01*
X844761Y619571D01*
X844757Y619565D01*
X844725Y619387D01*
X844725Y485513D01*
X844726Y485505D01*
X844725Y485497D01*
X844746Y485407D01*
X844764Y485316D01*
X844769Y485310D01*
X844771Y485302D01*
X844873Y485154D01*
X853454Y476573D01*
X853461Y476569D01*
X853465Y476563D01*
X853544Y476514D01*
X853621Y476462D01*
X853629Y476461D01*
X853635Y476457D01*
X853813Y476425D01*
X880586Y476425D01*
X880594Y476426D01*
X880601Y476425D01*
X880691Y476446D01*
X880782Y476464D01*
X880789Y476469D01*
X880797Y476471D01*
X880945Y476573D01*
X883101Y478729D01*
X883519Y478902D01*
X884743Y479410D01*
X885968Y479917D01*
X886928Y480315D01*
X891072Y480315D01*
X894899Y478729D01*
X897055Y476573D01*
X897062Y476569D01*
X897066Y476563D01*
X897145Y476514D01*
X897222Y476462D01*
X897230Y476461D01*
X897237Y476457D01*
X897414Y476425D01*
X941098Y476425D01*
X943496Y475431D01*
X958031Y460896D01*
X959025Y458498D01*
X959025Y113002D01*
X958031Y110604D01*
X956125Y108697D01*
X945403Y97975D01*
X943496Y96069D01*
X942967Y95849D01*
X941742Y95342D01*
X941098Y95075D01*
X722602Y95075D01*
G37*
%LPD*%
%LPC*%
G36*
X214602Y222075D02*
X214602Y222075D01*
X212204Y223069D01*
X210297Y224975D01*
X174175Y261097D01*
X172269Y263004D01*
X171275Y265402D01*
X171275Y428887D01*
X171274Y428895D01*
X171275Y428903D01*
X171254Y428993D01*
X171236Y429084D01*
X171231Y429090D01*
X171229Y429098D01*
X171127Y429246D01*
X149846Y450527D01*
X149839Y450531D01*
X149835Y450537D01*
X149756Y450586D01*
X149679Y450638D01*
X149671Y450639D01*
X149665Y450643D01*
X149487Y450675D01*
X122714Y450675D01*
X122706Y450674D01*
X122699Y450675D01*
X122609Y450654D01*
X122518Y450636D01*
X122511Y450631D01*
X122503Y450629D01*
X122355Y450527D01*
X120199Y448371D01*
X119017Y447881D01*
X117792Y447374D01*
X116568Y446866D01*
X116567Y446866D01*
X116372Y446785D01*
X112228Y446785D01*
X108401Y448371D01*
X105471Y451301D01*
X103885Y455128D01*
X103885Y459272D01*
X105471Y463099D01*
X108401Y466029D01*
X108864Y466221D01*
X110088Y466728D01*
X110089Y466728D01*
X111313Y467236D01*
X112228Y467615D01*
X116372Y467615D01*
X120199Y466029D01*
X122355Y463873D01*
X122362Y463869D01*
X122366Y463863D01*
X122445Y463814D01*
X122522Y463762D01*
X122530Y463761D01*
X122537Y463757D01*
X122714Y463725D01*
X153698Y463725D01*
X156096Y462731D01*
X183331Y435496D01*
X184325Y433098D01*
X184325Y269613D01*
X184326Y269605D01*
X184325Y269597D01*
X184346Y269507D01*
X184364Y269416D01*
X184369Y269410D01*
X184371Y269402D01*
X184473Y269254D01*
X218454Y235273D01*
X218461Y235269D01*
X218465Y235263D01*
X218544Y235214D01*
X218621Y235162D01*
X218629Y235161D01*
X218635Y235157D01*
X218813Y235125D01*
X593987Y235125D01*
X593995Y235126D01*
X594003Y235125D01*
X594093Y235146D01*
X594184Y235164D01*
X594190Y235169D01*
X594198Y235171D01*
X594346Y235273D01*
X602927Y243854D01*
X602931Y243861D01*
X602937Y243865D01*
X602986Y243944D01*
X603038Y244021D01*
X603039Y244029D01*
X603043Y244035D01*
X603075Y244213D01*
X603075Y420398D01*
X604069Y422796D01*
X624716Y443443D01*
X625823Y443902D01*
X625824Y443902D01*
X627048Y444409D01*
X627114Y444437D01*
X648700Y444437D01*
X648706Y444438D01*
X648713Y444437D01*
X648804Y444458D01*
X648896Y444476D01*
X648902Y444480D01*
X648908Y444481D01*
X648985Y444536D01*
X649062Y444589D01*
X649066Y444594D01*
X649071Y444598D01*
X649168Y444750D01*
X650630Y448278D01*
X653872Y451520D01*
X655074Y452018D01*
X656298Y452525D01*
X656299Y452525D01*
X657523Y453033D01*
X658108Y453275D01*
X662692Y453275D01*
X666928Y451520D01*
X670170Y448278D01*
X671925Y444042D01*
X671925Y439458D01*
X670170Y435222D01*
X666928Y431980D01*
X666130Y431649D01*
X666129Y431649D01*
X664905Y431142D01*
X663680Y430634D01*
X662692Y430225D01*
X658108Y430225D01*
X655395Y431349D01*
X655386Y431350D01*
X655379Y431355D01*
X655201Y431387D01*
X631325Y431387D01*
X631317Y431386D01*
X631309Y431387D01*
X631219Y431366D01*
X631128Y431348D01*
X631122Y431343D01*
X631114Y431341D01*
X630966Y431239D01*
X616273Y416546D01*
X616269Y416539D01*
X616263Y416535D01*
X616214Y416456D01*
X616162Y416379D01*
X616161Y416371D01*
X616157Y416365D01*
X616125Y416187D01*
X616125Y240002D01*
X615131Y237604D01*
X600596Y223069D01*
X599614Y222662D01*
X598390Y222155D01*
X598389Y222155D01*
X598198Y222075D01*
X214602Y222075D01*
G37*
%LPD*%
%LPC*%
G36*
X445537Y608797D02*
X445537Y608797D01*
X445447Y608887D01*
X445447Y673913D01*
X445537Y674003D01*
X622563Y674003D01*
X622653Y673913D01*
X622653Y608887D01*
X622563Y608797D01*
X445537Y608797D01*
G37*
%LPD*%
%LPC*%
G36*
X886928Y141985D02*
X886928Y141985D01*
X883101Y143571D01*
X880171Y146501D01*
X878585Y150328D01*
X878585Y154472D01*
X880171Y158299D01*
X883101Y161229D01*
X883426Y161364D01*
X884650Y161871D01*
X885875Y162378D01*
X886928Y162815D01*
X891072Y162815D01*
X894899Y161229D01*
X897055Y159073D01*
X897062Y159069D01*
X897066Y159063D01*
X897145Y159014D01*
X897222Y158962D01*
X897230Y158961D01*
X897237Y158957D01*
X897414Y158925D01*
X911487Y158925D01*
X911495Y158926D01*
X911503Y158925D01*
X911593Y158946D01*
X911684Y158964D01*
X911690Y158969D01*
X911698Y158971D01*
X911846Y159073D01*
X920427Y167654D01*
X920431Y167661D01*
X920437Y167665D01*
X920486Y167744D01*
X920538Y167821D01*
X920539Y167829D01*
X920543Y167835D01*
X920575Y168013D01*
X920575Y403487D01*
X920574Y403495D01*
X920575Y403503D01*
X920554Y403593D01*
X920536Y403684D01*
X920531Y403690D01*
X920529Y403698D01*
X920427Y403846D01*
X911846Y412427D01*
X911839Y412431D01*
X911835Y412437D01*
X911756Y412486D01*
X911679Y412538D01*
X911671Y412539D01*
X911665Y412543D01*
X911487Y412575D01*
X897414Y412575D01*
X897406Y412574D01*
X897399Y412575D01*
X897309Y412554D01*
X897218Y412536D01*
X897211Y412531D01*
X897203Y412529D01*
X897055Y412427D01*
X894899Y410271D01*
X893853Y409837D01*
X893852Y409837D01*
X892628Y409330D01*
X891403Y408823D01*
X891072Y408685D01*
X886928Y408685D01*
X883101Y410271D01*
X880945Y412427D01*
X880938Y412431D01*
X880934Y412437D01*
X880855Y412486D01*
X880778Y412538D01*
X880770Y412539D01*
X880763Y412543D01*
X880586Y412575D01*
X760702Y412575D01*
X758304Y413569D01*
X731069Y440804D01*
X730075Y443202D01*
X730075Y568461D01*
X730074Y568469D01*
X730075Y568477D01*
X730054Y568566D01*
X730036Y568658D01*
X730031Y568664D01*
X730029Y568672D01*
X729927Y568820D01*
X711934Y586813D01*
X711927Y586817D01*
X711923Y586823D01*
X711844Y586872D01*
X711767Y586924D01*
X711759Y586925D01*
X711753Y586929D01*
X711575Y586961D01*
X669720Y586961D01*
X669712Y586960D01*
X669704Y586961D01*
X669614Y586940D01*
X669523Y586922D01*
X669517Y586917D01*
X669509Y586915D01*
X669361Y586813D01*
X666928Y584380D01*
X666811Y584331D01*
X665586Y583824D01*
X664362Y583317D01*
X663137Y582809D01*
X662692Y582625D01*
X658108Y582625D01*
X653872Y584380D01*
X650630Y587622D01*
X648875Y591858D01*
X648875Y596442D01*
X650630Y600678D01*
X653872Y603920D01*
X654531Y604193D01*
X655755Y604700D01*
X656980Y605208D01*
X658108Y605675D01*
X662692Y605675D01*
X666928Y603920D01*
X670170Y600678D01*
X670317Y600324D01*
X670321Y600318D01*
X670322Y600312D01*
X670377Y600235D01*
X670429Y600157D01*
X670434Y600154D01*
X670438Y600149D01*
X670518Y600099D01*
X670596Y600047D01*
X670603Y600046D01*
X670608Y600043D01*
X670786Y600011D01*
X715786Y600011D01*
X718184Y599017D01*
X742131Y575070D01*
X743125Y572672D01*
X743125Y447413D01*
X743126Y447408D01*
X743125Y447403D01*
X743125Y447400D01*
X743125Y447397D01*
X743146Y447307D01*
X743164Y447216D01*
X743167Y447212D01*
X743168Y447207D01*
X743170Y447205D01*
X743171Y447202D01*
X743273Y447054D01*
X764554Y425773D01*
X764561Y425769D01*
X764565Y425763D01*
X764644Y425714D01*
X764721Y425662D01*
X764729Y425661D01*
X764735Y425657D01*
X764913Y425625D01*
X880586Y425625D01*
X880594Y425626D01*
X880601Y425625D01*
X880691Y425646D01*
X880782Y425664D01*
X880789Y425669D01*
X880797Y425671D01*
X880945Y425773D01*
X883101Y427929D01*
X883700Y428177D01*
X884924Y428685D01*
X886149Y429192D01*
X886928Y429515D01*
X891072Y429515D01*
X894899Y427929D01*
X897055Y425773D01*
X897062Y425769D01*
X897066Y425763D01*
X897145Y425714D01*
X897222Y425662D01*
X897230Y425661D01*
X897237Y425657D01*
X897414Y425625D01*
X915698Y425625D01*
X918096Y424631D01*
X932631Y410096D01*
X933625Y407698D01*
X933625Y163802D01*
X932631Y161404D01*
X918096Y146869D01*
X917386Y146574D01*
X916161Y146067D01*
X915698Y145875D01*
X897414Y145875D01*
X897406Y145874D01*
X897399Y145875D01*
X897309Y145854D01*
X897218Y145836D01*
X897211Y145831D01*
X897203Y145829D01*
X897055Y145727D01*
X894899Y143571D01*
X894803Y143531D01*
X893579Y143024D01*
X893578Y143024D01*
X892354Y142516D01*
X891129Y142009D01*
X891072Y141985D01*
X886928Y141985D01*
G37*
%LPD*%
%LPC*%
G36*
X886928Y167385D02*
X886928Y167385D01*
X883101Y168971D01*
X880945Y171127D01*
X880938Y171131D01*
X880934Y171137D01*
X880855Y171186D01*
X880778Y171238D01*
X880770Y171239D01*
X880763Y171243D01*
X880586Y171275D01*
X760702Y171275D01*
X758304Y172269D01*
X731069Y199504D01*
X730075Y201902D01*
X730075Y390787D01*
X730074Y390795D01*
X730075Y390803D01*
X730054Y390893D01*
X730036Y390984D01*
X730031Y390990D01*
X730029Y390998D01*
X729927Y391146D01*
X705669Y415404D01*
X704675Y417802D01*
X704675Y497205D01*
X704674Y497213D01*
X704675Y497221D01*
X704654Y497311D01*
X704636Y497402D01*
X704631Y497408D01*
X704629Y497416D01*
X704527Y497564D01*
X695946Y506145D01*
X695939Y506149D01*
X695935Y506155D01*
X695856Y506204D01*
X695779Y506256D01*
X695771Y506257D01*
X695765Y506261D01*
X695587Y506293D01*
X662690Y506293D01*
X662686Y506292D01*
X662682Y506293D01*
X661415Y506271D01*
X661361Y506281D01*
X661107Y506387D01*
X661098Y506388D01*
X661090Y506393D01*
X660913Y506425D01*
X658108Y506425D01*
X653872Y508180D01*
X650630Y511422D01*
X648875Y515658D01*
X648875Y520242D01*
X650630Y524478D01*
X653872Y527720D01*
X654802Y528106D01*
X656027Y528613D01*
X657251Y529120D01*
X657252Y529120D01*
X658108Y529475D01*
X662692Y529475D01*
X666928Y527720D01*
X670170Y524478D01*
X671925Y520242D01*
X671925Y519850D01*
X671926Y519845D01*
X671925Y519840D01*
X671946Y519747D01*
X671964Y519653D01*
X671967Y519649D01*
X671968Y519644D01*
X672024Y519566D01*
X672077Y519488D01*
X672081Y519485D01*
X672084Y519481D01*
X672166Y519430D01*
X672245Y519378D01*
X672250Y519378D01*
X672255Y519375D01*
X672432Y519343D01*
X699798Y519343D01*
X702196Y518349D01*
X716731Y503814D01*
X717725Y501416D01*
X717725Y422013D01*
X717726Y422005D01*
X717725Y421997D01*
X717746Y421907D01*
X717764Y421816D01*
X717769Y421810D01*
X717771Y421802D01*
X717873Y421654D01*
X739154Y400373D01*
X739161Y400369D01*
X739165Y400363D01*
X739244Y400314D01*
X739321Y400262D01*
X739329Y400261D01*
X739335Y400257D01*
X739513Y400225D01*
X880586Y400225D01*
X880594Y400226D01*
X880601Y400225D01*
X880691Y400246D01*
X880782Y400264D01*
X880789Y400269D01*
X880797Y400271D01*
X880945Y400373D01*
X883101Y402529D01*
X883790Y402815D01*
X885015Y403322D01*
X886239Y403829D01*
X886240Y403829D01*
X886928Y404115D01*
X891072Y404115D01*
X894899Y402529D01*
X897829Y399599D01*
X899415Y395772D01*
X899415Y391628D01*
X897829Y387801D01*
X894899Y384871D01*
X893943Y384475D01*
X892719Y383967D01*
X892718Y383967D01*
X891494Y383460D01*
X891072Y383285D01*
X886928Y383285D01*
X883101Y384871D01*
X880945Y387027D01*
X880938Y387031D01*
X880934Y387037D01*
X880855Y387086D01*
X880778Y387138D01*
X880770Y387139D01*
X880763Y387143D01*
X880586Y387175D01*
X743632Y387175D01*
X743627Y387174D01*
X743622Y387175D01*
X743529Y387154D01*
X743435Y387136D01*
X743431Y387133D01*
X743426Y387132D01*
X743348Y387076D01*
X743270Y387023D01*
X743267Y387019D01*
X743263Y387016D01*
X743212Y386934D01*
X743160Y386855D01*
X743160Y386850D01*
X743157Y386845D01*
X743125Y386668D01*
X743125Y206113D01*
X743126Y206105D01*
X743125Y206097D01*
X743146Y206007D01*
X743164Y205916D01*
X743169Y205910D01*
X743171Y205902D01*
X743273Y205754D01*
X764554Y184473D01*
X764561Y184469D01*
X764565Y184463D01*
X764644Y184414D01*
X764721Y184362D01*
X764729Y184361D01*
X764735Y184357D01*
X764913Y184325D01*
X880586Y184325D01*
X880594Y184326D01*
X880601Y184325D01*
X880691Y184346D01*
X880782Y184364D01*
X880789Y184369D01*
X880797Y184371D01*
X880945Y184473D01*
X883101Y186629D01*
X883335Y186726D01*
X884560Y187234D01*
X885784Y187741D01*
X886928Y188215D01*
X891072Y188215D01*
X894899Y186629D01*
X897829Y183699D01*
X899415Y179872D01*
X899415Y175728D01*
X897829Y171901D01*
X894899Y168971D01*
X894713Y168893D01*
X893488Y168386D01*
X892263Y167879D01*
X891072Y167385D01*
X886928Y167385D01*
G37*
%LPD*%
%LPC*%
G36*
X404108Y252425D02*
X404108Y252425D01*
X399872Y254180D01*
X396775Y257277D01*
X396768Y257281D01*
X396764Y257287D01*
X396685Y257336D01*
X396608Y257388D01*
X396600Y257389D01*
X396593Y257393D01*
X396416Y257425D01*
X217352Y257425D01*
X214954Y258419D01*
X197669Y275704D01*
X196675Y278102D01*
X196675Y530487D01*
X196674Y530495D01*
X196675Y530503D01*
X196654Y530593D01*
X196636Y530684D01*
X196631Y530690D01*
X196629Y530698D01*
X196527Y530846D01*
X175246Y552127D01*
X175239Y552131D01*
X175235Y552137D01*
X175156Y552186D01*
X175079Y552238D01*
X175071Y552239D01*
X175065Y552243D01*
X174887Y552275D01*
X128034Y552275D01*
X128029Y552274D01*
X128024Y552275D01*
X127931Y552254D01*
X127837Y552236D01*
X127833Y552233D01*
X127828Y552232D01*
X127750Y552176D01*
X127672Y552123D01*
X127669Y552119D01*
X127665Y552116D01*
X127614Y552034D01*
X127562Y551955D01*
X127562Y551950D01*
X127559Y551945D01*
X127554Y551921D01*
X126533Y549456D01*
X124698Y547621D01*
X123929Y547302D01*
X123928Y547302D01*
X122704Y546795D01*
X122300Y546627D01*
X115821Y546627D01*
X115784Y546620D01*
X115738Y546620D01*
X115031Y546503D01*
X114550Y546614D01*
X114500Y546616D01*
X114436Y546627D01*
X113942Y546627D01*
X113280Y546902D01*
X113243Y546909D01*
X113200Y546927D01*
X112502Y547089D01*
X112101Y547376D01*
X112055Y547396D01*
X112000Y547432D01*
X111544Y547621D01*
X111037Y548127D01*
X111006Y548148D01*
X110974Y548181D01*
X110390Y548598D01*
X110129Y549017D01*
X110095Y549053D01*
X110058Y549107D01*
X109826Y549339D01*
X109818Y549344D01*
X109813Y549351D01*
X109662Y549449D01*
X108401Y549971D01*
X105471Y552901D01*
X103885Y556728D01*
X103885Y560872D01*
X105471Y564699D01*
X108401Y567629D01*
X108502Y567671D01*
X109726Y568178D01*
X110951Y568686D01*
X112175Y569193D01*
X112176Y569193D01*
X112228Y569215D01*
X116372Y569215D01*
X120199Y567629D01*
X122355Y565473D01*
X122362Y565469D01*
X122366Y565463D01*
X122445Y565414D01*
X122522Y565362D01*
X122530Y565361D01*
X122537Y565357D01*
X122714Y565325D01*
X179098Y565325D01*
X181496Y564331D01*
X208731Y537096D01*
X209725Y534698D01*
X209725Y282313D01*
X209726Y282305D01*
X209725Y282297D01*
X209746Y282207D01*
X209764Y282116D01*
X209769Y282110D01*
X209771Y282102D01*
X209873Y281954D01*
X221204Y270623D01*
X221211Y270619D01*
X221215Y270613D01*
X221294Y270564D01*
X221371Y270512D01*
X221379Y270511D01*
X221385Y270507D01*
X221563Y270475D01*
X396416Y270475D01*
X396424Y270476D01*
X396432Y270475D01*
X396522Y270496D01*
X396613Y270514D01*
X396619Y270519D01*
X396627Y270521D01*
X396775Y270623D01*
X399872Y273720D01*
X400483Y273973D01*
X401707Y274481D01*
X401708Y274481D01*
X402932Y274988D01*
X404108Y275475D01*
X408692Y275475D01*
X412928Y273720D01*
X416170Y270478D01*
X417925Y266242D01*
X417925Y261658D01*
X416170Y257422D01*
X412928Y254180D01*
X412763Y254111D01*
X411539Y253604D01*
X411538Y253604D01*
X410314Y253097D01*
X409089Y252590D01*
X408692Y252425D01*
X404108Y252425D01*
G37*
%LPD*%
%LPC*%
G36*
X404108Y531825D02*
X404108Y531825D01*
X399872Y533580D01*
X396775Y536677D01*
X396768Y536681D01*
X396764Y536687D01*
X396685Y536736D01*
X396608Y536788D01*
X396600Y536789D01*
X396593Y536793D01*
X396416Y536825D01*
X242752Y536825D01*
X240354Y537819D01*
X197669Y580504D01*
X196675Y582902D01*
X196675Y670187D01*
X196674Y670195D01*
X196675Y670203D01*
X196654Y670293D01*
X196636Y670384D01*
X196631Y670390D01*
X196629Y670398D01*
X196527Y670546D01*
X175246Y691827D01*
X175239Y691831D01*
X175235Y691837D01*
X175156Y691886D01*
X175079Y691938D01*
X175071Y691939D01*
X175065Y691943D01*
X174887Y691975D01*
X122714Y691975D01*
X122706Y691974D01*
X122699Y691975D01*
X122609Y691954D01*
X122518Y691936D01*
X122511Y691931D01*
X122503Y691929D01*
X122355Y691827D01*
X120199Y689671D01*
X119381Y689332D01*
X118157Y688825D01*
X116932Y688317D01*
X116372Y688085D01*
X112228Y688085D01*
X108401Y689671D01*
X105471Y692601D01*
X103885Y696428D01*
X103885Y700572D01*
X105471Y704399D01*
X108401Y707329D01*
X109228Y707672D01*
X109229Y707672D01*
X110453Y708179D01*
X111678Y708687D01*
X112228Y708915D01*
X116372Y708915D01*
X120199Y707329D01*
X122355Y705173D01*
X122362Y705169D01*
X122366Y705163D01*
X122445Y705114D01*
X122522Y705062D01*
X122530Y705061D01*
X122537Y705057D01*
X122714Y705025D01*
X179098Y705025D01*
X181496Y704031D01*
X208731Y676796D01*
X209725Y674398D01*
X209725Y587113D01*
X209726Y587105D01*
X209725Y587097D01*
X209746Y587007D01*
X209764Y586916D01*
X209769Y586910D01*
X209771Y586902D01*
X209873Y586754D01*
X246604Y550023D01*
X246609Y550020D01*
X246612Y550016D01*
X246614Y550015D01*
X246615Y550013D01*
X246694Y549964D01*
X246771Y549912D01*
X246779Y549911D01*
X246785Y549907D01*
X246963Y549875D01*
X396416Y549875D01*
X396424Y549876D01*
X396432Y549875D01*
X396522Y549896D01*
X396613Y549914D01*
X396619Y549919D01*
X396627Y549921D01*
X396775Y550023D01*
X399872Y553120D01*
X400712Y553468D01*
X401936Y553975D01*
X403161Y554483D01*
X404108Y554875D01*
X408692Y554875D01*
X412928Y553120D01*
X416170Y549878D01*
X417925Y545642D01*
X417925Y541058D01*
X416170Y536822D01*
X412928Y533580D01*
X411767Y533099D01*
X410543Y532592D01*
X409318Y532084D01*
X408692Y531825D01*
X404108Y531825D01*
G37*
%LPD*%
%LPC*%
G36*
X404108Y608025D02*
X404108Y608025D01*
X399872Y609780D01*
X396630Y613022D01*
X394875Y617258D01*
X394875Y621842D01*
X396630Y626078D01*
X399872Y629320D01*
X400897Y629745D01*
X400956Y629784D01*
X401018Y629816D01*
X401038Y629840D01*
X401064Y629857D01*
X401102Y629915D01*
X401148Y629969D01*
X401157Y629999D01*
X401174Y630024D01*
X401187Y630093D01*
X401208Y630160D01*
X401205Y630191D01*
X401211Y630221D01*
X401196Y630290D01*
X401189Y630360D01*
X401174Y630387D01*
X401168Y630417D01*
X401128Y630475D01*
X401095Y630537D01*
X401069Y630558D01*
X401053Y630581D01*
X401009Y630609D01*
X400957Y630653D01*
X395651Y633716D01*
X390966Y638401D01*
X387654Y644138D01*
X385939Y650538D01*
X385939Y657162D01*
X387654Y663562D01*
X390966Y669299D01*
X395651Y673984D01*
X401388Y677296D01*
X407788Y679011D01*
X414412Y679011D01*
X420812Y677296D01*
X426549Y673984D01*
X431234Y669299D01*
X434546Y663562D01*
X436261Y657162D01*
X436261Y650538D01*
X434546Y644138D01*
X431234Y638401D01*
X426549Y633716D01*
X420812Y630404D01*
X414588Y628736D01*
X414555Y628720D01*
X414518Y628712D01*
X414466Y628676D01*
X414409Y628647D01*
X414384Y628619D01*
X414354Y628598D01*
X414319Y628544D01*
X414278Y628496D01*
X414266Y628460D01*
X414246Y628429D01*
X414235Y628366D01*
X414216Y628305D01*
X414219Y628268D01*
X414212Y628231D01*
X414227Y628169D01*
X414232Y628105D01*
X414249Y628072D01*
X414258Y628036D01*
X414300Y627975D01*
X414325Y627927D01*
X414344Y627912D01*
X414361Y627888D01*
X416170Y626078D01*
X417925Y621842D01*
X417925Y617258D01*
X416170Y613022D01*
X412928Y609780D01*
X412720Y609694D01*
X411496Y609186D01*
X410271Y608679D01*
X409047Y608172D01*
X409046Y608172D01*
X408692Y608025D01*
X404108Y608025D01*
G37*
%LPD*%
%LPC*%
G36*
X658108Y608025D02*
X658108Y608025D01*
X653872Y609780D01*
X650630Y613022D01*
X648875Y617258D01*
X648875Y621842D01*
X650630Y626078D01*
X652545Y627993D01*
X652566Y628024D01*
X652593Y628049D01*
X652621Y628107D01*
X652656Y628160D01*
X652663Y628197D01*
X652679Y628231D01*
X652681Y628295D01*
X652693Y628357D01*
X652686Y628394D01*
X652687Y628431D01*
X652665Y628491D01*
X652652Y628553D01*
X652631Y628584D01*
X652618Y628619D01*
X652574Y628665D01*
X652538Y628718D01*
X652506Y628738D01*
X652481Y628765D01*
X652414Y628797D01*
X652368Y628825D01*
X652344Y628830D01*
X652318Y628842D01*
X646488Y630404D01*
X640751Y633716D01*
X636066Y638401D01*
X632754Y644138D01*
X631039Y650538D01*
X631039Y657162D01*
X632754Y663562D01*
X636066Y669299D01*
X640751Y673984D01*
X646488Y677296D01*
X652888Y679011D01*
X659512Y679011D01*
X665912Y677296D01*
X671649Y673984D01*
X676334Y669299D01*
X679646Y663562D01*
X681361Y657162D01*
X681361Y650538D01*
X679646Y644138D01*
X676334Y638401D01*
X671649Y633716D01*
X666134Y630532D01*
X666082Y630486D01*
X666024Y630446D01*
X666007Y630420D01*
X665984Y630400D01*
X665953Y630337D01*
X665915Y630278D01*
X665910Y630247D01*
X665897Y630219D01*
X665893Y630149D01*
X665881Y630080D01*
X665888Y630050D01*
X665886Y630019D01*
X665910Y629953D01*
X665925Y629885D01*
X665943Y629860D01*
X665954Y629831D01*
X666001Y629779D01*
X666042Y629722D01*
X666070Y629704D01*
X666089Y629683D01*
X666136Y629662D01*
X666194Y629624D01*
X666928Y629320D01*
X670170Y626078D01*
X671925Y621842D01*
X671925Y617258D01*
X670170Y613022D01*
X666928Y609780D01*
X666720Y609694D01*
X665496Y609186D01*
X664271Y608679D01*
X663047Y608172D01*
X663046Y608172D01*
X662692Y608025D01*
X658108Y608025D01*
G37*
%LPD*%
%LPC*%
G36*
X652888Y159189D02*
X652888Y159189D01*
X646488Y160904D01*
X640751Y164216D01*
X636066Y168901D01*
X632754Y174638D01*
X631039Y181038D01*
X631039Y187662D01*
X632754Y194062D01*
X636066Y199799D01*
X640751Y204484D01*
X646488Y207796D01*
X652888Y209511D01*
X659512Y209511D01*
X665912Y207796D01*
X671649Y204484D01*
X676334Y199799D01*
X679646Y194062D01*
X681361Y187662D01*
X681361Y181038D01*
X679646Y174638D01*
X676334Y168901D01*
X671649Y164216D01*
X665912Y160904D01*
X659512Y159189D01*
X652888Y159189D01*
G37*
%LPD*%
%LPC*%
G36*
X407788Y159189D02*
X407788Y159189D01*
X401388Y160904D01*
X395651Y164216D01*
X390966Y168901D01*
X387654Y174638D01*
X385939Y181038D01*
X385939Y187662D01*
X387654Y194062D01*
X390966Y199799D01*
X395651Y204484D01*
X401388Y207796D01*
X407788Y209511D01*
X414412Y209511D01*
X420812Y207796D01*
X426549Y204484D01*
X431234Y199799D01*
X434546Y194062D01*
X436261Y187662D01*
X436261Y181038D01*
X434546Y174638D01*
X431234Y168901D01*
X426549Y164216D01*
X420812Y160904D01*
X414412Y159189D01*
X407788Y159189D01*
G37*
%LPD*%
%LPC*%
G36*
X935505Y740409D02*
X935505Y740409D01*
X927570Y743696D01*
X921496Y749770D01*
X918209Y757705D01*
X918209Y766295D01*
X921496Y774230D01*
X927570Y780304D01*
X928565Y780716D01*
X929790Y781223D01*
X931015Y781731D01*
X932239Y782238D01*
X933464Y782745D01*
X934688Y783252D01*
X934689Y783252D01*
X935505Y783591D01*
X944095Y783591D01*
X952030Y780304D01*
X958104Y774230D01*
X961391Y766295D01*
X961391Y757705D01*
X958104Y749770D01*
X952030Y743696D01*
X951816Y743608D01*
X950592Y743100D01*
X949367Y742593D01*
X948143Y742086D01*
X948142Y742086D01*
X946918Y741579D01*
X945693Y741071D01*
X944469Y740564D01*
X944095Y740409D01*
X935505Y740409D01*
G37*
%LPD*%
%LPC*%
G36*
X46505Y740409D02*
X46505Y740409D01*
X38570Y743696D01*
X32496Y749770D01*
X29209Y757705D01*
X29209Y766295D01*
X32496Y774230D01*
X38570Y780304D01*
X39565Y780716D01*
X40790Y781223D01*
X42015Y781731D01*
X43239Y782238D01*
X44464Y782745D01*
X45688Y783252D01*
X45689Y783252D01*
X46505Y783591D01*
X55095Y783591D01*
X63030Y780304D01*
X69104Y774230D01*
X72391Y766295D01*
X72391Y757705D01*
X69104Y749770D01*
X63030Y743696D01*
X62816Y743608D01*
X61592Y743100D01*
X60367Y742593D01*
X59143Y742086D01*
X59142Y742086D01*
X57918Y741579D01*
X56693Y741071D01*
X55469Y740564D01*
X55095Y740409D01*
X46505Y740409D01*
G37*
%LPD*%
%LPC*%
G36*
X46505Y16509D02*
X46505Y16509D01*
X38570Y19796D01*
X32496Y25870D01*
X29209Y33805D01*
X29209Y42395D01*
X32496Y50330D01*
X38570Y56404D01*
X39696Y56870D01*
X40921Y57378D01*
X42145Y57885D01*
X42146Y57885D01*
X43370Y58392D01*
X44595Y58899D01*
X45819Y59407D01*
X45820Y59407D01*
X46505Y59691D01*
X55095Y59691D01*
X63030Y56404D01*
X69104Y50330D01*
X72391Y42395D01*
X72391Y33805D01*
X69104Y25870D01*
X63030Y19796D01*
X62947Y19762D01*
X61723Y19255D01*
X60498Y18747D01*
X59274Y18240D01*
X59273Y18240D01*
X58049Y17733D01*
X56824Y17226D01*
X55600Y16718D01*
X55095Y16509D01*
X46505Y16509D01*
G37*
%LPD*%
%LPC*%
G36*
X948205Y16509D02*
X948205Y16509D01*
X940270Y19796D01*
X934196Y25870D01*
X930909Y33805D01*
X930909Y42395D01*
X934196Y50330D01*
X940270Y56404D01*
X941396Y56870D01*
X942621Y57378D01*
X943845Y57885D01*
X943846Y57885D01*
X945070Y58392D01*
X946295Y58899D01*
X947519Y59407D01*
X947520Y59407D01*
X948205Y59691D01*
X956795Y59691D01*
X964730Y56404D01*
X970804Y50330D01*
X974091Y42395D01*
X974091Y33805D01*
X970804Y25870D01*
X964730Y19796D01*
X964647Y19762D01*
X963423Y19255D01*
X962198Y18747D01*
X960974Y18240D01*
X960973Y18240D01*
X959749Y17733D01*
X958524Y17226D01*
X957300Y16718D01*
X956795Y16509D01*
X948205Y16509D01*
G37*
%LPD*%
%LPC*%
G36*
X89870Y38675D02*
X89870Y38675D01*
X84642Y40841D01*
X80641Y44842D01*
X78475Y50070D01*
X78475Y81130D01*
X80641Y86358D01*
X84642Y90359D01*
X85842Y90856D01*
X87067Y91363D01*
X88291Y91871D01*
X89516Y92378D01*
X89870Y92525D01*
X95530Y92525D01*
X100758Y90359D01*
X104759Y86358D01*
X106925Y81130D01*
X106925Y50070D01*
X104759Y44842D01*
X100758Y40841D01*
X100078Y40559D01*
X98853Y40052D01*
X97628Y39545D01*
X96404Y39037D01*
X95530Y38675D01*
X89870Y38675D01*
G37*
%LPD*%
%LPC*%
G36*
X124170Y23375D02*
X124170Y23375D01*
X118942Y25541D01*
X114941Y29542D01*
X112775Y34770D01*
X112775Y40430D01*
X114941Y45658D01*
X118942Y49659D01*
X119207Y49769D01*
X120432Y50276D01*
X121656Y50783D01*
X122881Y51291D01*
X124106Y51798D01*
X124170Y51825D01*
X155230Y51825D01*
X160458Y49659D01*
X164459Y45658D01*
X166625Y40430D01*
X166625Y34770D01*
X164459Y29542D01*
X160458Y25541D01*
X159977Y25342D01*
X158752Y24834D01*
X157528Y24327D01*
X156303Y23820D01*
X155230Y23375D01*
X124170Y23375D01*
G37*
%LPD*%
%LPC*%
G36*
X404108Y506425D02*
X404108Y506425D01*
X399872Y508180D01*
X396630Y511422D01*
X394875Y515658D01*
X394875Y520242D01*
X396630Y524478D01*
X399872Y527720D01*
X400802Y528106D01*
X402027Y528613D01*
X403251Y529120D01*
X403252Y529120D01*
X404108Y529475D01*
X408692Y529475D01*
X412928Y527720D01*
X416170Y524478D01*
X417925Y520242D01*
X417925Y515658D01*
X416170Y511422D01*
X412928Y508180D01*
X411858Y507736D01*
X410633Y507229D01*
X409409Y506722D01*
X408692Y506425D01*
X404108Y506425D01*
G37*
%LPD*%
%LPC*%
G36*
X404108Y354025D02*
X404108Y354025D01*
X399872Y355780D01*
X396630Y359022D01*
X394875Y363258D01*
X394875Y367842D01*
X396630Y372078D01*
X399872Y375320D01*
X400121Y375423D01*
X401345Y375931D01*
X402570Y376438D01*
X403795Y376945D01*
X404108Y377075D01*
X408692Y377075D01*
X412928Y375320D01*
X416170Y372078D01*
X417925Y367842D01*
X417925Y363258D01*
X416170Y359022D01*
X412928Y355780D01*
X412401Y355561D01*
X411176Y355054D01*
X409952Y354547D01*
X408727Y354040D01*
X408692Y354025D01*
X404108Y354025D01*
G37*
%LPD*%
%LPC*%
G36*
X658108Y354025D02*
X658108Y354025D01*
X653872Y355780D01*
X650630Y359022D01*
X648875Y363258D01*
X648875Y367842D01*
X650630Y372078D01*
X653872Y375320D01*
X654121Y375423D01*
X655345Y375931D01*
X656570Y376438D01*
X657795Y376945D01*
X658108Y377075D01*
X662692Y377075D01*
X666928Y375320D01*
X670170Y372078D01*
X671925Y367842D01*
X671925Y363258D01*
X670170Y359022D01*
X666928Y355780D01*
X666401Y355561D01*
X665176Y355054D01*
X663952Y354547D01*
X662727Y354040D01*
X662692Y354025D01*
X658108Y354025D01*
G37*
%LPD*%
%LPC*%
G36*
X658108Y379425D02*
X658108Y379425D01*
X653872Y381180D01*
X650630Y384422D01*
X648875Y388658D01*
X648875Y393242D01*
X650630Y397478D01*
X653872Y400720D01*
X654030Y400786D01*
X655255Y401293D01*
X656479Y401800D01*
X656480Y401800D01*
X657704Y402308D01*
X658108Y402475D01*
X662692Y402475D01*
X666928Y400720D01*
X670170Y397478D01*
X671925Y393242D01*
X671925Y388658D01*
X670170Y384422D01*
X666928Y381180D01*
X666311Y380924D01*
X666310Y380924D01*
X665086Y380417D01*
X663861Y379909D01*
X662692Y379425D01*
X658108Y379425D01*
G37*
%LPD*%
%LPC*%
G36*
X404108Y379425D02*
X404108Y379425D01*
X399872Y381180D01*
X396630Y384422D01*
X394875Y388658D01*
X394875Y393242D01*
X396630Y397478D01*
X399872Y400720D01*
X400030Y400786D01*
X401255Y401293D01*
X402479Y401800D01*
X402480Y401800D01*
X403704Y402308D01*
X404108Y402475D01*
X408692Y402475D01*
X412928Y400720D01*
X416170Y397478D01*
X417925Y393242D01*
X417925Y388658D01*
X416170Y384422D01*
X412928Y381180D01*
X412311Y380924D01*
X412310Y380924D01*
X411086Y380417D01*
X409861Y379909D01*
X408692Y379425D01*
X404108Y379425D01*
G37*
%LPD*%
%LPC*%
G36*
X404108Y481025D02*
X404108Y481025D01*
X399872Y482780D01*
X396630Y486022D01*
X394875Y490258D01*
X394875Y494842D01*
X396630Y499078D01*
X399872Y502320D01*
X400893Y502743D01*
X402117Y503250D01*
X403342Y503758D01*
X404108Y504075D01*
X408692Y504075D01*
X412928Y502320D01*
X416170Y499078D01*
X417925Y494842D01*
X417925Y490258D01*
X416170Y486022D01*
X412928Y482780D01*
X411948Y482374D01*
X410724Y481867D01*
X409499Y481359D01*
X408692Y481025D01*
X404108Y481025D01*
G37*
%LPD*%
%LPC*%
G36*
X658108Y481025D02*
X658108Y481025D01*
X653872Y482780D01*
X650630Y486022D01*
X648875Y490258D01*
X648875Y494842D01*
X650630Y499078D01*
X653872Y502320D01*
X654893Y502743D01*
X656117Y503250D01*
X657342Y503758D01*
X658108Y504075D01*
X662692Y504075D01*
X666928Y502320D01*
X670170Y499078D01*
X671925Y494842D01*
X671925Y490258D01*
X670170Y486022D01*
X666928Y482780D01*
X665948Y482374D01*
X664724Y481867D01*
X663499Y481359D01*
X662692Y481025D01*
X658108Y481025D01*
G37*
%LPD*%
%LPC*%
G36*
X658108Y404825D02*
X658108Y404825D01*
X653872Y406580D01*
X650630Y409822D01*
X648875Y414058D01*
X648875Y418642D01*
X650630Y422878D01*
X653872Y426120D01*
X653940Y426148D01*
X655164Y426656D01*
X656389Y427163D01*
X657613Y427670D01*
X657614Y427670D01*
X658108Y427875D01*
X662692Y427875D01*
X666928Y426120D01*
X670170Y422878D01*
X671925Y418642D01*
X671925Y414058D01*
X670170Y409822D01*
X666928Y406580D01*
X666220Y406286D01*
X664995Y405779D01*
X663771Y405272D01*
X662692Y404825D01*
X658108Y404825D01*
G37*
%LPD*%
%LPC*%
G36*
X404108Y404825D02*
X404108Y404825D01*
X399872Y406580D01*
X396630Y409822D01*
X394875Y414058D01*
X394875Y418642D01*
X396630Y422878D01*
X399872Y426120D01*
X399940Y426148D01*
X401164Y426656D01*
X402389Y427163D01*
X403613Y427670D01*
X403614Y427670D01*
X404108Y427875D01*
X408692Y427875D01*
X412928Y426120D01*
X416170Y422878D01*
X417925Y418642D01*
X417925Y414058D01*
X416170Y409822D01*
X412928Y406580D01*
X412220Y406286D01*
X410995Y405779D01*
X409771Y405272D01*
X408692Y404825D01*
X404108Y404825D01*
G37*
%LPD*%
%LPC*%
G36*
X404108Y455625D02*
X404108Y455625D01*
X399872Y457380D01*
X396630Y460622D01*
X394875Y464858D01*
X394875Y469442D01*
X396630Y473678D01*
X399872Y476920D01*
X400983Y477381D01*
X402208Y477888D01*
X403432Y478395D01*
X403433Y478395D01*
X404108Y478675D01*
X408692Y478675D01*
X412928Y476920D01*
X416170Y473678D01*
X417925Y469442D01*
X417925Y464858D01*
X416170Y460622D01*
X412928Y457380D01*
X412039Y457011D01*
X410814Y456504D01*
X409590Y455997D01*
X408692Y455625D01*
X404108Y455625D01*
G37*
%LPD*%
%LPC*%
G36*
X658108Y455625D02*
X658108Y455625D01*
X653872Y457380D01*
X650630Y460622D01*
X648875Y464858D01*
X648875Y469442D01*
X650630Y473678D01*
X653872Y476920D01*
X654983Y477381D01*
X656208Y477888D01*
X657432Y478395D01*
X657433Y478395D01*
X658108Y478675D01*
X662692Y478675D01*
X666928Y476920D01*
X670170Y473678D01*
X671925Y469442D01*
X671925Y464858D01*
X670170Y460622D01*
X666928Y457380D01*
X666039Y457011D01*
X664814Y456504D01*
X663590Y455997D01*
X662692Y455625D01*
X658108Y455625D01*
G37*
%LPD*%
%LPC*%
G36*
X658108Y531825D02*
X658108Y531825D01*
X653872Y533580D01*
X650630Y536822D01*
X648875Y541058D01*
X648875Y545642D01*
X650630Y549878D01*
X653872Y553120D01*
X654712Y553468D01*
X655936Y553975D01*
X657161Y554483D01*
X658108Y554875D01*
X662692Y554875D01*
X666928Y553120D01*
X670170Y549878D01*
X671925Y545642D01*
X671925Y541058D01*
X670170Y536822D01*
X666928Y533580D01*
X665767Y533099D01*
X664543Y532592D01*
X663318Y532084D01*
X662692Y531825D01*
X658108Y531825D01*
G37*
%LPD*%
%LPC*%
G36*
X404108Y582625D02*
X404108Y582625D01*
X399872Y584380D01*
X396630Y587622D01*
X394875Y591858D01*
X394875Y596442D01*
X396630Y600678D01*
X399872Y603920D01*
X400531Y604193D01*
X401755Y604700D01*
X402980Y605208D01*
X404108Y605675D01*
X408692Y605675D01*
X412928Y603920D01*
X416170Y600678D01*
X417925Y596442D01*
X417925Y591858D01*
X416170Y587622D01*
X412928Y584380D01*
X412811Y584331D01*
X411586Y583824D01*
X410362Y583317D01*
X409137Y582809D01*
X408692Y582625D01*
X404108Y582625D01*
G37*
%LPD*%
%LPC*%
G36*
X404108Y430225D02*
X404108Y430225D01*
X399872Y431980D01*
X396630Y435222D01*
X394875Y439458D01*
X394875Y444042D01*
X396630Y448278D01*
X399872Y451520D01*
X401074Y452018D01*
X402298Y452525D01*
X402299Y452525D01*
X403523Y453033D01*
X404108Y453275D01*
X408692Y453275D01*
X412928Y451520D01*
X416170Y448278D01*
X417925Y444042D01*
X417925Y439458D01*
X416170Y435222D01*
X412928Y431980D01*
X412130Y431649D01*
X412129Y431649D01*
X410905Y431142D01*
X409680Y430634D01*
X408692Y430225D01*
X404108Y430225D01*
G37*
%LPD*%
%LPC*%
G36*
X658108Y557225D02*
X658108Y557225D01*
X653872Y558980D01*
X650630Y562222D01*
X648875Y566458D01*
X648875Y571042D01*
X650630Y575278D01*
X653872Y578520D01*
X654621Y578831D01*
X655846Y579338D01*
X657070Y579845D01*
X658108Y580275D01*
X662692Y580275D01*
X666928Y578520D01*
X670170Y575278D01*
X671925Y571042D01*
X671925Y566458D01*
X670170Y562222D01*
X666928Y558980D01*
X666901Y558969D01*
X665677Y558461D01*
X664452Y557954D01*
X663228Y557447D01*
X663227Y557447D01*
X662692Y557225D01*
X658108Y557225D01*
G37*
%LPD*%
%LPC*%
G36*
X404108Y557225D02*
X404108Y557225D01*
X399872Y558980D01*
X396630Y562222D01*
X394875Y566458D01*
X394875Y571042D01*
X396630Y575278D01*
X399872Y578520D01*
X400621Y578831D01*
X401846Y579338D01*
X403070Y579845D01*
X404108Y580275D01*
X408692Y580275D01*
X412928Y578520D01*
X416170Y575278D01*
X417925Y571042D01*
X417925Y566458D01*
X416170Y562222D01*
X412928Y558980D01*
X412901Y558969D01*
X411677Y558461D01*
X410452Y557954D01*
X409228Y557447D01*
X409227Y557447D01*
X408692Y557225D01*
X404108Y557225D01*
G37*
%LPD*%
%LPC*%
G36*
X404108Y303225D02*
X404108Y303225D01*
X399872Y304980D01*
X396630Y308222D01*
X394875Y312458D01*
X394875Y317042D01*
X396630Y321278D01*
X399872Y324520D01*
X400302Y324698D01*
X401526Y325206D01*
X401527Y325206D01*
X402751Y325713D01*
X403976Y326220D01*
X404108Y326275D01*
X408692Y326275D01*
X412928Y324520D01*
X416170Y321278D01*
X417925Y317042D01*
X417925Y312458D01*
X416170Y308222D01*
X412928Y304980D01*
X412582Y304836D01*
X411358Y304329D01*
X411357Y304329D01*
X410133Y303822D01*
X408908Y303315D01*
X408692Y303225D01*
X404108Y303225D01*
G37*
%LPD*%
%LPC*%
G36*
X658108Y303225D02*
X658108Y303225D01*
X653872Y304980D01*
X650630Y308222D01*
X648875Y312458D01*
X648875Y317042D01*
X650630Y321278D01*
X653872Y324520D01*
X654302Y324698D01*
X655526Y325206D01*
X655527Y325206D01*
X656751Y325713D01*
X657976Y326220D01*
X658108Y326275D01*
X662692Y326275D01*
X666928Y324520D01*
X670170Y321278D01*
X671925Y317042D01*
X671925Y312458D01*
X670170Y308222D01*
X666928Y304980D01*
X666582Y304836D01*
X665358Y304329D01*
X665357Y304329D01*
X664133Y303822D01*
X662908Y303315D01*
X662692Y303225D01*
X658108Y303225D01*
G37*
%LPD*%
%LPC*%
G36*
X404108Y328625D02*
X404108Y328625D01*
X399872Y330380D01*
X396630Y333622D01*
X394875Y337858D01*
X394875Y342442D01*
X396630Y346678D01*
X399872Y349920D01*
X400211Y350061D01*
X401436Y350568D01*
X402660Y351075D01*
X402661Y351075D01*
X403885Y351583D01*
X404108Y351675D01*
X408692Y351675D01*
X412928Y349920D01*
X416170Y346678D01*
X417925Y342442D01*
X417925Y337858D01*
X416170Y333622D01*
X412928Y330380D01*
X412492Y330199D01*
X412491Y330199D01*
X411267Y329692D01*
X410042Y329184D01*
X408818Y328677D01*
X408692Y328625D01*
X404108Y328625D01*
G37*
%LPD*%
%LPC*%
G36*
X658108Y328625D02*
X658108Y328625D01*
X653872Y330380D01*
X650630Y333622D01*
X648875Y337858D01*
X648875Y342442D01*
X650630Y346678D01*
X653872Y349920D01*
X654211Y350061D01*
X655436Y350568D01*
X656660Y351075D01*
X656661Y351075D01*
X657885Y351583D01*
X658108Y351675D01*
X662692Y351675D01*
X666928Y349920D01*
X670170Y346678D01*
X671925Y342442D01*
X671925Y337858D01*
X670170Y333622D01*
X666928Y330380D01*
X666492Y330199D01*
X666491Y330199D01*
X665267Y329692D01*
X664042Y329184D01*
X662818Y328677D01*
X662692Y328625D01*
X658108Y328625D01*
G37*
%LPD*%
%LPC*%
G36*
X886928Y599185D02*
X886928Y599185D01*
X883101Y600771D01*
X880171Y603701D01*
X878585Y607528D01*
X878585Y611672D01*
X880171Y615499D01*
X883101Y618429D01*
X884245Y618903D01*
X885470Y619411D01*
X886694Y619918D01*
X886695Y619918D01*
X886928Y620015D01*
X891072Y620015D01*
X894899Y618429D01*
X897829Y615499D01*
X899415Y611672D01*
X899415Y607528D01*
X897829Y603701D01*
X894899Y600771D01*
X894398Y600563D01*
X893174Y600056D01*
X893173Y600056D01*
X891949Y599549D01*
X891072Y599185D01*
X886928Y599185D01*
G37*
%LPD*%
%LPC*%
G36*
X112228Y522985D02*
X112228Y522985D01*
X108401Y524571D01*
X105471Y527501D01*
X103885Y531328D01*
X103885Y535472D01*
X105471Y539299D01*
X108401Y542229D01*
X108592Y542309D01*
X109817Y542816D01*
X111041Y543323D01*
X111042Y543323D01*
X112228Y543815D01*
X116372Y543815D01*
X120199Y542229D01*
X123129Y539299D01*
X124715Y535472D01*
X124715Y531328D01*
X123129Y527501D01*
X120199Y524571D01*
X119970Y524476D01*
X118745Y523968D01*
X117521Y523461D01*
X117520Y523461D01*
X116372Y522985D01*
X112228Y522985D01*
G37*
%LPD*%
%LPC*%
G36*
X112228Y497585D02*
X112228Y497585D01*
X108401Y499171D01*
X105471Y502101D01*
X103885Y505928D01*
X103885Y510072D01*
X105471Y513899D01*
X108401Y516829D01*
X108683Y516946D01*
X109907Y517453D01*
X109908Y517453D01*
X111132Y517961D01*
X112228Y518415D01*
X116372Y518415D01*
X120199Y516829D01*
X123129Y513899D01*
X124715Y510072D01*
X124715Y505928D01*
X123129Y502101D01*
X120199Y499171D01*
X120060Y499113D01*
X118836Y498606D01*
X117611Y498099D01*
X116387Y497591D01*
X116386Y497591D01*
X116372Y497585D01*
X112228Y497585D01*
G37*
%LPD*%
%LPC*%
G36*
X112228Y472185D02*
X112228Y472185D01*
X108401Y473771D01*
X105471Y476701D01*
X103885Y480528D01*
X103885Y484672D01*
X105471Y488499D01*
X108401Y491429D01*
X108773Y491584D01*
X109998Y492091D01*
X111222Y492598D01*
X111223Y492598D01*
X112228Y493015D01*
X116372Y493015D01*
X120199Y491429D01*
X123129Y488499D01*
X124715Y484672D01*
X124715Y480528D01*
X123129Y476701D01*
X120199Y473771D01*
X120151Y473751D01*
X118926Y473243D01*
X117702Y472736D01*
X116477Y472229D01*
X116372Y472185D01*
X112228Y472185D01*
G37*
%LPD*%
%LPC*%
G36*
X112228Y662685D02*
X112228Y662685D01*
X108401Y664271D01*
X105471Y667201D01*
X103885Y671028D01*
X103885Y675172D01*
X105471Y678999D01*
X108401Y681929D01*
X109319Y682310D01*
X110544Y682817D01*
X111768Y683324D01*
X112228Y683515D01*
X116372Y683515D01*
X120199Y681929D01*
X123129Y678999D01*
X124715Y675172D01*
X124715Y671028D01*
X123129Y667201D01*
X120199Y664271D01*
X119472Y663969D01*
X118247Y663462D01*
X117023Y662955D01*
X116372Y662685D01*
X112228Y662685D01*
G37*
%LPD*%
%LPC*%
G36*
X886928Y192785D02*
X886928Y192785D01*
X883101Y194371D01*
X880171Y197301D01*
X878585Y201128D01*
X878585Y205272D01*
X880171Y209099D01*
X883101Y212029D01*
X883245Y212089D01*
X884469Y212596D01*
X885694Y213103D01*
X886918Y213611D01*
X886919Y213611D01*
X886928Y213615D01*
X891072Y213615D01*
X894899Y212029D01*
X897829Y209099D01*
X899415Y205272D01*
X899415Y201128D01*
X897829Y197301D01*
X894899Y194371D01*
X894622Y194256D01*
X893398Y193749D01*
X893397Y193749D01*
X892173Y193241D01*
X891072Y192785D01*
X886928Y192785D01*
G37*
%LPD*%
%LPC*%
G36*
X140715Y97615D02*
X140715Y97615D01*
X140715Y111841D01*
X153600Y111841D01*
X155969Y111465D01*
X158250Y110724D01*
X160388Y109635D01*
X162329Y108225D01*
X164025Y106529D01*
X165435Y104588D01*
X166524Y102450D01*
X167265Y100169D01*
X167641Y97800D01*
X167641Y97615D01*
X140715Y97615D01*
G37*
%LPD*%
%LPC*%
G36*
X111759Y97615D02*
X111759Y97615D01*
X111759Y97800D01*
X112135Y100169D01*
X112876Y102450D01*
X113965Y104588D01*
X115375Y106529D01*
X117071Y108225D01*
X119012Y109635D01*
X121150Y110724D01*
X123431Y111465D01*
X125800Y111841D01*
X138685Y111841D01*
X138685Y97615D01*
X111759Y97615D01*
G37*
%LPD*%
%LPC*%
G36*
X140715Y81359D02*
X140715Y81359D01*
X140715Y95585D01*
X167641Y95585D01*
X167641Y95400D01*
X167265Y93031D01*
X166524Y90750D01*
X165435Y88612D01*
X164025Y86671D01*
X162329Y84975D01*
X160388Y83565D01*
X158250Y82476D01*
X155969Y81735D01*
X153600Y81359D01*
X140715Y81359D01*
G37*
%LPD*%
%LPC*%
G36*
X125800Y81359D02*
X125800Y81359D01*
X123431Y81735D01*
X121150Y82476D01*
X119012Y83565D01*
X117071Y84975D01*
X115375Y86671D01*
X113965Y88612D01*
X112876Y90750D01*
X112135Y93031D01*
X111759Y95400D01*
X111759Y95585D01*
X138685Y95585D01*
X138685Y81359D01*
X125800Y81359D01*
G37*
%LPD*%
%LPC*%
G36*
X407415Y290365D02*
X407415Y290365D01*
X407415Y301886D01*
X409337Y301582D01*
X411214Y300972D01*
X412973Y300076D01*
X414570Y298916D01*
X415966Y297520D01*
X417126Y295923D01*
X418022Y294164D01*
X418632Y292287D01*
X418936Y290365D01*
X407415Y290365D01*
G37*
%LPD*%
%LPC*%
G36*
X661415Y290365D02*
X661415Y290365D01*
X661415Y301886D01*
X663337Y301582D01*
X665214Y300972D01*
X666973Y300076D01*
X668570Y298916D01*
X669966Y297520D01*
X671126Y295923D01*
X672022Y294164D01*
X672632Y292287D01*
X672936Y290365D01*
X661415Y290365D01*
G37*
%LPD*%
%LPC*%
G36*
X393864Y290365D02*
X393864Y290365D01*
X394168Y292287D01*
X394778Y294164D01*
X395674Y295923D01*
X396834Y297520D01*
X398230Y298916D01*
X399827Y300076D01*
X401586Y300972D01*
X403463Y301582D01*
X405385Y301886D01*
X405385Y290365D01*
X393864Y290365D01*
G37*
%LPD*%
%LPC*%
G36*
X647864Y290365D02*
X647864Y290365D01*
X648168Y292287D01*
X648778Y294164D01*
X649674Y295923D01*
X650834Y297520D01*
X652230Y298916D01*
X653827Y300076D01*
X655586Y300972D01*
X657463Y301582D01*
X659385Y301886D01*
X659385Y290365D01*
X647864Y290365D01*
G37*
%LPD*%
%LPC*%
G36*
X407415Y288335D02*
X407415Y288335D01*
X418936Y288335D01*
X418632Y286413D01*
X418022Y284536D01*
X417126Y282777D01*
X415966Y281180D01*
X414570Y279784D01*
X412973Y278624D01*
X411214Y277728D01*
X409337Y277118D01*
X407415Y276814D01*
X407415Y288335D01*
G37*
%LPD*%
%LPC*%
G36*
X661415Y288335D02*
X661415Y288335D01*
X672936Y288335D01*
X672632Y286413D01*
X672022Y284536D01*
X671126Y282777D01*
X669966Y281180D01*
X668570Y279784D01*
X666973Y278624D01*
X665214Y277728D01*
X663337Y277118D01*
X661415Y276814D01*
X661415Y288335D01*
G37*
%LPD*%
%LPC*%
G36*
X403463Y277118D02*
X403463Y277118D01*
X401586Y277728D01*
X399827Y278624D01*
X398230Y279784D01*
X396834Y281180D01*
X395674Y282777D01*
X394778Y284536D01*
X394168Y286413D01*
X393864Y288335D01*
X405385Y288335D01*
X405385Y276814D01*
X403463Y277118D01*
G37*
%LPD*%
%LPC*%
G36*
X657463Y277118D02*
X657463Y277118D01*
X655586Y277728D01*
X653827Y278624D01*
X652230Y279784D01*
X650834Y281180D01*
X649674Y282777D01*
X648778Y284536D01*
X648168Y286413D01*
X647864Y288335D01*
X659385Y288335D01*
X659385Y276814D01*
X657463Y277118D01*
G37*
%LPD*%
%LPC*%
G36*
X890015Y585215D02*
X890015Y585215D01*
X890015Y595612D01*
X891677Y595349D01*
X893388Y594793D01*
X894991Y593976D01*
X896447Y592919D01*
X897719Y591647D01*
X898776Y590191D01*
X899593Y588588D01*
X900149Y586877D01*
X900412Y585215D01*
X890015Y585215D01*
G37*
%LPD*%
%LPC*%
G36*
X890015Y229615D02*
X890015Y229615D01*
X890015Y240012D01*
X891677Y239749D01*
X893388Y239193D01*
X894991Y238376D01*
X896447Y237319D01*
X897719Y236047D01*
X898776Y234591D01*
X899593Y232988D01*
X900149Y231277D01*
X900412Y229615D01*
X890015Y229615D01*
G37*
%LPD*%
%LPC*%
G36*
X890015Y445515D02*
X890015Y445515D01*
X890015Y455912D01*
X891677Y455649D01*
X893388Y455093D01*
X894991Y454276D01*
X896447Y453219D01*
X897719Y451947D01*
X898776Y450491D01*
X899593Y448888D01*
X900149Y447177D01*
X900412Y445515D01*
X890015Y445515D01*
G37*
%LPD*%
%LPC*%
G36*
X115315Y432815D02*
X115315Y432815D01*
X115315Y443212D01*
X116977Y442949D01*
X118688Y442393D01*
X120291Y441576D01*
X121747Y440519D01*
X123019Y439247D01*
X124076Y437791D01*
X124893Y436188D01*
X125449Y434477D01*
X125712Y432815D01*
X115315Y432815D01*
G37*
%LPD*%
%LPC*%
G36*
X877588Y585215D02*
X877588Y585215D01*
X877851Y586877D01*
X878407Y588588D01*
X879224Y590191D01*
X880281Y591647D01*
X881553Y592919D01*
X883009Y593976D01*
X884612Y594793D01*
X886323Y595349D01*
X887985Y595612D01*
X887985Y585215D01*
X877588Y585215D01*
G37*
%LPD*%
%LPC*%
G36*
X877588Y445515D02*
X877588Y445515D01*
X877851Y447177D01*
X878407Y448888D01*
X879224Y450491D01*
X880281Y451947D01*
X881553Y453219D01*
X883009Y454276D01*
X884612Y455093D01*
X886323Y455649D01*
X887985Y455912D01*
X887985Y445515D01*
X877588Y445515D01*
G37*
%LPD*%
%LPC*%
G36*
X877588Y229615D02*
X877588Y229615D01*
X877851Y231277D01*
X878407Y232988D01*
X879224Y234591D01*
X880281Y236047D01*
X881553Y237319D01*
X883009Y238376D01*
X884612Y239193D01*
X886323Y239749D01*
X887985Y240012D01*
X887985Y229615D01*
X877588Y229615D01*
G37*
%LPD*%
%LPC*%
G36*
X890015Y227585D02*
X890015Y227585D01*
X900412Y227585D01*
X900149Y225923D01*
X899593Y224212D01*
X898776Y222609D01*
X897719Y221153D01*
X896447Y219881D01*
X894991Y218824D01*
X893388Y218007D01*
X891677Y217451D01*
X890015Y217188D01*
X890015Y227585D01*
G37*
%LPD*%
%LPC*%
G36*
X890015Y443485D02*
X890015Y443485D01*
X900412Y443485D01*
X900149Y441823D01*
X899593Y440112D01*
X898776Y438509D01*
X897719Y437053D01*
X896447Y435781D01*
X894991Y434724D01*
X893388Y433907D01*
X891677Y433351D01*
X890015Y433088D01*
X890015Y443485D01*
G37*
%LPD*%
%LPC*%
G36*
X890015Y583185D02*
X890015Y583185D01*
X900412Y583185D01*
X900149Y581523D01*
X899593Y579812D01*
X898776Y578209D01*
X897719Y576753D01*
X896447Y575481D01*
X894991Y574424D01*
X893388Y573607D01*
X891677Y573051D01*
X890015Y572788D01*
X890015Y583185D01*
G37*
%LPD*%
%LPC*%
G36*
X102888Y432815D02*
X102888Y432815D01*
X103151Y434477D01*
X103707Y436188D01*
X104524Y437791D01*
X105581Y439247D01*
X106853Y440519D01*
X108309Y441576D01*
X109912Y442393D01*
X111623Y442949D01*
X113285Y443212D01*
X113285Y432815D01*
X102888Y432815D01*
G37*
%LPD*%
%LPC*%
G36*
X115315Y430785D02*
X115315Y430785D01*
X125712Y430785D01*
X125449Y429123D01*
X124893Y427412D01*
X124076Y425809D01*
X123019Y424353D01*
X121747Y423081D01*
X120291Y422024D01*
X118688Y421207D01*
X116977Y420651D01*
X115315Y420388D01*
X115315Y430785D01*
G37*
%LPD*%
%LPC*%
G36*
X886323Y217451D02*
X886323Y217451D01*
X884612Y218007D01*
X883009Y218824D01*
X881553Y219881D01*
X880281Y221153D01*
X879224Y222609D01*
X878407Y224212D01*
X877851Y225923D01*
X877588Y227585D01*
X887985Y227585D01*
X887985Y217188D01*
X886323Y217451D01*
G37*
%LPD*%
%LPC*%
G36*
X886323Y433351D02*
X886323Y433351D01*
X884612Y433907D01*
X883009Y434724D01*
X881553Y435781D01*
X880281Y437053D01*
X879224Y438509D01*
X878407Y440112D01*
X877851Y441823D01*
X877588Y443485D01*
X887985Y443485D01*
X887985Y433088D01*
X886323Y433351D01*
G37*
%LPD*%
%LPC*%
G36*
X111623Y420651D02*
X111623Y420651D01*
X109912Y421207D01*
X108309Y422024D01*
X106853Y423081D01*
X105581Y424353D01*
X104524Y425809D01*
X103707Y427412D01*
X103151Y429123D01*
X102888Y430785D01*
X113285Y430785D01*
X113285Y420388D01*
X111623Y420651D01*
G37*
%LPD*%
%LPC*%
G36*
X886323Y573051D02*
X886323Y573051D01*
X884612Y573607D01*
X883009Y574424D01*
X881553Y575481D01*
X880281Y576753D01*
X879224Y578209D01*
X878407Y579812D01*
X877851Y581523D01*
X877588Y583185D01*
X887985Y583185D01*
X887985Y572788D01*
X886323Y573051D01*
G37*
%LPD*%
%LPC*%
G36*
X114299Y431799D02*
X114299Y431799D01*
X114299Y431801D01*
X114301Y431801D01*
X114301Y431799D01*
X114299Y431799D01*
G37*
%LPD*%
%LPC*%
G36*
X406399Y289349D02*
X406399Y289349D01*
X406399Y289351D01*
X406401Y289351D01*
X406401Y289349D01*
X406399Y289349D01*
G37*
%LPD*%
%LPC*%
G36*
X660399Y289349D02*
X660399Y289349D01*
X660399Y289351D01*
X660401Y289351D01*
X660401Y289349D01*
X660399Y289349D01*
G37*
%LPD*%
%LPC*%
G36*
X888999Y228599D02*
X888999Y228599D01*
X888999Y228601D01*
X889001Y228601D01*
X889001Y228599D01*
X888999Y228599D01*
G37*
%LPD*%
%LPC*%
G36*
X888999Y444499D02*
X888999Y444499D01*
X888999Y444501D01*
X889001Y444501D01*
X889001Y444499D01*
X888999Y444499D01*
G37*
%LPD*%
%LPC*%
G36*
X139699Y96599D02*
X139699Y96599D01*
X139699Y96601D01*
X139701Y96601D01*
X139701Y96599D01*
X139699Y96599D01*
G37*
%LPD*%
%LPC*%
G36*
X888999Y584199D02*
X888999Y584199D01*
X888999Y584201D01*
X889001Y584201D01*
X889001Y584199D01*
X888999Y584199D01*
G37*
%LPD*%
D10*
X152400Y37600D02*
X127000Y37600D01*
X127000Y96600D02*
X152400Y96600D01*
X92700Y78300D02*
X92700Y52900D01*
D11*
X114300Y482600D03*
X114300Y457200D03*
X114300Y431800D03*
X114300Y508000D03*
X114300Y533400D03*
X114300Y558800D03*
X889000Y177800D03*
X889000Y203200D03*
X889000Y228600D03*
X889000Y152400D03*
X889000Y419100D03*
X889000Y444500D03*
X889000Y469900D03*
X889000Y393700D03*
X889000Y584200D03*
X889000Y609600D03*
X889000Y635000D03*
X114300Y698500D03*
X114300Y673100D03*
D12*
X660400Y263950D03*
D13*
X660400Y289350D03*
X660400Y314750D03*
X660400Y340150D03*
X660400Y365550D03*
X660400Y390950D03*
X660400Y416350D03*
X660400Y441750D03*
X660400Y467150D03*
X660400Y492550D03*
X660400Y517950D03*
X660400Y543350D03*
X660400Y568750D03*
X660400Y594150D03*
X660400Y619550D03*
X406400Y263950D03*
X406400Y289350D03*
X406400Y314750D03*
X406400Y340150D03*
X406400Y365550D03*
X406400Y390950D03*
X406400Y416350D03*
X406400Y441750D03*
X406400Y467150D03*
X406400Y492550D03*
X406400Y517950D03*
X406400Y543350D03*
X406400Y568750D03*
X406400Y594150D03*
X406400Y619550D03*
D14*
X121002Y553152D02*
X115240Y553152D01*
X114300Y558800D01*
X403340Y265052D02*
X406400Y263950D01*
X218650Y263950D01*
X203200Y279400D01*
X203200Y533400D02*
X177800Y558800D01*
X120888Y558800D01*
X115240Y553152D01*
X203200Y533400D02*
X203200Y279400D01*
X662630Y259290D02*
X685800Y259290D01*
X889000Y469900D02*
X893110Y466722D01*
X662630Y261720D02*
X660400Y263950D01*
X662630Y261720D02*
X662630Y259290D01*
X692034Y253056D02*
X698500Y253056D01*
X692034Y253056D02*
X685800Y259290D01*
X698500Y253056D02*
X698500Y127000D01*
X723900Y101600D01*
X939800Y101600D02*
X952500Y114300D01*
X952500Y457200D01*
X939800Y469900D01*
X896288Y469900D01*
X893110Y466722D01*
X939800Y101600D02*
X723900Y101600D01*
X850900Y469900D02*
X889000Y469900D01*
X850900Y469900D02*
X838200Y482600D01*
X838200Y622300D01*
X850900Y635000D01*
X889000Y635000D01*
X662630Y593486D02*
X660400Y594150D01*
X662630Y593486D02*
X714488Y593486D01*
X736600Y444500D02*
X762000Y419100D01*
X889000Y419100D01*
X736600Y571374D02*
X714488Y593486D01*
X736600Y571374D02*
X736600Y444500D01*
X889000Y419100D02*
X914400Y419100D01*
X927100Y406400D01*
X927100Y165100D01*
X914400Y152400D02*
X889000Y152400D01*
X914400Y152400D02*
X927100Y165100D01*
X698500Y512818D02*
X662630Y512818D01*
X660400Y517950D01*
X698500Y512818D02*
X711200Y500118D01*
X736600Y393700D02*
X889000Y393700D01*
X711200Y419100D02*
X711200Y500118D01*
X711200Y419100D02*
X736600Y393700D01*
X736600Y203200D01*
X762000Y177800D01*
X889000Y177800D01*
X656868Y437912D02*
X660400Y441750D01*
X152400Y457200D02*
X114300Y457200D01*
X152400Y457200D02*
X177800Y431800D01*
X596900Y228600D02*
X609600Y241300D01*
X609600Y419100D01*
X628412Y437912D02*
X656868Y437912D01*
X215900Y228600D02*
X177800Y266700D01*
X215900Y228600D02*
X596900Y228600D01*
X609600Y419100D02*
X628412Y437912D01*
X177800Y431800D02*
X177800Y266700D01*
X177800Y698500D02*
X114300Y698500D01*
X203200Y673100D02*
X203200Y584200D01*
X244050Y543350D02*
X406400Y543350D01*
X203200Y673100D02*
X177800Y698500D01*
X203200Y584200D02*
X244050Y543350D01*
M02*
