G04 EAGLE Gerber RS-274X export*
G75*
%MOMM*%
%FSLAX34Y34*%
%LPD*%
%INTop Copper*%
%IPPOS*%
%AMOC8*
5,1,8,0,0,1.08239X$1,22.5*%
G01*
%ADD10C,2.540000*%
%ADD11C,1.778000*%
%ADD12R,2.000000X2.000000*%
%ADD13C,2.000000*%
%ADD14C,1.000000*%

G36*
X989337Y12194D02*
X989337Y12194D01*
X989342Y12193D01*
X989435Y12214D01*
X989529Y12232D01*
X989533Y12235D01*
X989538Y12236D01*
X989616Y12292D01*
X989694Y12345D01*
X989697Y12349D01*
X989701Y12352D01*
X989752Y12434D01*
X989804Y12513D01*
X989804Y12518D01*
X989807Y12523D01*
X989839Y12700D01*
X989839Y787400D01*
X989838Y787405D01*
X989839Y787410D01*
X989818Y787503D01*
X989800Y787597D01*
X989797Y787601D01*
X989796Y787606D01*
X989740Y787684D01*
X989687Y787762D01*
X989683Y787765D01*
X989680Y787769D01*
X989598Y787820D01*
X989519Y787872D01*
X989514Y787872D01*
X989509Y787875D01*
X989332Y787907D01*
X12700Y787907D01*
X12695Y787906D01*
X12690Y787907D01*
X12597Y787886D01*
X12504Y787868D01*
X12499Y787865D01*
X12494Y787864D01*
X12416Y787808D01*
X12338Y787755D01*
X12335Y787751D01*
X12331Y787748D01*
X12280Y787666D01*
X12228Y787587D01*
X12228Y787582D01*
X12225Y787577D01*
X12193Y787400D01*
X12193Y12700D01*
X12194Y12695D01*
X12193Y12690D01*
X12214Y12597D01*
X12232Y12504D01*
X12235Y12499D01*
X12236Y12494D01*
X12292Y12416D01*
X12345Y12338D01*
X12349Y12335D01*
X12352Y12331D01*
X12434Y12280D01*
X12513Y12228D01*
X12518Y12228D01*
X12523Y12225D01*
X12700Y12193D01*
X989332Y12193D01*
X989337Y12194D01*
G37*
%LPC*%
G36*
X124170Y23375D02*
X124170Y23375D01*
X118942Y25541D01*
X114941Y29542D01*
X112775Y34770D01*
X112775Y40430D01*
X114941Y45658D01*
X118942Y49659D01*
X119207Y49769D01*
X120432Y50276D01*
X121656Y50783D01*
X122881Y51291D01*
X124106Y51798D01*
X124170Y51825D01*
X155230Y51825D01*
X160458Y49659D01*
X164459Y45658D01*
X164757Y44938D01*
X164761Y44932D01*
X164762Y44926D01*
X164817Y44849D01*
X164869Y44771D01*
X164875Y44768D01*
X164878Y44763D01*
X164958Y44713D01*
X165037Y44661D01*
X165043Y44660D01*
X165049Y44657D01*
X165226Y44625D01*
X238387Y44625D01*
X238395Y44626D01*
X238403Y44625D01*
X238493Y44646D01*
X238584Y44664D01*
X238590Y44669D01*
X238598Y44671D01*
X238746Y44773D01*
X272727Y78754D01*
X272731Y78761D01*
X272737Y78765D01*
X272786Y78844D01*
X272838Y78921D01*
X272839Y78929D01*
X272843Y78935D01*
X272875Y79113D01*
X272875Y242598D01*
X273869Y244996D01*
X301104Y272231D01*
X301636Y272452D01*
X302860Y272959D01*
X303502Y273225D01*
X399166Y273225D01*
X399174Y273226D01*
X399182Y273225D01*
X399272Y273246D01*
X399363Y273264D01*
X399369Y273269D01*
X399377Y273271D01*
X399525Y273373D01*
X399872Y273720D01*
X400483Y273973D01*
X401707Y274481D01*
X401708Y274481D01*
X402932Y274988D01*
X404108Y275475D01*
X408692Y275475D01*
X412928Y273720D01*
X416170Y270478D01*
X417956Y266167D01*
X417964Y266125D01*
X417967Y266121D01*
X417968Y266116D01*
X418024Y266038D01*
X418077Y265960D01*
X418081Y265957D01*
X418084Y265953D01*
X418166Y265902D01*
X418245Y265850D01*
X418250Y265850D01*
X418255Y265847D01*
X418432Y265815D01*
X629356Y265815D01*
X631754Y264821D01*
X682470Y214105D01*
X682477Y214101D01*
X682481Y214095D01*
X682560Y214046D01*
X682637Y213994D01*
X682645Y213993D01*
X682651Y213989D01*
X682829Y213957D01*
X886024Y213957D01*
X886028Y213958D01*
X886032Y213957D01*
X886163Y213982D01*
X887410Y213957D01*
X887415Y213958D01*
X887420Y213957D01*
X888664Y213957D01*
X888760Y213937D01*
X889398Y213657D01*
X889412Y213654D01*
X889425Y213647D01*
X889558Y213623D01*
X889594Y213615D01*
X889598Y213615D01*
X889602Y213615D01*
X891072Y213615D01*
X894899Y212029D01*
X897829Y209099D01*
X899415Y205272D01*
X899415Y201128D01*
X897829Y197301D01*
X894899Y194371D01*
X894622Y194256D01*
X893398Y193749D01*
X893397Y193749D01*
X892173Y193241D01*
X891072Y192785D01*
X886928Y192785D01*
X883101Y194371D01*
X880171Y197301D01*
X878807Y200594D01*
X878803Y200600D01*
X878801Y200606D01*
X878747Y200683D01*
X878695Y200761D01*
X878689Y200764D01*
X878685Y200769D01*
X878606Y200819D01*
X878527Y200871D01*
X878521Y200872D01*
X878515Y200875D01*
X878338Y200907D01*
X678618Y200907D01*
X676220Y201901D01*
X625504Y252617D01*
X625497Y252621D01*
X625493Y252627D01*
X625414Y252676D01*
X625337Y252728D01*
X625329Y252729D01*
X625323Y252733D01*
X625145Y252765D01*
X409614Y252765D01*
X409605Y252763D01*
X409596Y252765D01*
X409420Y252727D01*
X409418Y252726D01*
X409089Y252590D01*
X408692Y252425D01*
X404108Y252425D01*
X403672Y252606D01*
X403612Y252618D01*
X403555Y252639D01*
X403511Y252637D01*
X403475Y252644D01*
X403431Y252635D01*
X403409Y252635D01*
X400843Y253124D01*
X398674Y254548D01*
X397214Y256695D01*
X397208Y256726D01*
X397186Y256778D01*
X397173Y256834D01*
X397145Y256874D01*
X397129Y256910D01*
X397099Y256939D01*
X397070Y256982D01*
X396630Y257422D01*
X395619Y259862D01*
X395615Y259868D01*
X395614Y259874D01*
X395559Y259951D01*
X395507Y260029D01*
X395502Y260032D01*
X395498Y260037D01*
X395418Y260087D01*
X395340Y260139D01*
X395333Y260140D01*
X395328Y260143D01*
X395150Y260175D01*
X307713Y260175D01*
X307705Y260174D01*
X307697Y260175D01*
X307607Y260154D01*
X307516Y260136D01*
X307510Y260131D01*
X307502Y260129D01*
X307354Y260027D01*
X286073Y238746D01*
X286069Y238739D01*
X286063Y238735D01*
X286014Y238656D01*
X285962Y238579D01*
X285961Y238571D01*
X285957Y238565D01*
X285925Y238387D01*
X285925Y74902D01*
X284931Y72504D01*
X244996Y32569D01*
X244693Y32443D01*
X243469Y31936D01*
X243468Y31936D01*
X242598Y31575D01*
X165640Y31575D01*
X165634Y31574D01*
X165627Y31575D01*
X165536Y31554D01*
X165444Y31536D01*
X165438Y31532D01*
X165432Y31531D01*
X165355Y31476D01*
X165278Y31423D01*
X165274Y31418D01*
X165269Y31414D01*
X165172Y31262D01*
X164459Y29542D01*
X160458Y25541D01*
X159977Y25342D01*
X158752Y24834D01*
X157528Y24327D01*
X156303Y23820D01*
X155230Y23375D01*
X124170Y23375D01*
G37*
%LPD*%
%LPC*%
G36*
X886928Y624585D02*
X886928Y624585D01*
X883101Y626171D01*
X880945Y628327D01*
X880938Y628331D01*
X880934Y628337D01*
X880855Y628386D01*
X880778Y628438D01*
X880770Y628439D01*
X880763Y628443D01*
X880586Y628475D01*
X773402Y628475D01*
X771004Y629469D01*
X769097Y631375D01*
X745675Y654797D01*
X743769Y656704D01*
X742775Y659102D01*
X742775Y698875D01*
X742774Y698883D01*
X742775Y698891D01*
X742754Y698981D01*
X742736Y699072D01*
X742731Y699078D01*
X742729Y699086D01*
X742627Y699234D01*
X734046Y707815D01*
X734039Y707819D01*
X734035Y707825D01*
X733956Y707874D01*
X733879Y707926D01*
X733871Y707927D01*
X733865Y707931D01*
X733687Y707963D01*
X269613Y707963D01*
X269605Y707962D01*
X269597Y707963D01*
X269507Y707942D01*
X269416Y707924D01*
X269410Y707919D01*
X269402Y707917D01*
X269254Y707815D01*
X260673Y699234D01*
X260669Y699227D01*
X260663Y699223D01*
X260614Y699144D01*
X260562Y699067D01*
X260561Y699059D01*
X260557Y699053D01*
X260525Y698875D01*
X260525Y684502D01*
X259531Y682104D01*
X244996Y667569D01*
X244879Y667520D01*
X243655Y667013D01*
X243654Y667013D01*
X242598Y666575D01*
X122714Y666575D01*
X122706Y666574D01*
X122699Y666575D01*
X122609Y666554D01*
X122518Y666536D01*
X122511Y666531D01*
X122503Y666529D01*
X122355Y666427D01*
X120199Y664271D01*
X119472Y663969D01*
X118247Y663462D01*
X117023Y662955D01*
X116372Y662685D01*
X112228Y662685D01*
X108401Y664271D01*
X105471Y667201D01*
X103885Y671028D01*
X103885Y675172D01*
X105471Y678999D01*
X108401Y681929D01*
X109319Y682310D01*
X110544Y682817D01*
X111768Y683324D01*
X112228Y683515D01*
X116372Y683515D01*
X120199Y681929D01*
X122355Y679773D01*
X122362Y679769D01*
X122366Y679763D01*
X122445Y679714D01*
X122522Y679662D01*
X122530Y679661D01*
X122537Y679657D01*
X122714Y679625D01*
X238387Y679625D01*
X238395Y679626D01*
X238403Y679625D01*
X238493Y679646D01*
X238584Y679664D01*
X238590Y679669D01*
X238598Y679671D01*
X238746Y679773D01*
X247327Y688354D01*
X247331Y688361D01*
X247337Y688365D01*
X247386Y688444D01*
X247438Y688521D01*
X247439Y688529D01*
X247443Y688535D01*
X247475Y688713D01*
X247475Y703086D01*
X248469Y705484D01*
X250375Y707391D01*
X261097Y718113D01*
X263004Y720019D01*
X263810Y720353D01*
X265035Y720861D01*
X265402Y721013D01*
X737898Y721013D01*
X740296Y720019D01*
X742203Y718113D01*
X752925Y707391D01*
X754831Y705484D01*
X755825Y703086D01*
X755825Y663313D01*
X755826Y663305D01*
X755825Y663297D01*
X755846Y663207D01*
X755864Y663116D01*
X755869Y663110D01*
X755871Y663102D01*
X755973Y662954D01*
X777254Y641673D01*
X777261Y641669D01*
X777265Y641663D01*
X777344Y641614D01*
X777421Y641562D01*
X777429Y641561D01*
X777435Y641557D01*
X777613Y641525D01*
X880586Y641525D01*
X880594Y641526D01*
X880601Y641525D01*
X880691Y641546D01*
X880782Y641564D01*
X880789Y641569D01*
X880797Y641571D01*
X880945Y641673D01*
X883101Y643829D01*
X884155Y644266D01*
X885379Y644773D01*
X886604Y645280D01*
X886928Y645415D01*
X891072Y645415D01*
X894899Y643829D01*
X897829Y640899D01*
X899415Y637072D01*
X899415Y632928D01*
X897829Y629101D01*
X894899Y626171D01*
X894308Y625926D01*
X893083Y625418D01*
X891859Y624911D01*
X891858Y624911D01*
X891072Y624585D01*
X886928Y624585D01*
G37*
%LPD*%
%LPC*%
G36*
X445526Y608771D02*
X445526Y608771D01*
X445421Y608876D01*
X445421Y673924D01*
X445526Y674029D01*
X622574Y674029D01*
X622679Y673924D01*
X622679Y608876D01*
X622574Y608771D01*
X445526Y608771D01*
G37*
%LPD*%
%LPC*%
G36*
X658108Y354025D02*
X658108Y354025D01*
X653872Y355780D01*
X650630Y359022D01*
X648875Y363258D01*
X648875Y367842D01*
X650630Y372078D01*
X653872Y375320D01*
X654121Y375423D01*
X655345Y375931D01*
X656570Y376438D01*
X657795Y376945D01*
X658108Y377075D01*
X662487Y377075D01*
X662495Y377076D01*
X662503Y377075D01*
X662593Y377096D01*
X662684Y377114D01*
X662690Y377119D01*
X662698Y377121D01*
X662846Y377223D01*
X664910Y379288D01*
X664911Y379289D01*
X664912Y379290D01*
X664966Y379372D01*
X665021Y379455D01*
X665022Y379456D01*
X665022Y379457D01*
X665040Y379554D01*
X665059Y379652D01*
X665059Y379653D01*
X665059Y379654D01*
X665038Y379751D01*
X665017Y379848D01*
X665017Y379849D01*
X665016Y379850D01*
X664960Y379931D01*
X664903Y380012D01*
X664902Y380013D01*
X664901Y380014D01*
X664819Y380066D01*
X664734Y380120D01*
X664732Y380120D01*
X664731Y380121D01*
X664633Y380137D01*
X664536Y380153D01*
X664535Y380153D01*
X664534Y380153D01*
X664358Y380115D01*
X663861Y379909D01*
X662692Y379425D01*
X658108Y379425D01*
X653872Y381180D01*
X650630Y384422D01*
X648875Y388658D01*
X648875Y393242D01*
X650630Y397478D01*
X653872Y400720D01*
X654030Y400786D01*
X655255Y401293D01*
X656479Y401800D01*
X656480Y401800D01*
X657704Y402308D01*
X658108Y402475D01*
X662692Y402475D01*
X666928Y400720D01*
X670170Y397478D01*
X671925Y393242D01*
X671925Y388658D01*
X671235Y386992D01*
X671235Y386991D01*
X671234Y386990D01*
X671215Y386893D01*
X671196Y386796D01*
X671197Y386794D01*
X671196Y386793D01*
X671217Y386695D01*
X671237Y386599D01*
X671238Y386598D01*
X671238Y386597D01*
X671298Y386511D01*
X671350Y386434D01*
X671352Y386433D01*
X671352Y386432D01*
X671436Y386379D01*
X671519Y386326D01*
X671520Y386326D01*
X671522Y386325D01*
X671618Y386309D01*
X671717Y386291D01*
X671718Y386292D01*
X671719Y386291D01*
X671814Y386313D01*
X671912Y386336D01*
X671913Y386337D01*
X671914Y386337D01*
X672062Y386440D01*
X691827Y406204D01*
X691831Y406211D01*
X691837Y406215D01*
X691886Y406294D01*
X691938Y406371D01*
X691939Y406379D01*
X691943Y406385D01*
X691975Y406563D01*
X691975Y598198D01*
X692969Y600596D01*
X707504Y615131D01*
X708038Y615353D01*
X709263Y615860D01*
X709902Y616125D01*
X880586Y616125D01*
X880594Y616126D01*
X880601Y616125D01*
X880691Y616146D01*
X880782Y616164D01*
X880789Y616169D01*
X880797Y616171D01*
X880945Y616273D01*
X883101Y618429D01*
X884245Y618903D01*
X885470Y619411D01*
X886694Y619918D01*
X886695Y619918D01*
X886928Y620015D01*
X891072Y620015D01*
X894899Y618429D01*
X897829Y615499D01*
X899415Y611672D01*
X899415Y607528D01*
X897829Y603701D01*
X894899Y600771D01*
X894398Y600563D01*
X893174Y600056D01*
X893173Y600056D01*
X891949Y599549D01*
X891072Y599185D01*
X886928Y599185D01*
X883101Y600771D01*
X880945Y602927D01*
X880938Y602931D01*
X880934Y602937D01*
X880855Y602986D01*
X880778Y603038D01*
X880770Y603039D01*
X880763Y603043D01*
X880586Y603075D01*
X714113Y603075D01*
X714105Y603074D01*
X714097Y603075D01*
X714007Y603054D01*
X713916Y603036D01*
X713910Y603031D01*
X713902Y603029D01*
X713754Y602927D01*
X705173Y594346D01*
X705169Y594339D01*
X705163Y594335D01*
X705114Y594256D01*
X705062Y594179D01*
X705061Y594171D01*
X705057Y594165D01*
X705025Y593987D01*
X705025Y402352D01*
X704031Y399954D01*
X702125Y398047D01*
X672073Y367996D01*
X672069Y367989D01*
X672063Y367985D01*
X672014Y367906D01*
X671962Y367829D01*
X671961Y367821D01*
X671957Y367815D01*
X671925Y367637D01*
X671925Y363258D01*
X670170Y359022D01*
X666928Y355780D01*
X666401Y355561D01*
X665176Y355054D01*
X663952Y354547D01*
X662727Y354040D01*
X662692Y354025D01*
X658108Y354025D01*
G37*
%LPD*%
%LPC*%
G36*
X201902Y450675D02*
X201902Y450675D01*
X199504Y451669D01*
X149846Y501327D01*
X149839Y501331D01*
X149835Y501337D01*
X149756Y501386D01*
X149679Y501438D01*
X149671Y501439D01*
X149665Y501443D01*
X149487Y501475D01*
X122714Y501475D01*
X122706Y501474D01*
X122699Y501475D01*
X122609Y501454D01*
X122518Y501436D01*
X122511Y501431D01*
X122503Y501429D01*
X122355Y501327D01*
X120199Y499171D01*
X120060Y499113D01*
X118836Y498606D01*
X117611Y498099D01*
X116387Y497591D01*
X116386Y497591D01*
X116372Y497585D01*
X112228Y497585D01*
X108401Y499171D01*
X105471Y502101D01*
X103885Y505928D01*
X103885Y510072D01*
X105471Y513899D01*
X108401Y516829D01*
X108683Y516946D01*
X109907Y517453D01*
X109908Y517453D01*
X111132Y517961D01*
X112228Y518415D01*
X116372Y518415D01*
X120199Y516829D01*
X122355Y514673D01*
X122362Y514669D01*
X122366Y514663D01*
X122445Y514614D01*
X122522Y514562D01*
X122530Y514561D01*
X122537Y514557D01*
X122714Y514525D01*
X153698Y514525D01*
X156096Y513531D01*
X205754Y463873D01*
X205761Y463869D01*
X205765Y463863D01*
X205844Y463814D01*
X205921Y463762D01*
X205929Y463761D01*
X205935Y463757D01*
X206113Y463725D01*
X368137Y463725D01*
X368145Y463726D01*
X368153Y463725D01*
X368243Y463746D01*
X368334Y463764D01*
X368340Y463769D01*
X368348Y463771D01*
X368496Y463873D01*
X394727Y490104D01*
X394731Y490111D01*
X394737Y490115D01*
X394786Y490194D01*
X394838Y490271D01*
X394839Y490279D01*
X394843Y490285D01*
X394875Y490463D01*
X394875Y494842D01*
X396630Y499078D01*
X399872Y502320D01*
X400893Y502743D01*
X402117Y503250D01*
X403342Y503758D01*
X404108Y504075D01*
X408692Y504075D01*
X412928Y502320D01*
X416170Y499078D01*
X417925Y494842D01*
X417925Y490258D01*
X416170Y486022D01*
X412928Y482780D01*
X411948Y482374D01*
X410724Y481867D01*
X409499Y481359D01*
X408692Y481025D01*
X404313Y481025D01*
X404305Y481024D01*
X404297Y481025D01*
X404207Y481004D01*
X404116Y480986D01*
X404110Y480981D01*
X404102Y480979D01*
X403954Y480877D01*
X401890Y478812D01*
X401889Y478811D01*
X401888Y478810D01*
X401834Y478728D01*
X401779Y478645D01*
X401778Y478644D01*
X401778Y478643D01*
X401760Y478546D01*
X401741Y478448D01*
X401741Y478447D01*
X401741Y478446D01*
X401762Y478349D01*
X401783Y478252D01*
X401783Y478251D01*
X401784Y478250D01*
X401841Y478169D01*
X401897Y478088D01*
X401898Y478087D01*
X401899Y478086D01*
X401981Y478034D01*
X402066Y477980D01*
X402068Y477980D01*
X402069Y477979D01*
X402167Y477963D01*
X402264Y477947D01*
X402265Y477947D01*
X402266Y477947D01*
X402442Y477985D01*
X403432Y478395D01*
X403433Y478395D01*
X404108Y478675D01*
X408692Y478675D01*
X412928Y476920D01*
X416170Y473678D01*
X417925Y469442D01*
X417925Y464858D01*
X416170Y460622D01*
X412928Y457380D01*
X412039Y457011D01*
X410814Y456504D01*
X409590Y455997D01*
X408692Y455625D01*
X404108Y455625D01*
X399872Y457380D01*
X396630Y460622D01*
X394875Y464858D01*
X394875Y469442D01*
X395565Y471108D01*
X395565Y471109D01*
X395566Y471110D01*
X395585Y471207D01*
X395604Y471304D01*
X395603Y471306D01*
X395604Y471307D01*
X395583Y471405D01*
X395563Y471501D01*
X395562Y471502D01*
X395562Y471503D01*
X395504Y471586D01*
X395450Y471666D01*
X395448Y471667D01*
X395448Y471668D01*
X395364Y471721D01*
X395281Y471774D01*
X395280Y471774D01*
X395278Y471775D01*
X395182Y471791D01*
X395083Y471809D01*
X395082Y471808D01*
X395081Y471809D01*
X394986Y471787D01*
X394888Y471764D01*
X394887Y471763D01*
X394886Y471763D01*
X394738Y471660D01*
X376653Y453575D01*
X374746Y451669D01*
X374174Y451432D01*
X372949Y450924D01*
X372348Y450675D01*
X201902Y450675D01*
G37*
%LPD*%
%LPC*%
G36*
X404108Y608025D02*
X404108Y608025D01*
X399872Y609780D01*
X396630Y613022D01*
X394875Y617258D01*
X394875Y621842D01*
X396630Y626078D01*
X399872Y629320D01*
X400897Y629745D01*
X400956Y629784D01*
X401018Y629816D01*
X401038Y629840D01*
X401064Y629857D01*
X401102Y629915D01*
X401148Y629969D01*
X401157Y629999D01*
X401174Y630024D01*
X401187Y630093D01*
X401208Y630160D01*
X401205Y630191D01*
X401211Y630221D01*
X401196Y630290D01*
X401189Y630360D01*
X401174Y630387D01*
X401168Y630417D01*
X401128Y630475D01*
X401095Y630537D01*
X401069Y630558D01*
X401053Y630581D01*
X401009Y630609D01*
X400957Y630653D01*
X395651Y633716D01*
X390966Y638401D01*
X387654Y644138D01*
X385939Y650538D01*
X385939Y657162D01*
X387654Y663562D01*
X390966Y669299D01*
X395651Y673984D01*
X401388Y677296D01*
X407788Y679011D01*
X414412Y679011D01*
X420812Y677296D01*
X426549Y673984D01*
X431234Y669299D01*
X434546Y663562D01*
X436261Y657162D01*
X436261Y650538D01*
X434546Y644138D01*
X431234Y638401D01*
X426549Y633716D01*
X420812Y630404D01*
X414588Y628736D01*
X414555Y628720D01*
X414518Y628712D01*
X414466Y628676D01*
X414409Y628647D01*
X414384Y628619D01*
X414354Y628598D01*
X414319Y628544D01*
X414278Y628496D01*
X414266Y628460D01*
X414246Y628429D01*
X414235Y628366D01*
X414216Y628305D01*
X414219Y628268D01*
X414212Y628231D01*
X414227Y628169D01*
X414232Y628105D01*
X414249Y628072D01*
X414258Y628036D01*
X414300Y627975D01*
X414325Y627927D01*
X414344Y627912D01*
X414361Y627888D01*
X416170Y626078D01*
X417925Y621842D01*
X417925Y617258D01*
X416170Y613022D01*
X412928Y609780D01*
X412720Y609694D01*
X411496Y609186D01*
X410271Y608679D01*
X409047Y608172D01*
X409046Y608172D01*
X408692Y608025D01*
X404108Y608025D01*
G37*
%LPD*%
%LPC*%
G36*
X658108Y608025D02*
X658108Y608025D01*
X653872Y609780D01*
X650630Y613022D01*
X648875Y617258D01*
X648875Y621842D01*
X650630Y626078D01*
X652545Y627993D01*
X652566Y628024D01*
X652593Y628049D01*
X652621Y628107D01*
X652656Y628160D01*
X652663Y628197D01*
X652679Y628231D01*
X652681Y628295D01*
X652693Y628357D01*
X652686Y628394D01*
X652687Y628431D01*
X652665Y628491D01*
X652652Y628553D01*
X652631Y628584D01*
X652618Y628619D01*
X652574Y628665D01*
X652538Y628718D01*
X652506Y628738D01*
X652481Y628765D01*
X652414Y628797D01*
X652368Y628825D01*
X652344Y628830D01*
X652318Y628842D01*
X646488Y630404D01*
X640751Y633716D01*
X636066Y638401D01*
X632754Y644138D01*
X631039Y650538D01*
X631039Y657162D01*
X632754Y663562D01*
X636066Y669299D01*
X640751Y673984D01*
X646488Y677296D01*
X652888Y679011D01*
X659512Y679011D01*
X665912Y677296D01*
X671649Y673984D01*
X676334Y669299D01*
X679646Y663562D01*
X681361Y657162D01*
X681361Y650538D01*
X679646Y644138D01*
X676334Y638401D01*
X671649Y633716D01*
X666134Y630532D01*
X666082Y630486D01*
X666024Y630446D01*
X666007Y630420D01*
X665984Y630400D01*
X665953Y630337D01*
X665915Y630278D01*
X665910Y630247D01*
X665897Y630219D01*
X665893Y630149D01*
X665881Y630080D01*
X665888Y630050D01*
X665886Y630019D01*
X665910Y629953D01*
X665925Y629885D01*
X665943Y629860D01*
X665954Y629831D01*
X666001Y629779D01*
X666042Y629722D01*
X666070Y629704D01*
X666089Y629683D01*
X666136Y629662D01*
X666194Y629624D01*
X666928Y629320D01*
X670170Y626078D01*
X671925Y621842D01*
X671925Y617258D01*
X670170Y613022D01*
X666928Y609780D01*
X666720Y609694D01*
X665496Y609186D01*
X664271Y608679D01*
X663047Y608172D01*
X663046Y608172D01*
X662692Y608025D01*
X658108Y608025D01*
G37*
%LPD*%
%LPC*%
G36*
X652888Y159189D02*
X652888Y159189D01*
X646488Y160904D01*
X640751Y164216D01*
X636066Y168901D01*
X632754Y174638D01*
X631039Y181038D01*
X631039Y187662D01*
X632754Y194062D01*
X636066Y199799D01*
X640751Y204484D01*
X646488Y207796D01*
X652888Y209511D01*
X659512Y209511D01*
X665912Y207796D01*
X671649Y204484D01*
X676334Y199799D01*
X679646Y194062D01*
X681361Y187662D01*
X681361Y181038D01*
X679646Y174638D01*
X676334Y168901D01*
X671649Y164216D01*
X665912Y160904D01*
X659512Y159189D01*
X652888Y159189D01*
G37*
%LPD*%
%LPC*%
G36*
X407788Y159189D02*
X407788Y159189D01*
X401388Y160904D01*
X395651Y164216D01*
X390966Y168901D01*
X387654Y174638D01*
X385939Y181038D01*
X385939Y187662D01*
X387654Y194062D01*
X390966Y199799D01*
X395651Y204484D01*
X401388Y207796D01*
X407788Y209511D01*
X414412Y209511D01*
X420812Y207796D01*
X426549Y204484D01*
X431234Y199799D01*
X434546Y194062D01*
X436261Y187662D01*
X436261Y181038D01*
X434546Y174638D01*
X431234Y168901D01*
X426549Y164216D01*
X420812Y160904D01*
X414412Y159189D01*
X407788Y159189D01*
G37*
%LPD*%
%LPC*%
G36*
X935505Y740409D02*
X935505Y740409D01*
X927570Y743696D01*
X921496Y749770D01*
X918209Y757705D01*
X918209Y766295D01*
X921496Y774230D01*
X927570Y780304D01*
X928565Y780716D01*
X929790Y781223D01*
X931015Y781731D01*
X932239Y782238D01*
X933464Y782745D01*
X934688Y783252D01*
X934689Y783252D01*
X935505Y783591D01*
X944095Y783591D01*
X952030Y780304D01*
X958104Y774230D01*
X961391Y766295D01*
X961391Y757705D01*
X958104Y749770D01*
X952030Y743696D01*
X951816Y743608D01*
X950592Y743100D01*
X949367Y742593D01*
X948143Y742086D01*
X948142Y742086D01*
X946918Y741579D01*
X945693Y741071D01*
X944469Y740564D01*
X944095Y740409D01*
X935505Y740409D01*
G37*
%LPD*%
%LPC*%
G36*
X46505Y740409D02*
X46505Y740409D01*
X38570Y743696D01*
X32496Y749770D01*
X29209Y757705D01*
X29209Y766295D01*
X32496Y774230D01*
X38570Y780304D01*
X39565Y780716D01*
X40790Y781223D01*
X42015Y781731D01*
X43239Y782238D01*
X44464Y782745D01*
X45688Y783252D01*
X45689Y783252D01*
X46505Y783591D01*
X55095Y783591D01*
X63030Y780304D01*
X69104Y774230D01*
X72391Y766295D01*
X72391Y757705D01*
X69104Y749770D01*
X63030Y743696D01*
X62816Y743608D01*
X61592Y743100D01*
X60367Y742593D01*
X59143Y742086D01*
X59142Y742086D01*
X57918Y741579D01*
X56693Y741071D01*
X55469Y740564D01*
X55095Y740409D01*
X46505Y740409D01*
G37*
%LPD*%
%LPC*%
G36*
X46505Y16509D02*
X46505Y16509D01*
X38570Y19796D01*
X32496Y25870D01*
X29209Y33805D01*
X29209Y42395D01*
X32496Y50330D01*
X38570Y56404D01*
X39696Y56870D01*
X40921Y57378D01*
X42145Y57885D01*
X42146Y57885D01*
X43370Y58392D01*
X44595Y58899D01*
X45819Y59407D01*
X45820Y59407D01*
X46505Y59691D01*
X55095Y59691D01*
X63030Y56404D01*
X69104Y50330D01*
X72391Y42395D01*
X72391Y33805D01*
X69104Y25870D01*
X63030Y19796D01*
X62947Y19762D01*
X61723Y19255D01*
X60498Y18747D01*
X59274Y18240D01*
X59273Y18240D01*
X58049Y17733D01*
X56824Y17226D01*
X55600Y16718D01*
X55095Y16509D01*
X46505Y16509D01*
G37*
%LPD*%
%LPC*%
G36*
X948205Y16509D02*
X948205Y16509D01*
X940270Y19796D01*
X934196Y25870D01*
X930909Y33805D01*
X930909Y42395D01*
X934196Y50330D01*
X940270Y56404D01*
X941396Y56870D01*
X942621Y57378D01*
X943845Y57885D01*
X943846Y57885D01*
X945070Y58392D01*
X946295Y58899D01*
X947519Y59407D01*
X947520Y59407D01*
X948205Y59691D01*
X956795Y59691D01*
X964730Y56404D01*
X970804Y50330D01*
X974091Y42395D01*
X974091Y33805D01*
X970804Y25870D01*
X964730Y19796D01*
X964647Y19762D01*
X963423Y19255D01*
X962198Y18747D01*
X960974Y18240D01*
X960973Y18240D01*
X959749Y17733D01*
X958524Y17226D01*
X957300Y16718D01*
X956795Y16509D01*
X948205Y16509D01*
G37*
%LPD*%
%LPC*%
G36*
X89870Y38675D02*
X89870Y38675D01*
X84642Y40841D01*
X80641Y44842D01*
X78475Y50070D01*
X78475Y81130D01*
X80641Y86358D01*
X84642Y90359D01*
X85842Y90856D01*
X87067Y91363D01*
X88291Y91871D01*
X89516Y92378D01*
X89870Y92525D01*
X95530Y92525D01*
X100758Y90359D01*
X104759Y86358D01*
X106925Y81130D01*
X106925Y50070D01*
X104759Y44842D01*
X100758Y40841D01*
X100078Y40559D01*
X98853Y40052D01*
X97628Y39545D01*
X96404Y39037D01*
X95530Y38675D01*
X89870Y38675D01*
G37*
%LPD*%
%LPC*%
G36*
X649768Y252425D02*
X649768Y252425D01*
X648875Y253318D01*
X648875Y274582D01*
X649768Y275475D01*
X671032Y275475D01*
X671925Y274582D01*
X671925Y253318D01*
X671032Y252425D01*
X649768Y252425D01*
G37*
%LPD*%
%LPC*%
G36*
X658108Y506425D02*
X658108Y506425D01*
X653872Y508180D01*
X650630Y511422D01*
X648875Y515658D01*
X648875Y520242D01*
X650630Y524478D01*
X653872Y527720D01*
X654802Y528106D01*
X656027Y528613D01*
X657251Y529120D01*
X657252Y529120D01*
X658108Y529475D01*
X662692Y529475D01*
X666928Y527720D01*
X670170Y524478D01*
X671925Y520242D01*
X671925Y515658D01*
X670170Y511422D01*
X666928Y508180D01*
X665858Y507736D01*
X664633Y507229D01*
X663409Y506722D01*
X662692Y506425D01*
X658108Y506425D01*
G37*
%LPD*%
%LPC*%
G36*
X404108Y506425D02*
X404108Y506425D01*
X399872Y508180D01*
X396630Y511422D01*
X394875Y515658D01*
X394875Y520242D01*
X396630Y524478D01*
X399872Y527720D01*
X400802Y528106D01*
X402027Y528613D01*
X403251Y529120D01*
X403252Y529120D01*
X404108Y529475D01*
X408692Y529475D01*
X412928Y527720D01*
X416170Y524478D01*
X417925Y520242D01*
X417925Y515658D01*
X416170Y511422D01*
X412928Y508180D01*
X411858Y507736D01*
X410633Y507229D01*
X409409Y506722D01*
X408692Y506425D01*
X404108Y506425D01*
G37*
%LPD*%
%LPC*%
G36*
X404108Y354025D02*
X404108Y354025D01*
X399872Y355780D01*
X396630Y359022D01*
X394875Y363258D01*
X394875Y367842D01*
X396630Y372078D01*
X399872Y375320D01*
X400121Y375423D01*
X401345Y375931D01*
X402570Y376438D01*
X403795Y376945D01*
X404108Y377075D01*
X408692Y377075D01*
X412928Y375320D01*
X416170Y372078D01*
X417925Y367842D01*
X417925Y363258D01*
X416170Y359022D01*
X412928Y355780D01*
X412401Y355561D01*
X411176Y355054D01*
X409952Y354547D01*
X408727Y354040D01*
X408692Y354025D01*
X404108Y354025D01*
G37*
%LPD*%
%LPC*%
G36*
X404108Y379425D02*
X404108Y379425D01*
X399872Y381180D01*
X396630Y384422D01*
X394875Y388658D01*
X394875Y393242D01*
X396630Y397478D01*
X399872Y400720D01*
X400030Y400786D01*
X401255Y401293D01*
X402479Y401800D01*
X402480Y401800D01*
X403704Y402308D01*
X404108Y402475D01*
X408692Y402475D01*
X412928Y400720D01*
X416170Y397478D01*
X417925Y393242D01*
X417925Y388658D01*
X416170Y384422D01*
X412928Y381180D01*
X412311Y380924D01*
X412310Y380924D01*
X411086Y380417D01*
X409861Y379909D01*
X408692Y379425D01*
X404108Y379425D01*
G37*
%LPD*%
%LPC*%
G36*
X658108Y481025D02*
X658108Y481025D01*
X653872Y482780D01*
X650630Y486022D01*
X648875Y490258D01*
X648875Y494842D01*
X650630Y499078D01*
X653872Y502320D01*
X654893Y502743D01*
X656117Y503250D01*
X657342Y503758D01*
X658108Y504075D01*
X662692Y504075D01*
X666928Y502320D01*
X670170Y499078D01*
X671925Y494842D01*
X671925Y490258D01*
X670170Y486022D01*
X666928Y482780D01*
X665948Y482374D01*
X664724Y481867D01*
X663499Y481359D01*
X662692Y481025D01*
X658108Y481025D01*
G37*
%LPD*%
%LPC*%
G36*
X404108Y404825D02*
X404108Y404825D01*
X399872Y406580D01*
X396630Y409822D01*
X394875Y414058D01*
X394875Y418642D01*
X396630Y422878D01*
X399872Y426120D01*
X399940Y426148D01*
X401164Y426656D01*
X402389Y427163D01*
X403613Y427670D01*
X403614Y427670D01*
X404108Y427875D01*
X408692Y427875D01*
X412928Y426120D01*
X416170Y422878D01*
X417925Y418642D01*
X417925Y414058D01*
X416170Y409822D01*
X412928Y406580D01*
X412220Y406286D01*
X410995Y405779D01*
X409771Y405272D01*
X408692Y404825D01*
X404108Y404825D01*
G37*
%LPD*%
%LPC*%
G36*
X658108Y404825D02*
X658108Y404825D01*
X653872Y406580D01*
X650630Y409822D01*
X648875Y414058D01*
X648875Y418642D01*
X650630Y422878D01*
X653872Y426120D01*
X653940Y426148D01*
X655164Y426656D01*
X656389Y427163D01*
X657613Y427670D01*
X657614Y427670D01*
X658108Y427875D01*
X662692Y427875D01*
X666928Y426120D01*
X670170Y422878D01*
X671925Y418642D01*
X671925Y414058D01*
X670170Y409822D01*
X666928Y406580D01*
X666220Y406286D01*
X664995Y405779D01*
X663771Y405272D01*
X662692Y404825D01*
X658108Y404825D01*
G37*
%LPD*%
%LPC*%
G36*
X658108Y455625D02*
X658108Y455625D01*
X653872Y457380D01*
X650630Y460622D01*
X648875Y464858D01*
X648875Y469442D01*
X650630Y473678D01*
X653872Y476920D01*
X654983Y477381D01*
X656208Y477888D01*
X657432Y478395D01*
X657433Y478395D01*
X658108Y478675D01*
X662692Y478675D01*
X666928Y476920D01*
X670170Y473678D01*
X671925Y469442D01*
X671925Y464858D01*
X670170Y460622D01*
X666928Y457380D01*
X666039Y457011D01*
X664814Y456504D01*
X663590Y455997D01*
X662692Y455625D01*
X658108Y455625D01*
G37*
%LPD*%
%LPC*%
G36*
X658108Y531825D02*
X658108Y531825D01*
X653872Y533580D01*
X650630Y536822D01*
X648875Y541058D01*
X648875Y545642D01*
X650630Y549878D01*
X653872Y553120D01*
X654712Y553468D01*
X655936Y553975D01*
X657161Y554483D01*
X658108Y554875D01*
X662692Y554875D01*
X666928Y553120D01*
X670170Y549878D01*
X671925Y545642D01*
X671925Y541058D01*
X670170Y536822D01*
X666928Y533580D01*
X665767Y533099D01*
X664543Y532592D01*
X663318Y532084D01*
X662692Y531825D01*
X658108Y531825D01*
G37*
%LPD*%
%LPC*%
G36*
X404108Y531825D02*
X404108Y531825D01*
X399872Y533580D01*
X396630Y536822D01*
X394875Y541058D01*
X394875Y545642D01*
X396630Y549878D01*
X399872Y553120D01*
X400712Y553468D01*
X401936Y553975D01*
X403161Y554483D01*
X404108Y554875D01*
X408692Y554875D01*
X412928Y553120D01*
X416170Y549878D01*
X417925Y545642D01*
X417925Y541058D01*
X416170Y536822D01*
X412928Y533580D01*
X411767Y533099D01*
X410543Y532592D01*
X409318Y532084D01*
X408692Y531825D01*
X404108Y531825D01*
G37*
%LPD*%
%LPC*%
G36*
X658108Y582625D02*
X658108Y582625D01*
X653872Y584380D01*
X650630Y587622D01*
X648875Y591858D01*
X648875Y596442D01*
X650630Y600678D01*
X653872Y603920D01*
X654531Y604193D01*
X655755Y604700D01*
X656980Y605208D01*
X658108Y605675D01*
X662692Y605675D01*
X666928Y603920D01*
X670170Y600678D01*
X671925Y596442D01*
X671925Y591858D01*
X670170Y587622D01*
X666928Y584380D01*
X666811Y584331D01*
X665586Y583824D01*
X664362Y583317D01*
X663137Y582809D01*
X662692Y582625D01*
X658108Y582625D01*
G37*
%LPD*%
%LPC*%
G36*
X404108Y582625D02*
X404108Y582625D01*
X399872Y584380D01*
X396630Y587622D01*
X394875Y591858D01*
X394875Y596442D01*
X396630Y600678D01*
X399872Y603920D01*
X400531Y604193D01*
X401755Y604700D01*
X402980Y605208D01*
X404108Y605675D01*
X408692Y605675D01*
X412928Y603920D01*
X416170Y600678D01*
X417925Y596442D01*
X417925Y591858D01*
X416170Y587622D01*
X412928Y584380D01*
X412811Y584331D01*
X411586Y583824D01*
X410362Y583317D01*
X409137Y582809D01*
X408692Y582625D01*
X404108Y582625D01*
G37*
%LPD*%
%LPC*%
G36*
X658108Y430225D02*
X658108Y430225D01*
X653872Y431980D01*
X650630Y435222D01*
X648875Y439458D01*
X648875Y444042D01*
X650630Y448278D01*
X653872Y451520D01*
X655074Y452018D01*
X656298Y452525D01*
X656299Y452525D01*
X657523Y453033D01*
X658108Y453275D01*
X662692Y453275D01*
X666928Y451520D01*
X670170Y448278D01*
X671925Y444042D01*
X671925Y439458D01*
X670170Y435222D01*
X666928Y431980D01*
X666130Y431649D01*
X666129Y431649D01*
X664905Y431142D01*
X663680Y430634D01*
X662692Y430225D01*
X658108Y430225D01*
G37*
%LPD*%
%LPC*%
G36*
X404108Y430225D02*
X404108Y430225D01*
X399872Y431980D01*
X396630Y435222D01*
X394875Y439458D01*
X394875Y444042D01*
X396630Y448278D01*
X399872Y451520D01*
X401074Y452018D01*
X402298Y452525D01*
X402299Y452525D01*
X403523Y453033D01*
X404108Y453275D01*
X408692Y453275D01*
X412928Y451520D01*
X416170Y448278D01*
X417925Y444042D01*
X417925Y439458D01*
X416170Y435222D01*
X412928Y431980D01*
X412130Y431649D01*
X412129Y431649D01*
X410905Y431142D01*
X409680Y430634D01*
X408692Y430225D01*
X404108Y430225D01*
G37*
%LPD*%
%LPC*%
G36*
X658108Y557225D02*
X658108Y557225D01*
X653872Y558980D01*
X650630Y562222D01*
X648875Y566458D01*
X648875Y571042D01*
X650630Y575278D01*
X653872Y578520D01*
X654621Y578831D01*
X655846Y579338D01*
X657070Y579845D01*
X658108Y580275D01*
X662692Y580275D01*
X666928Y578520D01*
X670170Y575278D01*
X671925Y571042D01*
X671925Y566458D01*
X670170Y562222D01*
X666928Y558980D01*
X666901Y558969D01*
X665677Y558461D01*
X664452Y557954D01*
X663228Y557447D01*
X663227Y557447D01*
X662692Y557225D01*
X658108Y557225D01*
G37*
%LPD*%
%LPC*%
G36*
X404108Y557225D02*
X404108Y557225D01*
X399872Y558980D01*
X396630Y562222D01*
X394875Y566458D01*
X394875Y571042D01*
X396630Y575278D01*
X399872Y578520D01*
X400621Y578831D01*
X401846Y579338D01*
X403070Y579845D01*
X404108Y580275D01*
X408692Y580275D01*
X412928Y578520D01*
X416170Y575278D01*
X417925Y571042D01*
X417925Y566458D01*
X416170Y562222D01*
X412928Y558980D01*
X412901Y558969D01*
X411677Y558461D01*
X410452Y557954D01*
X409228Y557447D01*
X409227Y557447D01*
X408692Y557225D01*
X404108Y557225D01*
G37*
%LPD*%
%LPC*%
G36*
X658108Y303225D02*
X658108Y303225D01*
X653872Y304980D01*
X650630Y308222D01*
X648875Y312458D01*
X648875Y317042D01*
X650630Y321278D01*
X653872Y324520D01*
X654302Y324698D01*
X655526Y325206D01*
X655527Y325206D01*
X656751Y325713D01*
X657976Y326220D01*
X658108Y326275D01*
X662692Y326275D01*
X666928Y324520D01*
X670170Y321278D01*
X671925Y317042D01*
X671925Y312458D01*
X670170Y308222D01*
X666928Y304980D01*
X666582Y304836D01*
X665358Y304329D01*
X665357Y304329D01*
X664133Y303822D01*
X662908Y303315D01*
X662692Y303225D01*
X658108Y303225D01*
G37*
%LPD*%
%LPC*%
G36*
X404108Y303225D02*
X404108Y303225D01*
X399872Y304980D01*
X396630Y308222D01*
X394875Y312458D01*
X394875Y317042D01*
X396630Y321278D01*
X399872Y324520D01*
X400302Y324698D01*
X401526Y325206D01*
X401527Y325206D01*
X402751Y325713D01*
X403976Y326220D01*
X404108Y326275D01*
X408692Y326275D01*
X412928Y324520D01*
X416170Y321278D01*
X417925Y317042D01*
X417925Y312458D01*
X416170Y308222D01*
X412928Y304980D01*
X412582Y304836D01*
X411358Y304329D01*
X411357Y304329D01*
X410133Y303822D01*
X408908Y303315D01*
X408692Y303225D01*
X404108Y303225D01*
G37*
%LPD*%
%LPC*%
G36*
X658108Y328625D02*
X658108Y328625D01*
X653872Y330380D01*
X650630Y333622D01*
X648875Y337858D01*
X648875Y342442D01*
X650630Y346678D01*
X653872Y349920D01*
X654211Y350061D01*
X655436Y350568D01*
X656660Y351075D01*
X656661Y351075D01*
X657885Y351583D01*
X658108Y351675D01*
X662692Y351675D01*
X666928Y349920D01*
X670170Y346678D01*
X671925Y342442D01*
X671925Y337858D01*
X670170Y333622D01*
X666928Y330380D01*
X666492Y330199D01*
X666491Y330199D01*
X665267Y329692D01*
X664042Y329184D01*
X662818Y328677D01*
X662692Y328625D01*
X658108Y328625D01*
G37*
%LPD*%
%LPC*%
G36*
X404108Y328625D02*
X404108Y328625D01*
X399872Y330380D01*
X396630Y333622D01*
X394875Y337858D01*
X394875Y342442D01*
X396630Y346678D01*
X399872Y349920D01*
X400211Y350061D01*
X401436Y350568D01*
X402660Y351075D01*
X402661Y351075D01*
X403885Y351583D01*
X404108Y351675D01*
X408692Y351675D01*
X412928Y349920D01*
X416170Y346678D01*
X417925Y342442D01*
X417925Y337858D01*
X416170Y333622D01*
X412928Y330380D01*
X412492Y330199D01*
X412491Y330199D01*
X411267Y329692D01*
X410042Y329184D01*
X408818Y328677D01*
X408692Y328625D01*
X404108Y328625D01*
G37*
%LPD*%
%LPC*%
G36*
X112228Y548385D02*
X112228Y548385D01*
X108401Y549971D01*
X105471Y552901D01*
X103885Y556728D01*
X103885Y560872D01*
X105471Y564699D01*
X108401Y567629D01*
X108502Y567671D01*
X109726Y568178D01*
X110951Y568686D01*
X112175Y569193D01*
X112176Y569193D01*
X112228Y569215D01*
X116372Y569215D01*
X120199Y567629D01*
X123129Y564699D01*
X124715Y560872D01*
X124715Y556728D01*
X123129Y552901D01*
X120199Y549971D01*
X119879Y549838D01*
X118655Y549331D01*
X117430Y548824D01*
X116372Y548385D01*
X112228Y548385D01*
G37*
%LPD*%
%LPC*%
G36*
X112228Y522985D02*
X112228Y522985D01*
X108401Y524571D01*
X105471Y527501D01*
X103885Y531328D01*
X103885Y535472D01*
X105471Y539299D01*
X108401Y542229D01*
X108592Y542309D01*
X109817Y542816D01*
X111041Y543323D01*
X111042Y543323D01*
X112228Y543815D01*
X116372Y543815D01*
X120199Y542229D01*
X123129Y539299D01*
X124715Y535472D01*
X124715Y531328D01*
X123129Y527501D01*
X120199Y524571D01*
X119970Y524476D01*
X118745Y523968D01*
X117521Y523461D01*
X117520Y523461D01*
X116372Y522985D01*
X112228Y522985D01*
G37*
%LPD*%
%LPC*%
G36*
X112228Y446785D02*
X112228Y446785D01*
X108401Y448371D01*
X105471Y451301D01*
X103885Y455128D01*
X103885Y459272D01*
X105471Y463099D01*
X108401Y466029D01*
X108864Y466221D01*
X110088Y466728D01*
X110089Y466728D01*
X111313Y467236D01*
X112228Y467615D01*
X116372Y467615D01*
X120199Y466029D01*
X123129Y463099D01*
X124715Y459272D01*
X124715Y455128D01*
X123129Y451301D01*
X120199Y448371D01*
X119017Y447881D01*
X117792Y447374D01*
X116568Y446866D01*
X116567Y446866D01*
X116372Y446785D01*
X112228Y446785D01*
G37*
%LPD*%
%LPC*%
G36*
X112228Y472185D02*
X112228Y472185D01*
X108401Y473771D01*
X105471Y476701D01*
X103885Y480528D01*
X103885Y484672D01*
X105471Y488499D01*
X108401Y491429D01*
X108773Y491584D01*
X109998Y492091D01*
X111222Y492598D01*
X111223Y492598D01*
X112228Y493015D01*
X116372Y493015D01*
X120199Y491429D01*
X123129Y488499D01*
X124715Y484672D01*
X124715Y480528D01*
X123129Y476701D01*
X120199Y473771D01*
X120151Y473751D01*
X118926Y473243D01*
X117702Y472736D01*
X116477Y472229D01*
X116372Y472185D01*
X112228Y472185D01*
G37*
%LPD*%
%LPC*%
G36*
X886928Y383285D02*
X886928Y383285D01*
X883101Y384871D01*
X880171Y387801D01*
X878585Y391628D01*
X878585Y395772D01*
X880171Y399599D01*
X883101Y402529D01*
X883790Y402815D01*
X885015Y403322D01*
X886239Y403829D01*
X886240Y403829D01*
X886928Y404115D01*
X891072Y404115D01*
X894899Y402529D01*
X897829Y399599D01*
X899415Y395772D01*
X899415Y391628D01*
X897829Y387801D01*
X894899Y384871D01*
X893943Y384475D01*
X892719Y383967D01*
X892718Y383967D01*
X891494Y383460D01*
X891072Y383285D01*
X886928Y383285D01*
G37*
%LPD*%
%LPC*%
G36*
X886928Y167385D02*
X886928Y167385D01*
X883101Y168971D01*
X880171Y171901D01*
X878585Y175728D01*
X878585Y179872D01*
X880171Y183699D01*
X883101Y186629D01*
X883335Y186726D01*
X884560Y187234D01*
X885784Y187741D01*
X886928Y188215D01*
X891072Y188215D01*
X894899Y186629D01*
X897829Y183699D01*
X899415Y179872D01*
X899415Y175728D01*
X897829Y171901D01*
X894899Y168971D01*
X894713Y168893D01*
X893488Y168386D01*
X892263Y167879D01*
X891072Y167385D01*
X886928Y167385D01*
G37*
%LPD*%
%LPC*%
G36*
X886928Y141985D02*
X886928Y141985D01*
X883101Y143571D01*
X880171Y146501D01*
X878585Y150328D01*
X878585Y154472D01*
X880171Y158299D01*
X883101Y161229D01*
X883426Y161364D01*
X884650Y161871D01*
X885875Y162378D01*
X886928Y162815D01*
X891072Y162815D01*
X894899Y161229D01*
X897829Y158299D01*
X899415Y154472D01*
X899415Y150328D01*
X897829Y146501D01*
X894899Y143571D01*
X894803Y143531D01*
X893579Y143024D01*
X893578Y143024D01*
X892354Y142516D01*
X891129Y142009D01*
X891072Y141985D01*
X886928Y141985D01*
G37*
%LPD*%
%LPC*%
G36*
X886928Y459485D02*
X886928Y459485D01*
X883101Y461071D01*
X880171Y464001D01*
X878585Y467828D01*
X878585Y471972D01*
X880171Y475799D01*
X883101Y478729D01*
X883519Y478902D01*
X884743Y479410D01*
X885968Y479917D01*
X886928Y480315D01*
X891072Y480315D01*
X894899Y478729D01*
X897829Y475799D01*
X899415Y471972D01*
X899415Y467828D01*
X897829Y464001D01*
X894899Y461071D01*
X894896Y461069D01*
X893672Y460562D01*
X893671Y460562D01*
X892447Y460055D01*
X891222Y459548D01*
X891072Y459485D01*
X886928Y459485D01*
G37*
%LPD*%
%LPC*%
G36*
X886928Y408685D02*
X886928Y408685D01*
X883101Y410271D01*
X880171Y413201D01*
X878585Y417028D01*
X878585Y421172D01*
X880171Y424999D01*
X883101Y427929D01*
X883700Y428177D01*
X884924Y428685D01*
X886149Y429192D01*
X886928Y429515D01*
X891072Y429515D01*
X894899Y427929D01*
X897829Y424999D01*
X899415Y421172D01*
X899415Y417028D01*
X897829Y413201D01*
X894899Y410271D01*
X893853Y409837D01*
X893852Y409837D01*
X892628Y409330D01*
X891403Y408823D01*
X891072Y408685D01*
X886928Y408685D01*
G37*
%LPD*%
%LPC*%
G36*
X112228Y688085D02*
X112228Y688085D01*
X108401Y689671D01*
X105471Y692601D01*
X103885Y696428D01*
X103885Y700572D01*
X105471Y704399D01*
X108401Y707329D01*
X109228Y707672D01*
X109229Y707672D01*
X110453Y708179D01*
X111678Y708687D01*
X112228Y708915D01*
X116372Y708915D01*
X120199Y707329D01*
X123129Y704399D01*
X124715Y700572D01*
X124715Y696428D01*
X123129Y692601D01*
X120199Y689671D01*
X119381Y689332D01*
X118157Y688825D01*
X116932Y688317D01*
X116372Y688085D01*
X112228Y688085D01*
G37*
%LPD*%
%LPC*%
G36*
X140715Y97615D02*
X140715Y97615D01*
X140715Y111841D01*
X153600Y111841D01*
X155969Y111465D01*
X158250Y110724D01*
X160388Y109635D01*
X162329Y108225D01*
X164025Y106529D01*
X165435Y104588D01*
X166524Y102450D01*
X167265Y100169D01*
X167641Y97800D01*
X167641Y97615D01*
X140715Y97615D01*
G37*
%LPD*%
%LPC*%
G36*
X111759Y97615D02*
X111759Y97615D01*
X111759Y97800D01*
X112135Y100169D01*
X112876Y102450D01*
X113965Y104588D01*
X115375Y106529D01*
X117071Y108225D01*
X119012Y109635D01*
X121150Y110724D01*
X123431Y111465D01*
X125800Y111841D01*
X138685Y111841D01*
X138685Y97615D01*
X111759Y97615D01*
G37*
%LPD*%
%LPC*%
G36*
X140715Y81359D02*
X140715Y81359D01*
X140715Y95585D01*
X167641Y95585D01*
X167641Y95400D01*
X167265Y93031D01*
X166524Y90750D01*
X165435Y88612D01*
X164025Y86671D01*
X162329Y84975D01*
X160388Y83565D01*
X158250Y82476D01*
X155969Y81735D01*
X153600Y81359D01*
X140715Y81359D01*
G37*
%LPD*%
%LPC*%
G36*
X125800Y81359D02*
X125800Y81359D01*
X123431Y81735D01*
X121150Y82476D01*
X119012Y83565D01*
X117071Y84975D01*
X115375Y86671D01*
X113965Y88612D01*
X112876Y90750D01*
X112135Y93031D01*
X111759Y95400D01*
X111759Y95585D01*
X138685Y95585D01*
X138685Y81359D01*
X125800Y81359D01*
G37*
%LPD*%
%LPC*%
G36*
X407415Y290365D02*
X407415Y290365D01*
X407415Y301886D01*
X409337Y301582D01*
X411214Y300972D01*
X412973Y300076D01*
X414570Y298916D01*
X415966Y297520D01*
X417126Y295923D01*
X418022Y294164D01*
X418632Y292287D01*
X418936Y290365D01*
X407415Y290365D01*
G37*
%LPD*%
%LPC*%
G36*
X661415Y290365D02*
X661415Y290365D01*
X661415Y301886D01*
X663337Y301582D01*
X665214Y300972D01*
X666973Y300076D01*
X668570Y298916D01*
X669966Y297520D01*
X671126Y295923D01*
X672022Y294164D01*
X672632Y292287D01*
X672936Y290365D01*
X661415Y290365D01*
G37*
%LPD*%
%LPC*%
G36*
X407415Y288335D02*
X407415Y288335D01*
X418936Y288335D01*
X418632Y286413D01*
X418022Y284536D01*
X417126Y282777D01*
X415966Y281180D01*
X414570Y279784D01*
X412973Y278624D01*
X411214Y277728D01*
X409337Y277118D01*
X407415Y276814D01*
X407415Y288335D01*
G37*
%LPD*%
%LPC*%
G36*
X661415Y288335D02*
X661415Y288335D01*
X672936Y288335D01*
X672632Y286413D01*
X672022Y284536D01*
X671126Y282777D01*
X669966Y281180D01*
X668570Y279784D01*
X666973Y278624D01*
X665214Y277728D01*
X663337Y277118D01*
X661415Y276814D01*
X661415Y288335D01*
G37*
%LPD*%
%LPC*%
G36*
X393864Y290365D02*
X393864Y290365D01*
X394168Y292287D01*
X394778Y294164D01*
X395674Y295923D01*
X396834Y297520D01*
X398230Y298916D01*
X399827Y300076D01*
X401586Y300972D01*
X403463Y301582D01*
X405385Y301886D01*
X405385Y290365D01*
X393864Y290365D01*
G37*
%LPD*%
%LPC*%
G36*
X647864Y290365D02*
X647864Y290365D01*
X648168Y292287D01*
X648778Y294164D01*
X649674Y295923D01*
X650834Y297520D01*
X652230Y298916D01*
X653827Y300076D01*
X655586Y300972D01*
X657463Y301582D01*
X659385Y301886D01*
X659385Y290365D01*
X647864Y290365D01*
G37*
%LPD*%
%LPC*%
G36*
X403463Y277118D02*
X403463Y277118D01*
X401586Y277728D01*
X399827Y278624D01*
X398230Y279784D01*
X396834Y281180D01*
X395674Y282777D01*
X394778Y284536D01*
X394168Y286413D01*
X393864Y288335D01*
X405385Y288335D01*
X405385Y276814D01*
X403463Y277118D01*
G37*
%LPD*%
%LPC*%
G36*
X657463Y277118D02*
X657463Y277118D01*
X655586Y277728D01*
X653827Y278624D01*
X652230Y279784D01*
X650834Y281180D01*
X649674Y282777D01*
X648778Y284536D01*
X648168Y286413D01*
X647864Y288335D01*
X659385Y288335D01*
X659385Y276814D01*
X657463Y277118D01*
G37*
%LPD*%
%LPC*%
G36*
X890015Y585215D02*
X890015Y585215D01*
X890015Y595612D01*
X891677Y595349D01*
X893388Y594793D01*
X894991Y593976D01*
X896447Y592919D01*
X897719Y591647D01*
X898776Y590191D01*
X899593Y588588D01*
X900149Y586877D01*
X900412Y585215D01*
X890015Y585215D01*
G37*
%LPD*%
%LPC*%
G36*
X890015Y229615D02*
X890015Y229615D01*
X890015Y240012D01*
X891677Y239749D01*
X893388Y239193D01*
X894991Y238376D01*
X896447Y237319D01*
X897719Y236047D01*
X898776Y234591D01*
X899593Y232988D01*
X900149Y231277D01*
X900412Y229615D01*
X890015Y229615D01*
G37*
%LPD*%
%LPC*%
G36*
X115315Y432815D02*
X115315Y432815D01*
X115315Y443212D01*
X116977Y442949D01*
X118688Y442393D01*
X120291Y441576D01*
X121747Y440519D01*
X123019Y439247D01*
X124076Y437791D01*
X124893Y436188D01*
X125449Y434477D01*
X125712Y432815D01*
X115315Y432815D01*
G37*
%LPD*%
%LPC*%
G36*
X890015Y445515D02*
X890015Y445515D01*
X890015Y455912D01*
X891677Y455649D01*
X893388Y455093D01*
X894991Y454276D01*
X896447Y453219D01*
X897719Y451947D01*
X898776Y450491D01*
X899593Y448888D01*
X900149Y447177D01*
X900412Y445515D01*
X890015Y445515D01*
G37*
%LPD*%
%LPC*%
G36*
X890015Y443485D02*
X890015Y443485D01*
X900412Y443485D01*
X900149Y441823D01*
X899593Y440112D01*
X898776Y438509D01*
X897719Y437053D01*
X896447Y435781D01*
X894991Y434724D01*
X893388Y433907D01*
X891677Y433351D01*
X890015Y433088D01*
X890015Y443485D01*
G37*
%LPD*%
%LPC*%
G36*
X115315Y430785D02*
X115315Y430785D01*
X125712Y430785D01*
X125449Y429123D01*
X124893Y427412D01*
X124076Y425809D01*
X123019Y424353D01*
X121747Y423081D01*
X120291Y422024D01*
X118688Y421207D01*
X116977Y420651D01*
X115315Y420388D01*
X115315Y430785D01*
G37*
%LPD*%
%LPC*%
G36*
X877588Y229615D02*
X877588Y229615D01*
X877851Y231277D01*
X878407Y232988D01*
X879224Y234591D01*
X880281Y236047D01*
X881553Y237319D01*
X883009Y238376D01*
X884612Y239193D01*
X886323Y239749D01*
X887985Y240012D01*
X887985Y229615D01*
X877588Y229615D01*
G37*
%LPD*%
%LPC*%
G36*
X890015Y227585D02*
X890015Y227585D01*
X900412Y227585D01*
X900149Y225923D01*
X899593Y224212D01*
X898776Y222609D01*
X897719Y221153D01*
X896447Y219881D01*
X894991Y218824D01*
X893388Y218007D01*
X891677Y217451D01*
X890015Y217188D01*
X890015Y227585D01*
G37*
%LPD*%
%LPC*%
G36*
X102888Y432815D02*
X102888Y432815D01*
X103151Y434477D01*
X103707Y436188D01*
X104524Y437791D01*
X105581Y439247D01*
X106853Y440519D01*
X108309Y441576D01*
X109912Y442393D01*
X111623Y442949D01*
X113285Y443212D01*
X113285Y432815D01*
X102888Y432815D01*
G37*
%LPD*%
%LPC*%
G36*
X877588Y445515D02*
X877588Y445515D01*
X877851Y447177D01*
X878407Y448888D01*
X879224Y450491D01*
X880281Y451947D01*
X881553Y453219D01*
X883009Y454276D01*
X884612Y455093D01*
X886323Y455649D01*
X887985Y455912D01*
X887985Y445515D01*
X877588Y445515D01*
G37*
%LPD*%
%LPC*%
G36*
X890015Y583185D02*
X890015Y583185D01*
X900412Y583185D01*
X900149Y581523D01*
X899593Y579812D01*
X898776Y578209D01*
X897719Y576753D01*
X896447Y575481D01*
X894991Y574424D01*
X893388Y573607D01*
X891677Y573051D01*
X890015Y572788D01*
X890015Y583185D01*
G37*
%LPD*%
%LPC*%
G36*
X877588Y585215D02*
X877588Y585215D01*
X877851Y586877D01*
X878407Y588588D01*
X879224Y590191D01*
X880281Y591647D01*
X881553Y592919D01*
X883009Y593976D01*
X884612Y594793D01*
X886323Y595349D01*
X887985Y595612D01*
X887985Y585215D01*
X877588Y585215D01*
G37*
%LPD*%
%LPC*%
G36*
X886323Y433351D02*
X886323Y433351D01*
X884612Y433907D01*
X883009Y434724D01*
X881553Y435781D01*
X880281Y437053D01*
X879224Y438509D01*
X878407Y440112D01*
X877851Y441823D01*
X877588Y443485D01*
X887985Y443485D01*
X887985Y433088D01*
X886323Y433351D01*
G37*
%LPD*%
%LPC*%
G36*
X111623Y420651D02*
X111623Y420651D01*
X109912Y421207D01*
X108309Y422024D01*
X106853Y423081D01*
X105581Y424353D01*
X104524Y425809D01*
X103707Y427412D01*
X103151Y429123D01*
X102888Y430785D01*
X113285Y430785D01*
X113285Y420388D01*
X111623Y420651D01*
G37*
%LPD*%
%LPC*%
G36*
X886323Y573051D02*
X886323Y573051D01*
X884612Y573607D01*
X883009Y574424D01*
X881553Y575481D01*
X880281Y576753D01*
X879224Y578209D01*
X878407Y579812D01*
X877851Y581523D01*
X877588Y583185D01*
X887985Y583185D01*
X887985Y572788D01*
X886323Y573051D01*
G37*
%LPD*%
%LPC*%
G36*
X886323Y217451D02*
X886323Y217451D01*
X884612Y218007D01*
X883009Y218824D01*
X881553Y219881D01*
X880281Y221153D01*
X879224Y222609D01*
X878407Y224212D01*
X877851Y225923D01*
X877588Y227585D01*
X887985Y227585D01*
X887985Y217188D01*
X886323Y217451D01*
G37*
%LPD*%
%LPC*%
G36*
X406399Y289349D02*
X406399Y289349D01*
X406399Y289351D01*
X406401Y289351D01*
X406401Y289349D01*
X406399Y289349D01*
G37*
%LPD*%
%LPC*%
G36*
X660399Y289349D02*
X660399Y289349D01*
X660399Y289351D01*
X660401Y289351D01*
X660401Y289349D01*
X660399Y289349D01*
G37*
%LPD*%
%LPC*%
G36*
X888999Y444499D02*
X888999Y444499D01*
X888999Y444501D01*
X889001Y444501D01*
X889001Y444499D01*
X888999Y444499D01*
G37*
%LPD*%
%LPC*%
G36*
X888999Y228599D02*
X888999Y228599D01*
X888999Y228601D01*
X889001Y228601D01*
X889001Y228599D01*
X888999Y228599D01*
G37*
%LPD*%
%LPC*%
G36*
X114299Y431799D02*
X114299Y431799D01*
X114299Y431801D01*
X114301Y431801D01*
X114301Y431799D01*
X114299Y431799D01*
G37*
%LPD*%
%LPC*%
G36*
X139699Y96599D02*
X139699Y96599D01*
X139699Y96601D01*
X139701Y96601D01*
X139701Y96599D01*
X139699Y96599D01*
G37*
%LPD*%
%LPC*%
G36*
X888999Y584199D02*
X888999Y584199D01*
X888999Y584201D01*
X889001Y584201D01*
X889001Y584199D01*
X888999Y584199D01*
G37*
%LPD*%
D10*
X152400Y37600D02*
X127000Y37600D01*
X127000Y96600D02*
X152400Y96600D01*
X92700Y78300D02*
X92700Y52900D01*
D11*
X114300Y482600D03*
X114300Y457200D03*
X114300Y431800D03*
X114300Y508000D03*
X114300Y533400D03*
X114300Y558800D03*
X889000Y177800D03*
X889000Y203200D03*
X889000Y228600D03*
X889000Y152400D03*
X889000Y419100D03*
X889000Y444500D03*
X889000Y469900D03*
X889000Y393700D03*
X889000Y584200D03*
X889000Y609600D03*
X889000Y635000D03*
X114300Y698500D03*
X114300Y673100D03*
D12*
X660400Y263950D03*
D13*
X660400Y289350D03*
X660400Y314750D03*
X660400Y340150D03*
X660400Y365550D03*
X660400Y390950D03*
X660400Y416350D03*
X660400Y441750D03*
X660400Y467150D03*
X660400Y492550D03*
X660400Y517950D03*
X660400Y543350D03*
X660400Y568750D03*
X660400Y594150D03*
X660400Y619550D03*
X406400Y263950D03*
X406400Y289350D03*
X406400Y314750D03*
X406400Y340150D03*
X406400Y365550D03*
X406400Y390950D03*
X406400Y416350D03*
X406400Y441750D03*
X406400Y467150D03*
X406400Y492550D03*
X406400Y517950D03*
X406400Y543350D03*
X406400Y568750D03*
X406400Y594150D03*
X406400Y619550D03*
D14*
X679916Y207432D02*
X887348Y207432D01*
X679916Y207432D02*
X628058Y259290D01*
X409102Y259290D01*
X887348Y207432D02*
X889000Y203200D01*
X409102Y259290D02*
X406400Y263950D01*
X403340Y259290D01*
X140200Y38100D02*
X139700Y37600D01*
X279400Y76200D02*
X279400Y241300D01*
X304800Y266700D01*
X403650Y266700D01*
X406400Y263950D01*
X241300Y38100D02*
X140200Y38100D01*
X241300Y38100D02*
X279400Y76200D01*
X115240Y121002D02*
X115240Y288100D01*
X115240Y426388D01*
X115240Y121002D02*
X138288Y97954D01*
X115240Y426388D02*
X114300Y431800D01*
X138288Y97954D02*
X139700Y96600D01*
X409102Y293862D02*
X656868Y293862D01*
X409102Y293862D02*
X406400Y289350D01*
X656868Y293862D02*
X660400Y289350D01*
X887348Y230480D02*
X889000Y228600D01*
X887348Y443674D02*
X889000Y444500D01*
X887348Y581962D02*
X889000Y584200D01*
X662630Y293862D02*
X660400Y289350D01*
X403340Y288100D02*
X115240Y288100D01*
X403340Y288100D02*
X406400Y289350D01*
X660400Y289350D02*
X688550Y289350D01*
X698500Y279400D01*
X698500Y241300D01*
X711200Y228600D01*
X889000Y228600D01*
X688550Y289350D02*
X688550Y358350D01*
X698500Y368300D01*
X812800Y368300D01*
X812800Y431800D01*
X824674Y443674D01*
X812800Y457200D02*
X812800Y571500D01*
X825500Y584200D02*
X889000Y584200D01*
X825500Y584200D02*
X812800Y571500D01*
X812800Y457200D02*
X826326Y443674D01*
X887348Y443674D01*
X736600Y714488D02*
X266700Y714488D01*
X241300Y673100D02*
X114300Y673100D01*
X241300Y673100D02*
X254000Y685800D01*
X254000Y701788D02*
X266700Y714488D01*
X254000Y701788D02*
X254000Y685800D01*
X736600Y714488D02*
X749300Y701788D01*
X749300Y660400D02*
X774700Y635000D01*
X889000Y635000D01*
X749300Y660400D02*
X749300Y701788D01*
X711200Y609600D02*
X889000Y609600D01*
X711200Y609600D02*
X698500Y596900D01*
X698500Y403650D02*
X660400Y365550D01*
X698500Y403650D02*
X698500Y596900D01*
X152400Y508000D02*
X114300Y508000D01*
X371050Y457200D02*
X406400Y492550D01*
X203200Y457200D02*
X152400Y508000D01*
X203200Y457200D02*
X371050Y457200D01*
M02*
