G04 EAGLE Gerber RS-274X export*
G75*
%MOMM*%
%FSLAX34Y34*%
%LPD*%
%INSilkscreen Top*%
%IPPOS*%
%AMOC8*
5,1,8,0,0,1.08239X$1,22.5*%
G01*
%ADD10C,0.127000*%
%ADD11C,0.076200*%
%ADD12C,0.254000*%
%ADD13C,0.200000*%
%ADD14C,0.101600*%


D10*
X94700Y173600D02*
X184700Y173600D01*
X184700Y29600D01*
X94700Y29600D02*
X94700Y41100D01*
X166200Y29600D02*
X184700Y29600D01*
X94700Y92100D02*
X94700Y173600D01*
X94700Y29600D02*
X114200Y29600D01*
D11*
X190081Y34436D02*
X195810Y34436D01*
X195888Y34434D01*
X195966Y34429D01*
X196043Y34419D01*
X196120Y34406D01*
X196196Y34390D01*
X196271Y34370D01*
X196345Y34346D01*
X196418Y34319D01*
X196490Y34288D01*
X196560Y34254D01*
X196629Y34217D01*
X196695Y34176D01*
X196760Y34132D01*
X196822Y34086D01*
X196882Y34036D01*
X196940Y33984D01*
X196995Y33929D01*
X197047Y33871D01*
X197097Y33811D01*
X197143Y33749D01*
X197187Y33684D01*
X197228Y33618D01*
X197265Y33549D01*
X197299Y33479D01*
X197330Y33407D01*
X197357Y33334D01*
X197381Y33260D01*
X197401Y33185D01*
X197417Y33109D01*
X197430Y33032D01*
X197440Y32955D01*
X197445Y32877D01*
X197447Y32799D01*
X197447Y31981D01*
X191718Y37871D02*
X190081Y39917D01*
X197447Y39917D01*
X197447Y37871D02*
X197447Y41963D01*
D12*
X137875Y582300D02*
X80375Y582300D01*
X80375Y408300D01*
X137875Y408300D01*
X137875Y582300D01*
X137300Y432300D02*
X132300Y432300D01*
X132300Y559300D02*
X137300Y559300D01*
D11*
X126392Y402919D02*
X126392Y397190D01*
X126390Y397112D01*
X126385Y397034D01*
X126375Y396957D01*
X126362Y396880D01*
X126346Y396804D01*
X126326Y396729D01*
X126302Y396655D01*
X126275Y396582D01*
X126244Y396510D01*
X126210Y396440D01*
X126173Y396372D01*
X126132Y396305D01*
X126088Y396240D01*
X126042Y396178D01*
X125992Y396118D01*
X125940Y396060D01*
X125885Y396005D01*
X125827Y395953D01*
X125767Y395903D01*
X125705Y395857D01*
X125640Y395813D01*
X125574Y395772D01*
X125505Y395735D01*
X125435Y395701D01*
X125363Y395670D01*
X125290Y395643D01*
X125216Y395619D01*
X125141Y395599D01*
X125065Y395583D01*
X124988Y395570D01*
X124911Y395560D01*
X124833Y395555D01*
X124755Y395553D01*
X123937Y395553D01*
X132078Y402920D02*
X132163Y402918D01*
X132248Y402912D01*
X132332Y402902D01*
X132416Y402889D01*
X132500Y402871D01*
X132582Y402850D01*
X132663Y402825D01*
X132743Y402796D01*
X132822Y402763D01*
X132899Y402727D01*
X132974Y402687D01*
X133048Y402644D01*
X133119Y402598D01*
X133188Y402548D01*
X133255Y402495D01*
X133319Y402439D01*
X133380Y402380D01*
X133439Y402319D01*
X133495Y402255D01*
X133548Y402188D01*
X133598Y402119D01*
X133644Y402048D01*
X133687Y401974D01*
X133727Y401899D01*
X133763Y401822D01*
X133796Y401743D01*
X133825Y401663D01*
X133850Y401582D01*
X133871Y401500D01*
X133889Y401416D01*
X133902Y401332D01*
X133912Y401248D01*
X133918Y401163D01*
X133920Y401078D01*
X132078Y402919D02*
X131982Y402917D01*
X131886Y402911D01*
X131791Y402901D01*
X131696Y402888D01*
X131601Y402870D01*
X131508Y402849D01*
X131415Y402824D01*
X131324Y402795D01*
X131233Y402763D01*
X131144Y402727D01*
X131057Y402687D01*
X130971Y402644D01*
X130887Y402598D01*
X130805Y402548D01*
X130725Y402494D01*
X130648Y402438D01*
X130573Y402378D01*
X130500Y402316D01*
X130430Y402250D01*
X130362Y402182D01*
X130297Y402111D01*
X130236Y402038D01*
X130177Y401962D01*
X130121Y401883D01*
X130069Y401803D01*
X130020Y401720D01*
X129974Y401636D01*
X129932Y401550D01*
X129894Y401462D01*
X129859Y401373D01*
X129827Y401282D01*
X133305Y399646D02*
X133365Y399705D01*
X133422Y399767D01*
X133477Y399831D01*
X133528Y399898D01*
X133577Y399967D01*
X133623Y400037D01*
X133666Y400110D01*
X133706Y400184D01*
X133742Y400260D01*
X133775Y400338D01*
X133805Y400417D01*
X133832Y400497D01*
X133855Y400578D01*
X133874Y400660D01*
X133890Y400742D01*
X133903Y400826D01*
X133912Y400910D01*
X133917Y400994D01*
X133919Y401078D01*
X133305Y399645D02*
X129827Y395553D01*
X133919Y395553D01*
X68623Y587681D02*
X68623Y595047D01*
X71079Y590955D01*
X73534Y595047D01*
X73534Y587681D01*
X77001Y589318D02*
X77001Y590955D01*
X77003Y591034D01*
X77009Y591113D01*
X77018Y591192D01*
X77031Y591270D01*
X77049Y591347D01*
X77069Y591423D01*
X77094Y591498D01*
X77122Y591572D01*
X77153Y591645D01*
X77189Y591716D01*
X77227Y591785D01*
X77269Y591852D01*
X77314Y591917D01*
X77362Y591980D01*
X77413Y592041D01*
X77467Y592098D01*
X77523Y592154D01*
X77582Y592206D01*
X77644Y592256D01*
X77708Y592302D01*
X77774Y592346D01*
X77842Y592386D01*
X77912Y592422D01*
X77984Y592456D01*
X78058Y592486D01*
X78132Y592512D01*
X78208Y592535D01*
X78285Y592553D01*
X78362Y592569D01*
X78441Y592580D01*
X78519Y592588D01*
X78598Y592592D01*
X78678Y592592D01*
X78757Y592588D01*
X78835Y592580D01*
X78914Y592569D01*
X78991Y592553D01*
X79068Y592535D01*
X79144Y592512D01*
X79218Y592486D01*
X79292Y592456D01*
X79364Y592422D01*
X79434Y592386D01*
X79502Y592346D01*
X79568Y592302D01*
X79632Y592256D01*
X79694Y592206D01*
X79753Y592154D01*
X79809Y592098D01*
X79863Y592041D01*
X79914Y591980D01*
X79962Y591917D01*
X80007Y591852D01*
X80049Y591785D01*
X80087Y591716D01*
X80123Y591645D01*
X80154Y591572D01*
X80182Y591498D01*
X80207Y591423D01*
X80227Y591347D01*
X80245Y591270D01*
X80258Y591192D01*
X80267Y591113D01*
X80273Y591034D01*
X80275Y590955D01*
X80274Y590955D02*
X80274Y589318D01*
X80275Y589318D02*
X80273Y589239D01*
X80267Y589160D01*
X80258Y589081D01*
X80245Y589003D01*
X80227Y588926D01*
X80207Y588850D01*
X80182Y588775D01*
X80154Y588701D01*
X80123Y588628D01*
X80087Y588557D01*
X80049Y588488D01*
X80007Y588421D01*
X79962Y588356D01*
X79914Y588293D01*
X79863Y588232D01*
X79809Y588175D01*
X79753Y588119D01*
X79694Y588067D01*
X79632Y588017D01*
X79568Y587971D01*
X79502Y587927D01*
X79434Y587887D01*
X79364Y587851D01*
X79292Y587817D01*
X79218Y587787D01*
X79144Y587761D01*
X79068Y587738D01*
X78991Y587720D01*
X78914Y587704D01*
X78835Y587693D01*
X78757Y587685D01*
X78678Y587681D01*
X78598Y587681D01*
X78519Y587685D01*
X78441Y587693D01*
X78362Y587704D01*
X78285Y587720D01*
X78208Y587738D01*
X78132Y587761D01*
X78058Y587787D01*
X77984Y587817D01*
X77912Y587851D01*
X77842Y587887D01*
X77774Y587927D01*
X77708Y587971D01*
X77644Y588017D01*
X77582Y588067D01*
X77523Y588119D01*
X77467Y588175D01*
X77413Y588232D01*
X77362Y588293D01*
X77314Y588356D01*
X77269Y588421D01*
X77227Y588488D01*
X77189Y588557D01*
X77153Y588628D01*
X77122Y588701D01*
X77094Y588775D01*
X77069Y588850D01*
X77049Y588926D01*
X77031Y589003D01*
X77018Y589081D01*
X77009Y589160D01*
X77003Y589239D01*
X77001Y589318D01*
X86573Y587681D02*
X86573Y595047D01*
X86573Y587681D02*
X84527Y587681D01*
X84458Y587683D01*
X84390Y587689D01*
X84321Y587698D01*
X84254Y587712D01*
X84187Y587729D01*
X84121Y587750D01*
X84057Y587774D01*
X83994Y587803D01*
X83933Y587834D01*
X83874Y587869D01*
X83816Y587907D01*
X83761Y587949D01*
X83709Y587993D01*
X83659Y588041D01*
X83611Y588091D01*
X83567Y588143D01*
X83525Y588198D01*
X83487Y588256D01*
X83452Y588315D01*
X83421Y588376D01*
X83392Y588439D01*
X83368Y588503D01*
X83347Y588569D01*
X83330Y588636D01*
X83316Y588703D01*
X83307Y588772D01*
X83301Y588840D01*
X83299Y588909D01*
X83300Y588909D02*
X83300Y591364D01*
X83299Y591364D02*
X83301Y591433D01*
X83307Y591501D01*
X83316Y591570D01*
X83330Y591637D01*
X83347Y591704D01*
X83368Y591770D01*
X83392Y591834D01*
X83421Y591897D01*
X83452Y591958D01*
X83487Y592017D01*
X83525Y592075D01*
X83567Y592130D01*
X83611Y592182D01*
X83659Y592232D01*
X83709Y592280D01*
X83761Y592324D01*
X83816Y592366D01*
X83874Y592404D01*
X83933Y592439D01*
X83994Y592470D01*
X84057Y592499D01*
X84121Y592523D01*
X84187Y592544D01*
X84254Y592561D01*
X84321Y592575D01*
X84390Y592584D01*
X84458Y592590D01*
X84527Y592592D01*
X86573Y592592D01*
X90168Y592592D02*
X90168Y588909D01*
X90170Y588840D01*
X90176Y588772D01*
X90185Y588703D01*
X90199Y588636D01*
X90216Y588569D01*
X90237Y588503D01*
X90261Y588439D01*
X90290Y588376D01*
X90321Y588315D01*
X90356Y588256D01*
X90394Y588198D01*
X90436Y588143D01*
X90480Y588091D01*
X90528Y588041D01*
X90578Y587993D01*
X90630Y587949D01*
X90685Y587907D01*
X90743Y587869D01*
X90802Y587834D01*
X90863Y587803D01*
X90926Y587774D01*
X90990Y587750D01*
X91056Y587729D01*
X91123Y587712D01*
X91190Y587698D01*
X91259Y587689D01*
X91327Y587683D01*
X91396Y587681D01*
X93442Y587681D01*
X93442Y592592D01*
X96835Y595047D02*
X96835Y588909D01*
X96834Y588909D02*
X96836Y588840D01*
X96842Y588772D01*
X96851Y588703D01*
X96865Y588636D01*
X96882Y588569D01*
X96903Y588503D01*
X96927Y588439D01*
X96956Y588376D01*
X96987Y588315D01*
X97022Y588256D01*
X97060Y588198D01*
X97102Y588143D01*
X97146Y588091D01*
X97194Y588041D01*
X97244Y587993D01*
X97296Y587949D01*
X97351Y587907D01*
X97409Y587869D01*
X97468Y587834D01*
X97529Y587803D01*
X97592Y587774D01*
X97656Y587750D01*
X97722Y587729D01*
X97789Y587712D01*
X97856Y587698D01*
X97925Y587689D01*
X97993Y587683D01*
X98062Y587681D01*
X100653Y589318D02*
X100653Y590955D01*
X100655Y591034D01*
X100661Y591113D01*
X100670Y591192D01*
X100683Y591270D01*
X100701Y591347D01*
X100721Y591423D01*
X100746Y591498D01*
X100774Y591572D01*
X100805Y591645D01*
X100841Y591716D01*
X100879Y591785D01*
X100921Y591852D01*
X100966Y591917D01*
X101014Y591980D01*
X101065Y592041D01*
X101119Y592098D01*
X101175Y592154D01*
X101234Y592206D01*
X101296Y592256D01*
X101360Y592302D01*
X101426Y592346D01*
X101494Y592386D01*
X101564Y592422D01*
X101636Y592456D01*
X101710Y592486D01*
X101784Y592512D01*
X101860Y592535D01*
X101937Y592553D01*
X102014Y592569D01*
X102093Y592580D01*
X102171Y592588D01*
X102250Y592592D01*
X102330Y592592D01*
X102409Y592588D01*
X102487Y592580D01*
X102566Y592569D01*
X102643Y592553D01*
X102720Y592535D01*
X102796Y592512D01*
X102870Y592486D01*
X102944Y592456D01*
X103016Y592422D01*
X103086Y592386D01*
X103154Y592346D01*
X103220Y592302D01*
X103284Y592256D01*
X103346Y592206D01*
X103405Y592154D01*
X103461Y592098D01*
X103515Y592041D01*
X103566Y591980D01*
X103614Y591917D01*
X103659Y591852D01*
X103701Y591785D01*
X103739Y591716D01*
X103775Y591645D01*
X103806Y591572D01*
X103834Y591498D01*
X103859Y591423D01*
X103879Y591347D01*
X103897Y591270D01*
X103910Y591192D01*
X103919Y591113D01*
X103925Y591034D01*
X103927Y590955D01*
X103927Y589318D01*
X103925Y589239D01*
X103919Y589160D01*
X103910Y589081D01*
X103897Y589003D01*
X103879Y588926D01*
X103859Y588850D01*
X103834Y588775D01*
X103806Y588701D01*
X103775Y588628D01*
X103739Y588557D01*
X103701Y588488D01*
X103659Y588421D01*
X103614Y588356D01*
X103566Y588293D01*
X103515Y588232D01*
X103461Y588175D01*
X103405Y588119D01*
X103346Y588067D01*
X103284Y588017D01*
X103220Y587971D01*
X103154Y587927D01*
X103086Y587887D01*
X103016Y587851D01*
X102944Y587817D01*
X102870Y587787D01*
X102796Y587761D01*
X102720Y587738D01*
X102643Y587720D01*
X102566Y587704D01*
X102487Y587693D01*
X102409Y587685D01*
X102330Y587681D01*
X102250Y587681D01*
X102171Y587685D01*
X102093Y587693D01*
X102014Y587704D01*
X101937Y587720D01*
X101860Y587738D01*
X101784Y587761D01*
X101710Y587787D01*
X101636Y587817D01*
X101564Y587851D01*
X101494Y587887D01*
X101426Y587927D01*
X101360Y587971D01*
X101296Y588017D01*
X101234Y588067D01*
X101175Y588119D01*
X101119Y588175D01*
X101065Y588232D01*
X101014Y588293D01*
X100966Y588356D01*
X100921Y588421D01*
X100879Y588488D01*
X100841Y588557D01*
X100805Y588628D01*
X100774Y588701D01*
X100746Y588775D01*
X100721Y588850D01*
X100701Y588926D01*
X100683Y589003D01*
X100670Y589081D01*
X100661Y589160D01*
X100655Y589239D01*
X100653Y589318D01*
X106749Y586863D02*
X110023Y586863D01*
X113218Y587681D02*
X113218Y595047D01*
X115265Y595047D01*
X115354Y595045D01*
X115443Y595039D01*
X115532Y595029D01*
X115620Y595016D01*
X115708Y594999D01*
X115795Y594977D01*
X115880Y594952D01*
X115965Y594924D01*
X116048Y594891D01*
X116130Y594855D01*
X116210Y594816D01*
X116288Y594773D01*
X116364Y594727D01*
X116439Y594677D01*
X116511Y594624D01*
X116580Y594568D01*
X116647Y594509D01*
X116712Y594448D01*
X116773Y594383D01*
X116832Y594316D01*
X116888Y594247D01*
X116941Y594175D01*
X116991Y594100D01*
X117037Y594024D01*
X117080Y593946D01*
X117119Y593866D01*
X117155Y593784D01*
X117188Y593701D01*
X117216Y593616D01*
X117241Y593531D01*
X117263Y593444D01*
X117280Y593356D01*
X117293Y593268D01*
X117303Y593179D01*
X117309Y593090D01*
X117311Y593001D01*
X117309Y592912D01*
X117303Y592823D01*
X117293Y592734D01*
X117280Y592646D01*
X117263Y592558D01*
X117241Y592471D01*
X117216Y592386D01*
X117188Y592301D01*
X117155Y592218D01*
X117119Y592136D01*
X117080Y592056D01*
X117037Y591978D01*
X116991Y591902D01*
X116941Y591827D01*
X116888Y591755D01*
X116832Y591686D01*
X116773Y591619D01*
X116712Y591554D01*
X116647Y591493D01*
X116580Y591434D01*
X116511Y591378D01*
X116439Y591325D01*
X116364Y591275D01*
X116288Y591229D01*
X116210Y591186D01*
X116130Y591147D01*
X116048Y591111D01*
X115965Y591078D01*
X115880Y591050D01*
X115795Y591025D01*
X115708Y591003D01*
X115620Y590986D01*
X115532Y590973D01*
X115443Y590963D01*
X115354Y590957D01*
X115265Y590955D01*
X113218Y590955D01*
X115674Y590955D02*
X117311Y587681D01*
X121632Y587681D02*
X123678Y587681D01*
X121632Y587681D02*
X121563Y587683D01*
X121495Y587689D01*
X121426Y587698D01*
X121359Y587712D01*
X121292Y587729D01*
X121226Y587750D01*
X121162Y587774D01*
X121099Y587803D01*
X121038Y587834D01*
X120979Y587869D01*
X120921Y587907D01*
X120866Y587949D01*
X120814Y587993D01*
X120764Y588041D01*
X120716Y588091D01*
X120672Y588143D01*
X120630Y588198D01*
X120592Y588256D01*
X120557Y588315D01*
X120526Y588376D01*
X120497Y588439D01*
X120473Y588503D01*
X120452Y588569D01*
X120435Y588636D01*
X120421Y588703D01*
X120412Y588772D01*
X120406Y588840D01*
X120404Y588909D01*
X120404Y590955D01*
X120406Y591034D01*
X120412Y591113D01*
X120421Y591192D01*
X120434Y591270D01*
X120452Y591347D01*
X120472Y591423D01*
X120497Y591498D01*
X120525Y591572D01*
X120556Y591645D01*
X120592Y591716D01*
X120630Y591785D01*
X120672Y591852D01*
X120717Y591917D01*
X120765Y591980D01*
X120816Y592041D01*
X120870Y592098D01*
X120926Y592154D01*
X120985Y592206D01*
X121047Y592256D01*
X121111Y592302D01*
X121177Y592346D01*
X121245Y592386D01*
X121315Y592422D01*
X121387Y592456D01*
X121461Y592486D01*
X121535Y592512D01*
X121611Y592535D01*
X121688Y592553D01*
X121765Y592569D01*
X121844Y592580D01*
X121922Y592588D01*
X122001Y592592D01*
X122081Y592592D01*
X122160Y592588D01*
X122238Y592580D01*
X122317Y592569D01*
X122394Y592553D01*
X122471Y592535D01*
X122547Y592512D01*
X122621Y592486D01*
X122695Y592456D01*
X122767Y592422D01*
X122837Y592386D01*
X122905Y592346D01*
X122971Y592302D01*
X123035Y592256D01*
X123097Y592206D01*
X123156Y592154D01*
X123212Y592098D01*
X123266Y592041D01*
X123317Y591980D01*
X123365Y591917D01*
X123410Y591852D01*
X123452Y591785D01*
X123490Y591716D01*
X123526Y591645D01*
X123557Y591572D01*
X123585Y591498D01*
X123610Y591423D01*
X123630Y591347D01*
X123648Y591270D01*
X123661Y591192D01*
X123670Y591113D01*
X123676Y591034D01*
X123678Y590955D01*
X123678Y590136D01*
X120404Y590136D01*
X126827Y588909D02*
X126827Y595047D01*
X126827Y588909D02*
X126829Y588840D01*
X126835Y588772D01*
X126844Y588703D01*
X126858Y588636D01*
X126875Y588569D01*
X126896Y588503D01*
X126920Y588439D01*
X126949Y588376D01*
X126980Y588315D01*
X127015Y588256D01*
X127053Y588198D01*
X127095Y588143D01*
X127139Y588091D01*
X127187Y588041D01*
X127237Y587993D01*
X127289Y587949D01*
X127344Y587907D01*
X127402Y587869D01*
X127461Y587834D01*
X127522Y587803D01*
X127585Y587774D01*
X127649Y587750D01*
X127715Y587729D01*
X127782Y587712D01*
X127849Y587698D01*
X127918Y587689D01*
X127986Y587683D01*
X128055Y587681D01*
X131873Y587681D02*
X133919Y587681D01*
X131873Y587681D02*
X131804Y587683D01*
X131736Y587689D01*
X131667Y587698D01*
X131600Y587712D01*
X131533Y587729D01*
X131467Y587750D01*
X131403Y587774D01*
X131340Y587803D01*
X131279Y587834D01*
X131220Y587869D01*
X131162Y587907D01*
X131107Y587949D01*
X131055Y587993D01*
X131005Y588041D01*
X130957Y588091D01*
X130913Y588143D01*
X130871Y588198D01*
X130833Y588256D01*
X130798Y588315D01*
X130767Y588376D01*
X130738Y588439D01*
X130714Y588503D01*
X130693Y588569D01*
X130676Y588636D01*
X130662Y588703D01*
X130653Y588772D01*
X130647Y588840D01*
X130645Y588909D01*
X130645Y590955D01*
X130647Y591034D01*
X130653Y591113D01*
X130662Y591192D01*
X130675Y591270D01*
X130693Y591347D01*
X130713Y591423D01*
X130738Y591498D01*
X130766Y591572D01*
X130797Y591645D01*
X130833Y591716D01*
X130871Y591785D01*
X130913Y591852D01*
X130958Y591917D01*
X131006Y591980D01*
X131057Y592041D01*
X131111Y592098D01*
X131167Y592154D01*
X131226Y592206D01*
X131288Y592256D01*
X131352Y592302D01*
X131418Y592346D01*
X131486Y592386D01*
X131556Y592422D01*
X131628Y592456D01*
X131702Y592486D01*
X131776Y592512D01*
X131852Y592535D01*
X131929Y592553D01*
X132006Y592569D01*
X132085Y592580D01*
X132163Y592588D01*
X132242Y592592D01*
X132322Y592592D01*
X132401Y592588D01*
X132479Y592580D01*
X132558Y592569D01*
X132635Y592553D01*
X132712Y592535D01*
X132788Y592512D01*
X132862Y592486D01*
X132936Y592456D01*
X133008Y592422D01*
X133078Y592386D01*
X133146Y592346D01*
X133212Y592302D01*
X133276Y592256D01*
X133338Y592206D01*
X133397Y592154D01*
X133453Y592098D01*
X133507Y592041D01*
X133558Y591980D01*
X133606Y591917D01*
X133651Y591852D01*
X133693Y591785D01*
X133731Y591716D01*
X133767Y591645D01*
X133798Y591572D01*
X133826Y591498D01*
X133851Y591423D01*
X133871Y591347D01*
X133889Y591270D01*
X133902Y591192D01*
X133911Y591113D01*
X133917Y591034D01*
X133919Y590955D01*
X133919Y590136D01*
X130645Y590136D01*
D12*
X865425Y128500D02*
X922925Y128500D01*
X922925Y252500D01*
X865425Y252500D01*
X865425Y128500D01*
X866000Y228500D02*
X871000Y228500D01*
X871000Y151500D02*
X866000Y151500D01*
X871000Y151500D02*
X871000Y228500D01*
D11*
X871836Y259518D02*
X871836Y265247D01*
X871836Y259518D02*
X871834Y259440D01*
X871829Y259362D01*
X871819Y259285D01*
X871806Y259208D01*
X871790Y259132D01*
X871770Y259057D01*
X871746Y258983D01*
X871719Y258910D01*
X871688Y258838D01*
X871654Y258768D01*
X871617Y258700D01*
X871576Y258633D01*
X871532Y258568D01*
X871486Y258506D01*
X871436Y258446D01*
X871384Y258388D01*
X871329Y258333D01*
X871271Y258281D01*
X871211Y258231D01*
X871149Y258185D01*
X871084Y258141D01*
X871018Y258100D01*
X870949Y258063D01*
X870879Y258029D01*
X870807Y257998D01*
X870734Y257971D01*
X870660Y257947D01*
X870585Y257927D01*
X870509Y257911D01*
X870432Y257898D01*
X870355Y257888D01*
X870277Y257883D01*
X870199Y257881D01*
X869381Y257881D01*
X875271Y257881D02*
X877317Y257881D01*
X877406Y257883D01*
X877495Y257889D01*
X877584Y257899D01*
X877672Y257912D01*
X877760Y257929D01*
X877847Y257951D01*
X877932Y257976D01*
X878017Y258004D01*
X878100Y258037D01*
X878182Y258073D01*
X878262Y258112D01*
X878340Y258155D01*
X878416Y258201D01*
X878491Y258251D01*
X878563Y258304D01*
X878632Y258360D01*
X878699Y258419D01*
X878764Y258480D01*
X878825Y258545D01*
X878884Y258612D01*
X878940Y258681D01*
X878993Y258753D01*
X879043Y258828D01*
X879089Y258904D01*
X879132Y258982D01*
X879171Y259062D01*
X879207Y259144D01*
X879240Y259227D01*
X879268Y259312D01*
X879293Y259397D01*
X879315Y259484D01*
X879332Y259572D01*
X879345Y259660D01*
X879355Y259749D01*
X879361Y259838D01*
X879363Y259927D01*
X879361Y260016D01*
X879355Y260105D01*
X879345Y260194D01*
X879332Y260282D01*
X879315Y260370D01*
X879293Y260457D01*
X879268Y260542D01*
X879240Y260627D01*
X879207Y260710D01*
X879171Y260792D01*
X879132Y260872D01*
X879089Y260950D01*
X879043Y261026D01*
X878993Y261101D01*
X878940Y261173D01*
X878884Y261242D01*
X878825Y261309D01*
X878764Y261374D01*
X878699Y261435D01*
X878632Y261494D01*
X878563Y261550D01*
X878491Y261603D01*
X878416Y261653D01*
X878340Y261699D01*
X878262Y261742D01*
X878182Y261781D01*
X878100Y261817D01*
X878017Y261850D01*
X877932Y261878D01*
X877847Y261903D01*
X877760Y261925D01*
X877672Y261942D01*
X877584Y261955D01*
X877495Y261965D01*
X877406Y261971D01*
X877317Y261973D01*
X877726Y265247D02*
X875271Y265247D01*
X877726Y265247D02*
X877805Y265245D01*
X877884Y265239D01*
X877963Y265230D01*
X878041Y265217D01*
X878118Y265199D01*
X878194Y265179D01*
X878269Y265154D01*
X878343Y265126D01*
X878416Y265095D01*
X878487Y265059D01*
X878556Y265021D01*
X878623Y264979D01*
X878688Y264934D01*
X878751Y264886D01*
X878812Y264835D01*
X878869Y264781D01*
X878925Y264725D01*
X878977Y264666D01*
X879027Y264604D01*
X879073Y264540D01*
X879117Y264474D01*
X879157Y264406D01*
X879193Y264336D01*
X879227Y264264D01*
X879257Y264190D01*
X879283Y264116D01*
X879306Y264040D01*
X879324Y263963D01*
X879340Y263886D01*
X879351Y263807D01*
X879359Y263729D01*
X879363Y263650D01*
X879363Y263570D01*
X879359Y263491D01*
X879351Y263413D01*
X879340Y263334D01*
X879324Y263257D01*
X879306Y263180D01*
X879283Y263104D01*
X879257Y263030D01*
X879227Y262956D01*
X879193Y262884D01*
X879157Y262814D01*
X879117Y262746D01*
X879073Y262680D01*
X879027Y262616D01*
X878977Y262554D01*
X878925Y262495D01*
X878869Y262439D01*
X878812Y262385D01*
X878751Y262334D01*
X878688Y262286D01*
X878623Y262241D01*
X878556Y262199D01*
X878487Y262161D01*
X878416Y262125D01*
X878343Y262094D01*
X878269Y262066D01*
X878194Y262041D01*
X878118Y262021D01*
X878041Y262003D01*
X877963Y261990D01*
X877884Y261981D01*
X877805Y261975D01*
X877726Y261973D01*
X876089Y261973D01*
X869381Y123119D02*
X869381Y115753D01*
X871836Y119027D02*
X869381Y123119D01*
X871836Y119027D02*
X874292Y123119D01*
X874292Y115753D01*
X877758Y117390D02*
X877758Y119027D01*
X877760Y119106D01*
X877766Y119185D01*
X877775Y119264D01*
X877788Y119342D01*
X877806Y119419D01*
X877826Y119495D01*
X877851Y119570D01*
X877879Y119644D01*
X877910Y119717D01*
X877946Y119788D01*
X877984Y119857D01*
X878026Y119924D01*
X878071Y119989D01*
X878119Y120052D01*
X878170Y120113D01*
X878224Y120170D01*
X878280Y120226D01*
X878339Y120278D01*
X878401Y120328D01*
X878465Y120374D01*
X878531Y120418D01*
X878599Y120458D01*
X878669Y120494D01*
X878741Y120528D01*
X878815Y120558D01*
X878889Y120584D01*
X878965Y120607D01*
X879042Y120625D01*
X879119Y120641D01*
X879198Y120652D01*
X879276Y120660D01*
X879355Y120664D01*
X879435Y120664D01*
X879514Y120660D01*
X879592Y120652D01*
X879671Y120641D01*
X879748Y120625D01*
X879825Y120607D01*
X879901Y120584D01*
X879975Y120558D01*
X880049Y120528D01*
X880121Y120494D01*
X880191Y120458D01*
X880259Y120418D01*
X880325Y120374D01*
X880389Y120328D01*
X880451Y120278D01*
X880510Y120226D01*
X880566Y120170D01*
X880620Y120113D01*
X880671Y120052D01*
X880719Y119989D01*
X880764Y119924D01*
X880806Y119857D01*
X880844Y119788D01*
X880880Y119717D01*
X880911Y119644D01*
X880939Y119570D01*
X880964Y119495D01*
X880984Y119419D01*
X881002Y119342D01*
X881015Y119264D01*
X881024Y119185D01*
X881030Y119106D01*
X881032Y119027D01*
X881032Y117390D01*
X881030Y117311D01*
X881024Y117232D01*
X881015Y117153D01*
X881002Y117075D01*
X880984Y116998D01*
X880964Y116922D01*
X880939Y116847D01*
X880911Y116773D01*
X880880Y116700D01*
X880844Y116629D01*
X880806Y116560D01*
X880764Y116493D01*
X880719Y116428D01*
X880671Y116365D01*
X880620Y116304D01*
X880566Y116247D01*
X880510Y116191D01*
X880451Y116139D01*
X880389Y116089D01*
X880325Y116043D01*
X880259Y115999D01*
X880191Y115959D01*
X880121Y115923D01*
X880049Y115889D01*
X879975Y115859D01*
X879901Y115833D01*
X879825Y115810D01*
X879748Y115792D01*
X879671Y115776D01*
X879592Y115765D01*
X879514Y115757D01*
X879435Y115753D01*
X879355Y115753D01*
X879276Y115757D01*
X879198Y115765D01*
X879119Y115776D01*
X879042Y115792D01*
X878965Y115810D01*
X878889Y115833D01*
X878815Y115859D01*
X878741Y115889D01*
X878669Y115923D01*
X878599Y115959D01*
X878531Y115999D01*
X878465Y116043D01*
X878401Y116089D01*
X878339Y116139D01*
X878280Y116191D01*
X878224Y116247D01*
X878170Y116304D01*
X878119Y116365D01*
X878071Y116428D01*
X878026Y116493D01*
X877984Y116560D01*
X877946Y116629D01*
X877910Y116700D01*
X877879Y116773D01*
X877851Y116847D01*
X877826Y116922D01*
X877806Y116998D01*
X877788Y117075D01*
X877775Y117153D01*
X877766Y117232D01*
X877760Y117311D01*
X877758Y117390D01*
X884342Y115753D02*
X884342Y120664D01*
X886388Y120664D01*
X886457Y120662D01*
X886525Y120656D01*
X886594Y120647D01*
X886661Y120633D01*
X886728Y120616D01*
X886794Y120595D01*
X886858Y120571D01*
X886921Y120542D01*
X886982Y120511D01*
X887041Y120476D01*
X887099Y120438D01*
X887154Y120396D01*
X887206Y120352D01*
X887256Y120304D01*
X887304Y120254D01*
X887348Y120202D01*
X887390Y120147D01*
X887428Y120089D01*
X887463Y120030D01*
X887494Y119969D01*
X887523Y119906D01*
X887547Y119842D01*
X887568Y119776D01*
X887585Y119709D01*
X887599Y119642D01*
X887608Y119573D01*
X887614Y119505D01*
X887616Y119436D01*
X887616Y115753D01*
X890856Y115753D02*
X890856Y120664D01*
X890651Y122710D02*
X890651Y123119D01*
X891060Y123119D01*
X891060Y122710D01*
X890651Y122710D01*
X893221Y120664D02*
X895677Y120664D01*
X894040Y123119D02*
X894040Y116981D01*
X894042Y116912D01*
X894048Y116844D01*
X894057Y116775D01*
X894071Y116708D01*
X894088Y116641D01*
X894109Y116575D01*
X894133Y116511D01*
X894162Y116448D01*
X894193Y116387D01*
X894228Y116328D01*
X894266Y116270D01*
X894308Y116215D01*
X894352Y116163D01*
X894400Y116113D01*
X894450Y116065D01*
X894502Y116021D01*
X894557Y115979D01*
X894615Y115941D01*
X894674Y115906D01*
X894735Y115875D01*
X894798Y115846D01*
X894862Y115822D01*
X894928Y115801D01*
X894995Y115784D01*
X895062Y115770D01*
X895131Y115761D01*
X895199Y115755D01*
X895268Y115753D01*
X895677Y115753D01*
X898485Y117390D02*
X898485Y119027D01*
X898487Y119106D01*
X898493Y119185D01*
X898502Y119264D01*
X898515Y119342D01*
X898533Y119419D01*
X898553Y119495D01*
X898578Y119570D01*
X898606Y119644D01*
X898637Y119717D01*
X898673Y119788D01*
X898711Y119857D01*
X898753Y119924D01*
X898798Y119989D01*
X898846Y120052D01*
X898897Y120113D01*
X898951Y120170D01*
X899007Y120226D01*
X899066Y120278D01*
X899128Y120328D01*
X899192Y120374D01*
X899258Y120418D01*
X899326Y120458D01*
X899396Y120494D01*
X899468Y120528D01*
X899542Y120558D01*
X899616Y120584D01*
X899692Y120607D01*
X899769Y120625D01*
X899846Y120641D01*
X899925Y120652D01*
X900003Y120660D01*
X900082Y120664D01*
X900162Y120664D01*
X900241Y120660D01*
X900319Y120652D01*
X900398Y120641D01*
X900475Y120625D01*
X900552Y120607D01*
X900628Y120584D01*
X900702Y120558D01*
X900776Y120528D01*
X900848Y120494D01*
X900918Y120458D01*
X900986Y120418D01*
X901052Y120374D01*
X901116Y120328D01*
X901178Y120278D01*
X901237Y120226D01*
X901293Y120170D01*
X901347Y120113D01*
X901398Y120052D01*
X901446Y119989D01*
X901491Y119924D01*
X901533Y119857D01*
X901571Y119788D01*
X901607Y119717D01*
X901638Y119644D01*
X901666Y119570D01*
X901691Y119495D01*
X901711Y119419D01*
X901729Y119342D01*
X901742Y119264D01*
X901751Y119185D01*
X901757Y119106D01*
X901759Y119027D01*
X901758Y119027D02*
X901758Y117390D01*
X901759Y117390D02*
X901757Y117311D01*
X901751Y117232D01*
X901742Y117153D01*
X901729Y117075D01*
X901711Y116998D01*
X901691Y116922D01*
X901666Y116847D01*
X901638Y116773D01*
X901607Y116700D01*
X901571Y116629D01*
X901533Y116560D01*
X901491Y116493D01*
X901446Y116428D01*
X901398Y116365D01*
X901347Y116304D01*
X901293Y116247D01*
X901237Y116191D01*
X901178Y116139D01*
X901116Y116089D01*
X901052Y116043D01*
X900986Y115999D01*
X900918Y115959D01*
X900848Y115923D01*
X900776Y115889D01*
X900702Y115859D01*
X900628Y115833D01*
X900552Y115810D01*
X900475Y115792D01*
X900398Y115776D01*
X900319Y115765D01*
X900241Y115757D01*
X900162Y115753D01*
X900082Y115753D01*
X900003Y115757D01*
X899925Y115765D01*
X899846Y115776D01*
X899769Y115792D01*
X899692Y115810D01*
X899616Y115833D01*
X899542Y115859D01*
X899468Y115889D01*
X899396Y115923D01*
X899326Y115959D01*
X899258Y115999D01*
X899192Y116043D01*
X899128Y116089D01*
X899066Y116139D01*
X899007Y116191D01*
X898951Y116247D01*
X898897Y116304D01*
X898846Y116365D01*
X898798Y116428D01*
X898753Y116493D01*
X898711Y116560D01*
X898673Y116629D01*
X898637Y116700D01*
X898606Y116773D01*
X898578Y116847D01*
X898553Y116922D01*
X898533Y116998D01*
X898515Y117075D01*
X898502Y117153D01*
X898493Y117232D01*
X898487Y117311D01*
X898485Y117390D01*
X905115Y115753D02*
X905115Y120664D01*
X907570Y120664D01*
X907570Y119845D01*
X909701Y114935D02*
X912975Y114935D01*
X916459Y115753D02*
X916459Y123119D01*
X915640Y115753D02*
X917277Y115753D01*
X917277Y123119D02*
X915640Y123119D01*
X922516Y123120D02*
X922601Y123118D01*
X922686Y123112D01*
X922770Y123102D01*
X922854Y123089D01*
X922938Y123071D01*
X923020Y123050D01*
X923101Y123025D01*
X923181Y122996D01*
X923260Y122963D01*
X923337Y122927D01*
X923412Y122887D01*
X923486Y122844D01*
X923557Y122798D01*
X923626Y122748D01*
X923693Y122695D01*
X923757Y122639D01*
X923818Y122580D01*
X923877Y122519D01*
X923933Y122455D01*
X923986Y122388D01*
X924036Y122319D01*
X924082Y122248D01*
X924125Y122174D01*
X924165Y122099D01*
X924201Y122022D01*
X924234Y121943D01*
X924263Y121863D01*
X924288Y121782D01*
X924309Y121700D01*
X924327Y121616D01*
X924340Y121532D01*
X924350Y121448D01*
X924356Y121363D01*
X924358Y121278D01*
X922516Y123119D02*
X922420Y123117D01*
X922324Y123111D01*
X922229Y123101D01*
X922134Y123088D01*
X922039Y123070D01*
X921946Y123049D01*
X921853Y123024D01*
X921762Y122995D01*
X921671Y122963D01*
X921582Y122927D01*
X921495Y122887D01*
X921409Y122844D01*
X921325Y122798D01*
X921243Y122748D01*
X921163Y122694D01*
X921086Y122638D01*
X921011Y122578D01*
X920938Y122516D01*
X920868Y122450D01*
X920800Y122382D01*
X920735Y122311D01*
X920674Y122238D01*
X920615Y122162D01*
X920559Y122083D01*
X920507Y122003D01*
X920458Y121920D01*
X920412Y121836D01*
X920370Y121750D01*
X920332Y121662D01*
X920297Y121573D01*
X920265Y121482D01*
X923743Y119846D02*
X923803Y119905D01*
X923860Y119967D01*
X923915Y120031D01*
X923966Y120098D01*
X924015Y120167D01*
X924061Y120237D01*
X924104Y120310D01*
X924144Y120384D01*
X924180Y120460D01*
X924213Y120538D01*
X924243Y120617D01*
X924270Y120697D01*
X924293Y120778D01*
X924312Y120860D01*
X924328Y120942D01*
X924341Y121026D01*
X924350Y121110D01*
X924355Y121194D01*
X924357Y121278D01*
X923743Y119845D02*
X920265Y115753D01*
X924357Y115753D01*
X929194Y115753D02*
X930831Y115753D01*
X929194Y115753D02*
X929116Y115755D01*
X929038Y115760D01*
X928961Y115770D01*
X928884Y115783D01*
X928808Y115799D01*
X928733Y115819D01*
X928659Y115843D01*
X928586Y115870D01*
X928514Y115901D01*
X928444Y115935D01*
X928376Y115972D01*
X928309Y116013D01*
X928244Y116057D01*
X928182Y116103D01*
X928122Y116153D01*
X928064Y116205D01*
X928009Y116260D01*
X927957Y116318D01*
X927907Y116378D01*
X927861Y116440D01*
X927817Y116505D01*
X927776Y116572D01*
X927739Y116640D01*
X927705Y116710D01*
X927674Y116782D01*
X927647Y116855D01*
X927623Y116929D01*
X927603Y117004D01*
X927587Y117080D01*
X927574Y117157D01*
X927564Y117234D01*
X927559Y117312D01*
X927557Y117390D01*
X927557Y121482D01*
X927559Y121562D01*
X927565Y121642D01*
X927575Y121722D01*
X927588Y121801D01*
X927606Y121880D01*
X927627Y121957D01*
X927653Y122033D01*
X927682Y122108D01*
X927714Y122182D01*
X927750Y122254D01*
X927790Y122324D01*
X927833Y122391D01*
X927879Y122457D01*
X927929Y122520D01*
X927981Y122581D01*
X928036Y122640D01*
X928095Y122695D01*
X928155Y122747D01*
X928219Y122797D01*
X928285Y122843D01*
X928352Y122886D01*
X928422Y122926D01*
X928494Y122962D01*
X928568Y122994D01*
X928642Y123023D01*
X928719Y123049D01*
X928796Y123070D01*
X928875Y123088D01*
X928954Y123101D01*
X929034Y123111D01*
X929114Y123117D01*
X929194Y123119D01*
X930831Y123119D01*
D12*
X922925Y369800D02*
X865425Y369800D01*
X922925Y369800D02*
X922925Y493800D01*
X865425Y493800D01*
X865425Y369800D01*
X866000Y469800D02*
X871000Y469800D01*
X871000Y392800D02*
X866000Y392800D01*
X871000Y392800D02*
X871000Y469800D01*
D11*
X871836Y500818D02*
X871836Y506547D01*
X871836Y500818D02*
X871834Y500740D01*
X871829Y500662D01*
X871819Y500585D01*
X871806Y500508D01*
X871790Y500432D01*
X871770Y500357D01*
X871746Y500283D01*
X871719Y500210D01*
X871688Y500138D01*
X871654Y500068D01*
X871617Y500000D01*
X871576Y499933D01*
X871532Y499868D01*
X871486Y499806D01*
X871436Y499746D01*
X871384Y499688D01*
X871329Y499633D01*
X871271Y499581D01*
X871211Y499531D01*
X871149Y499485D01*
X871084Y499441D01*
X871018Y499400D01*
X870949Y499363D01*
X870879Y499329D01*
X870807Y499298D01*
X870734Y499271D01*
X870660Y499247D01*
X870585Y499227D01*
X870509Y499211D01*
X870432Y499198D01*
X870355Y499188D01*
X870277Y499183D01*
X870199Y499181D01*
X869381Y499181D01*
X875271Y500818D02*
X876908Y506547D01*
X875271Y500818D02*
X879363Y500818D01*
X878135Y502455D02*
X878135Y499181D01*
X871427Y361145D02*
X869381Y361145D01*
X871427Y361145D02*
X871516Y361143D01*
X871605Y361137D01*
X871694Y361127D01*
X871782Y361114D01*
X871870Y361097D01*
X871957Y361075D01*
X872042Y361050D01*
X872127Y361022D01*
X872210Y360989D01*
X872292Y360953D01*
X872372Y360914D01*
X872450Y360871D01*
X872526Y360825D01*
X872601Y360775D01*
X872673Y360722D01*
X872742Y360666D01*
X872809Y360607D01*
X872874Y360546D01*
X872935Y360481D01*
X872994Y360414D01*
X873050Y360345D01*
X873103Y360273D01*
X873153Y360198D01*
X873199Y360122D01*
X873242Y360044D01*
X873281Y359964D01*
X873317Y359882D01*
X873350Y359799D01*
X873378Y359714D01*
X873403Y359629D01*
X873425Y359542D01*
X873442Y359454D01*
X873455Y359366D01*
X873465Y359277D01*
X873471Y359188D01*
X873473Y359099D01*
X873471Y359010D01*
X873465Y358921D01*
X873455Y358832D01*
X873442Y358744D01*
X873425Y358656D01*
X873403Y358569D01*
X873378Y358484D01*
X873350Y358399D01*
X873317Y358316D01*
X873281Y358234D01*
X873242Y358154D01*
X873199Y358076D01*
X873153Y358000D01*
X873103Y357925D01*
X873050Y357853D01*
X872994Y357784D01*
X872935Y357717D01*
X872874Y357652D01*
X872809Y357591D01*
X872742Y357532D01*
X872673Y357476D01*
X872601Y357423D01*
X872526Y357373D01*
X872450Y357327D01*
X872372Y357284D01*
X872292Y357245D01*
X872210Y357209D01*
X872127Y357176D01*
X872042Y357148D01*
X871957Y357123D01*
X871870Y357101D01*
X871782Y357084D01*
X871694Y357071D01*
X871605Y357061D01*
X871516Y357055D01*
X871427Y357053D01*
X869381Y357053D01*
X869381Y364419D01*
X871427Y364419D01*
X871506Y364417D01*
X871585Y364411D01*
X871664Y364402D01*
X871742Y364389D01*
X871819Y364371D01*
X871895Y364351D01*
X871970Y364326D01*
X872044Y364298D01*
X872117Y364267D01*
X872188Y364231D01*
X872257Y364193D01*
X872324Y364151D01*
X872389Y364106D01*
X872452Y364058D01*
X872513Y364007D01*
X872570Y363953D01*
X872626Y363897D01*
X872678Y363838D01*
X872728Y363776D01*
X872774Y363712D01*
X872818Y363646D01*
X872858Y363578D01*
X872894Y363508D01*
X872928Y363436D01*
X872958Y363362D01*
X872984Y363288D01*
X873007Y363212D01*
X873025Y363135D01*
X873041Y363058D01*
X873052Y362979D01*
X873060Y362901D01*
X873064Y362822D01*
X873064Y362742D01*
X873060Y362663D01*
X873052Y362585D01*
X873041Y362506D01*
X873025Y362429D01*
X873007Y362352D01*
X872984Y362276D01*
X872958Y362202D01*
X872928Y362128D01*
X872894Y362056D01*
X872858Y361986D01*
X872818Y361918D01*
X872774Y361852D01*
X872728Y361788D01*
X872678Y361726D01*
X872626Y361667D01*
X872570Y361611D01*
X872513Y361557D01*
X872452Y361506D01*
X872389Y361458D01*
X872324Y361413D01*
X872257Y361371D01*
X872188Y361333D01*
X872117Y361297D01*
X872044Y361266D01*
X871970Y361238D01*
X871895Y361213D01*
X871819Y361193D01*
X871742Y361175D01*
X871664Y361162D01*
X871585Y361153D01*
X871506Y361147D01*
X871427Y361145D01*
X876579Y364419D02*
X876579Y357053D01*
X876579Y361145D02*
X880671Y361145D01*
X880671Y364419D02*
X880671Y357053D01*
X884138Y362782D02*
X886184Y364419D01*
X886184Y357053D01*
X884138Y357053D02*
X888230Y357053D01*
X891453Y363601D02*
X891453Y364419D01*
X895545Y364419D01*
X893499Y357053D01*
X898768Y357053D02*
X901223Y357053D01*
X901301Y357055D01*
X901379Y357060D01*
X901456Y357070D01*
X901533Y357083D01*
X901609Y357099D01*
X901684Y357119D01*
X901758Y357143D01*
X901831Y357170D01*
X901903Y357201D01*
X901973Y357235D01*
X902042Y357272D01*
X902108Y357313D01*
X902173Y357357D01*
X902235Y357403D01*
X902295Y357453D01*
X902353Y357505D01*
X902408Y357560D01*
X902460Y357618D01*
X902510Y357678D01*
X902556Y357740D01*
X902600Y357805D01*
X902641Y357872D01*
X902678Y357940D01*
X902712Y358010D01*
X902743Y358082D01*
X902770Y358155D01*
X902794Y358229D01*
X902814Y358304D01*
X902830Y358380D01*
X902843Y358457D01*
X902853Y358534D01*
X902858Y358612D01*
X902860Y358690D01*
X902860Y359508D01*
X902858Y359586D01*
X902853Y359664D01*
X902843Y359741D01*
X902830Y359818D01*
X902814Y359894D01*
X902794Y359969D01*
X902770Y360043D01*
X902743Y360116D01*
X902712Y360188D01*
X902678Y360258D01*
X902641Y360327D01*
X902600Y360393D01*
X902556Y360458D01*
X902510Y360520D01*
X902460Y360580D01*
X902408Y360638D01*
X902353Y360693D01*
X902295Y360745D01*
X902235Y360795D01*
X902173Y360841D01*
X902108Y360885D01*
X902042Y360926D01*
X901973Y360963D01*
X901903Y360997D01*
X901831Y361028D01*
X901758Y361055D01*
X901684Y361079D01*
X901609Y361099D01*
X901533Y361115D01*
X901456Y361128D01*
X901379Y361138D01*
X901301Y361143D01*
X901223Y361145D01*
X898768Y361145D01*
X898768Y364419D01*
X902860Y364419D01*
X906697Y363396D02*
X906631Y363257D01*
X906570Y363118D01*
X906511Y362976D01*
X906457Y362833D01*
X906406Y362689D01*
X906358Y362544D01*
X906315Y362397D01*
X906275Y362249D01*
X906238Y362101D01*
X906206Y361951D01*
X906177Y361801D01*
X906152Y361650D01*
X906131Y361499D01*
X906114Y361347D01*
X906100Y361194D01*
X906091Y361042D01*
X906085Y360889D01*
X906083Y360736D01*
X906697Y363396D02*
X906723Y363466D01*
X906753Y363536D01*
X906786Y363603D01*
X906822Y363669D01*
X906861Y363733D01*
X906904Y363795D01*
X906950Y363854D01*
X906998Y363912D01*
X907049Y363966D01*
X907103Y364019D01*
X907160Y364068D01*
X907219Y364115D01*
X907280Y364158D01*
X907343Y364199D01*
X907408Y364236D01*
X907475Y364271D01*
X907544Y364301D01*
X907614Y364329D01*
X907685Y364352D01*
X907757Y364373D01*
X907830Y364389D01*
X907904Y364402D01*
X907979Y364412D01*
X908054Y364417D01*
X908129Y364419D01*
X908204Y364417D01*
X908279Y364412D01*
X908354Y364402D01*
X908428Y364389D01*
X908501Y364373D01*
X908573Y364352D01*
X908644Y364329D01*
X908714Y364301D01*
X908783Y364271D01*
X908850Y364236D01*
X908915Y364199D01*
X908978Y364158D01*
X909039Y364115D01*
X909098Y364068D01*
X909155Y364019D01*
X909209Y363966D01*
X909260Y363912D01*
X909309Y363854D01*
X909354Y363795D01*
X909397Y363733D01*
X909436Y363669D01*
X909473Y363603D01*
X909505Y363535D01*
X909535Y363466D01*
X909561Y363396D01*
X909626Y363258D01*
X909688Y363118D01*
X909746Y362976D01*
X909801Y362833D01*
X909852Y362689D01*
X909900Y362544D01*
X909943Y362397D01*
X909983Y362250D01*
X910020Y362101D01*
X910052Y361951D01*
X910081Y361801D01*
X910106Y361650D01*
X910127Y361499D01*
X910144Y361347D01*
X910158Y361194D01*
X910167Y361042D01*
X910173Y360889D01*
X910175Y360736D01*
X906083Y360736D02*
X906085Y360583D01*
X906091Y360430D01*
X906100Y360277D01*
X906114Y360125D01*
X906131Y359973D01*
X906152Y359822D01*
X906177Y359671D01*
X906206Y359520D01*
X906238Y359371D01*
X906275Y359222D01*
X906315Y359075D01*
X906358Y358928D01*
X906406Y358783D01*
X906457Y358638D01*
X906512Y358496D01*
X906570Y358354D01*
X906632Y358214D01*
X906697Y358076D01*
X906723Y358005D01*
X906753Y357936D01*
X906786Y357869D01*
X906822Y357803D01*
X906861Y357739D01*
X906904Y357677D01*
X906950Y357618D01*
X906998Y357560D01*
X907049Y357506D01*
X907103Y357453D01*
X907160Y357404D01*
X907219Y357357D01*
X907280Y357314D01*
X907343Y357273D01*
X907408Y357236D01*
X907475Y357201D01*
X907544Y357171D01*
X907614Y357143D01*
X907685Y357120D01*
X907757Y357099D01*
X907830Y357083D01*
X907904Y357070D01*
X907979Y357060D01*
X908054Y357055D01*
X908129Y357053D01*
X909561Y358076D02*
X909626Y358214D01*
X909688Y358354D01*
X909746Y358496D01*
X909801Y358639D01*
X909852Y358783D01*
X909900Y358928D01*
X909943Y359075D01*
X909983Y359223D01*
X910020Y359371D01*
X910052Y359521D01*
X910081Y359671D01*
X910106Y359822D01*
X910127Y359973D01*
X910144Y360125D01*
X910158Y360278D01*
X910167Y360430D01*
X910173Y360583D01*
X910175Y360736D01*
X909561Y358076D02*
X909535Y358006D01*
X909505Y357936D01*
X909473Y357869D01*
X909436Y357803D01*
X909397Y357739D01*
X909354Y357677D01*
X909308Y357618D01*
X909260Y357560D01*
X909209Y357506D01*
X909155Y357453D01*
X909098Y357404D01*
X909039Y357357D01*
X908978Y357314D01*
X908915Y357273D01*
X908850Y357236D01*
X908783Y357201D01*
X908714Y357171D01*
X908644Y357143D01*
X908573Y357120D01*
X908501Y357099D01*
X908428Y357083D01*
X908354Y357070D01*
X908279Y357060D01*
X908204Y357055D01*
X908129Y357053D01*
X906492Y358690D02*
X909766Y362782D01*
D12*
X922925Y560100D02*
X865425Y560100D01*
X922925Y560100D02*
X922925Y659100D01*
X865425Y659100D01*
X865425Y560100D01*
X866000Y635600D02*
X871000Y635600D01*
X871000Y584600D02*
X866000Y584600D01*
X871000Y584600D02*
X871000Y635600D01*
D11*
X871836Y666618D02*
X871836Y672347D01*
X871836Y666618D02*
X871834Y666540D01*
X871829Y666462D01*
X871819Y666385D01*
X871806Y666308D01*
X871790Y666232D01*
X871770Y666157D01*
X871746Y666083D01*
X871719Y666010D01*
X871688Y665938D01*
X871654Y665868D01*
X871617Y665800D01*
X871576Y665733D01*
X871532Y665668D01*
X871486Y665606D01*
X871436Y665546D01*
X871384Y665488D01*
X871329Y665433D01*
X871271Y665381D01*
X871211Y665331D01*
X871149Y665285D01*
X871084Y665241D01*
X871018Y665200D01*
X870949Y665163D01*
X870879Y665129D01*
X870807Y665098D01*
X870734Y665071D01*
X870660Y665047D01*
X870585Y665027D01*
X870509Y665011D01*
X870432Y664998D01*
X870355Y664988D01*
X870277Y664983D01*
X870199Y664981D01*
X869381Y664981D01*
X875271Y664981D02*
X877726Y664981D01*
X877804Y664983D01*
X877882Y664988D01*
X877959Y664998D01*
X878036Y665011D01*
X878112Y665027D01*
X878187Y665047D01*
X878261Y665071D01*
X878334Y665098D01*
X878406Y665129D01*
X878476Y665163D01*
X878545Y665200D01*
X878611Y665241D01*
X878676Y665285D01*
X878738Y665331D01*
X878798Y665381D01*
X878856Y665433D01*
X878911Y665488D01*
X878963Y665546D01*
X879013Y665606D01*
X879059Y665668D01*
X879103Y665733D01*
X879144Y665800D01*
X879181Y665868D01*
X879215Y665938D01*
X879246Y666010D01*
X879273Y666083D01*
X879297Y666157D01*
X879317Y666232D01*
X879333Y666308D01*
X879346Y666385D01*
X879356Y666462D01*
X879361Y666540D01*
X879363Y666618D01*
X879363Y667436D01*
X879361Y667514D01*
X879356Y667592D01*
X879346Y667669D01*
X879333Y667746D01*
X879317Y667822D01*
X879297Y667897D01*
X879273Y667971D01*
X879246Y668044D01*
X879215Y668116D01*
X879181Y668186D01*
X879144Y668255D01*
X879103Y668321D01*
X879059Y668386D01*
X879013Y668448D01*
X878963Y668508D01*
X878911Y668566D01*
X878856Y668621D01*
X878798Y668673D01*
X878738Y668723D01*
X878676Y668769D01*
X878611Y668813D01*
X878545Y668854D01*
X878476Y668891D01*
X878406Y668925D01*
X878334Y668956D01*
X878261Y668983D01*
X878187Y669007D01*
X878112Y669027D01*
X878036Y669043D01*
X877959Y669056D01*
X877882Y669066D01*
X877804Y669071D01*
X877726Y669073D01*
X875271Y669073D01*
X875271Y672347D01*
X879363Y672347D01*
X869381Y554219D02*
X869381Y546853D01*
X869381Y554219D02*
X871427Y554219D01*
X871516Y554217D01*
X871605Y554211D01*
X871694Y554201D01*
X871782Y554188D01*
X871870Y554171D01*
X871957Y554149D01*
X872042Y554124D01*
X872127Y554096D01*
X872210Y554063D01*
X872292Y554027D01*
X872372Y553988D01*
X872450Y553945D01*
X872526Y553899D01*
X872601Y553849D01*
X872673Y553796D01*
X872742Y553740D01*
X872809Y553681D01*
X872874Y553620D01*
X872935Y553555D01*
X872994Y553488D01*
X873050Y553419D01*
X873103Y553347D01*
X873153Y553272D01*
X873199Y553196D01*
X873242Y553118D01*
X873281Y553038D01*
X873317Y552956D01*
X873350Y552873D01*
X873378Y552788D01*
X873403Y552703D01*
X873425Y552616D01*
X873442Y552528D01*
X873455Y552440D01*
X873465Y552351D01*
X873471Y552262D01*
X873473Y552173D01*
X873473Y548899D01*
X873471Y548810D01*
X873465Y548721D01*
X873455Y548632D01*
X873442Y548544D01*
X873425Y548456D01*
X873403Y548369D01*
X873378Y548284D01*
X873350Y548199D01*
X873317Y548116D01*
X873281Y548034D01*
X873242Y547954D01*
X873199Y547876D01*
X873153Y547800D01*
X873103Y547725D01*
X873050Y547653D01*
X872994Y547584D01*
X872935Y547517D01*
X872874Y547452D01*
X872809Y547391D01*
X872742Y547332D01*
X872673Y547276D01*
X872601Y547223D01*
X872526Y547173D01*
X872450Y547127D01*
X872372Y547084D01*
X872292Y547045D01*
X872210Y547009D01*
X872127Y546976D01*
X872042Y546948D01*
X871957Y546923D01*
X871870Y546901D01*
X871782Y546884D01*
X871694Y546871D01*
X871605Y546861D01*
X871516Y546855D01*
X871427Y546853D01*
X869381Y546853D01*
X877184Y546853D02*
X877184Y554219D01*
X877184Y550945D02*
X881276Y550945D01*
X881276Y554219D02*
X881276Y546853D01*
X886301Y546853D02*
X886301Y554219D01*
X884255Y554219D02*
X888347Y554219D01*
X893333Y554220D02*
X893418Y554218D01*
X893503Y554212D01*
X893587Y554202D01*
X893671Y554189D01*
X893755Y554171D01*
X893837Y554150D01*
X893918Y554125D01*
X893998Y554096D01*
X894077Y554063D01*
X894154Y554027D01*
X894229Y553987D01*
X894303Y553944D01*
X894374Y553898D01*
X894443Y553848D01*
X894510Y553795D01*
X894574Y553739D01*
X894635Y553680D01*
X894694Y553619D01*
X894750Y553555D01*
X894803Y553488D01*
X894853Y553419D01*
X894899Y553348D01*
X894942Y553274D01*
X894982Y553199D01*
X895018Y553122D01*
X895051Y553043D01*
X895080Y552963D01*
X895105Y552882D01*
X895126Y552800D01*
X895144Y552716D01*
X895157Y552632D01*
X895167Y552548D01*
X895173Y552463D01*
X895175Y552378D01*
X893333Y554219D02*
X893237Y554217D01*
X893141Y554211D01*
X893046Y554201D01*
X892951Y554188D01*
X892856Y554170D01*
X892763Y554149D01*
X892670Y554124D01*
X892579Y554095D01*
X892488Y554063D01*
X892399Y554027D01*
X892312Y553987D01*
X892226Y553944D01*
X892142Y553898D01*
X892060Y553848D01*
X891980Y553794D01*
X891903Y553738D01*
X891828Y553678D01*
X891755Y553616D01*
X891685Y553550D01*
X891617Y553482D01*
X891552Y553411D01*
X891491Y553338D01*
X891432Y553262D01*
X891376Y553183D01*
X891324Y553103D01*
X891275Y553020D01*
X891229Y552936D01*
X891187Y552850D01*
X891149Y552762D01*
X891114Y552673D01*
X891082Y552582D01*
X894561Y550946D02*
X894621Y551005D01*
X894678Y551067D01*
X894733Y551131D01*
X894784Y551198D01*
X894833Y551267D01*
X894879Y551337D01*
X894922Y551410D01*
X894962Y551484D01*
X894998Y551560D01*
X895031Y551638D01*
X895061Y551717D01*
X895088Y551797D01*
X895111Y551878D01*
X895130Y551960D01*
X895146Y552042D01*
X895159Y552126D01*
X895168Y552210D01*
X895173Y552294D01*
X895175Y552378D01*
X894561Y550945D02*
X891083Y546853D01*
X895175Y546853D01*
X902491Y552378D02*
X902489Y552463D01*
X902483Y552548D01*
X902473Y552632D01*
X902460Y552716D01*
X902442Y552800D01*
X902421Y552882D01*
X902396Y552963D01*
X902367Y553043D01*
X902334Y553122D01*
X902298Y553199D01*
X902258Y553274D01*
X902215Y553348D01*
X902169Y553419D01*
X902119Y553488D01*
X902066Y553555D01*
X902010Y553619D01*
X901951Y553680D01*
X901890Y553739D01*
X901826Y553795D01*
X901759Y553848D01*
X901690Y553898D01*
X901619Y553944D01*
X901545Y553987D01*
X901470Y554027D01*
X901393Y554063D01*
X901314Y554096D01*
X901234Y554125D01*
X901153Y554150D01*
X901071Y554171D01*
X900987Y554189D01*
X900903Y554202D01*
X900819Y554212D01*
X900734Y554218D01*
X900649Y554220D01*
X900649Y554219D02*
X900553Y554217D01*
X900457Y554211D01*
X900362Y554201D01*
X900267Y554188D01*
X900172Y554170D01*
X900079Y554149D01*
X899986Y554124D01*
X899895Y554095D01*
X899804Y554063D01*
X899715Y554027D01*
X899628Y553987D01*
X899542Y553944D01*
X899458Y553898D01*
X899376Y553848D01*
X899296Y553794D01*
X899219Y553738D01*
X899144Y553678D01*
X899071Y553616D01*
X899001Y553550D01*
X898933Y553482D01*
X898868Y553411D01*
X898807Y553338D01*
X898748Y553262D01*
X898692Y553183D01*
X898640Y553103D01*
X898591Y553020D01*
X898545Y552936D01*
X898503Y552850D01*
X898465Y552762D01*
X898430Y552673D01*
X898398Y552582D01*
X901876Y550946D02*
X901936Y551005D01*
X901993Y551067D01*
X902048Y551131D01*
X902099Y551198D01*
X902148Y551267D01*
X902194Y551337D01*
X902237Y551410D01*
X902277Y551484D01*
X902313Y551560D01*
X902346Y551638D01*
X902376Y551717D01*
X902403Y551797D01*
X902426Y551878D01*
X902445Y551960D01*
X902461Y552042D01*
X902474Y552126D01*
X902483Y552210D01*
X902488Y552294D01*
X902490Y552378D01*
X901876Y550945D02*
X898398Y546853D01*
X902490Y546853D01*
D12*
X137875Y722800D02*
X80375Y722800D01*
X80375Y648800D01*
X137875Y648800D01*
X137875Y722800D01*
D13*
X137300Y672800D02*
X132300Y672800D01*
X132300Y698800D02*
X137300Y698800D01*
X132300Y698800D02*
X132300Y672800D01*
D11*
X126392Y643419D02*
X126392Y637690D01*
X126390Y637612D01*
X126385Y637534D01*
X126375Y637457D01*
X126362Y637380D01*
X126346Y637304D01*
X126326Y637229D01*
X126302Y637155D01*
X126275Y637082D01*
X126244Y637010D01*
X126210Y636940D01*
X126173Y636872D01*
X126132Y636805D01*
X126088Y636740D01*
X126042Y636678D01*
X125992Y636618D01*
X125940Y636560D01*
X125885Y636505D01*
X125827Y636453D01*
X125767Y636403D01*
X125705Y636357D01*
X125640Y636313D01*
X125574Y636272D01*
X125505Y636235D01*
X125435Y636201D01*
X125363Y636170D01*
X125290Y636143D01*
X125216Y636119D01*
X125141Y636099D01*
X125065Y636083D01*
X124988Y636070D01*
X124911Y636060D01*
X124833Y636055D01*
X124755Y636053D01*
X123937Y636053D01*
X129827Y640145D02*
X132282Y640145D01*
X132360Y640143D01*
X132438Y640138D01*
X132515Y640128D01*
X132592Y640115D01*
X132668Y640099D01*
X132743Y640079D01*
X132817Y640055D01*
X132890Y640028D01*
X132962Y639997D01*
X133032Y639963D01*
X133101Y639926D01*
X133167Y639885D01*
X133232Y639841D01*
X133294Y639795D01*
X133354Y639745D01*
X133412Y639693D01*
X133467Y639638D01*
X133519Y639580D01*
X133569Y639520D01*
X133615Y639458D01*
X133659Y639393D01*
X133700Y639327D01*
X133737Y639258D01*
X133771Y639188D01*
X133802Y639116D01*
X133829Y639043D01*
X133853Y638969D01*
X133873Y638894D01*
X133889Y638818D01*
X133902Y638741D01*
X133912Y638664D01*
X133917Y638586D01*
X133919Y638508D01*
X133919Y638099D01*
X133917Y638010D01*
X133911Y637921D01*
X133901Y637832D01*
X133888Y637744D01*
X133871Y637656D01*
X133849Y637569D01*
X133824Y637484D01*
X133796Y637399D01*
X133763Y637316D01*
X133727Y637234D01*
X133688Y637154D01*
X133645Y637076D01*
X133599Y637000D01*
X133549Y636925D01*
X133496Y636853D01*
X133440Y636784D01*
X133381Y636717D01*
X133320Y636652D01*
X133255Y636591D01*
X133188Y636532D01*
X133119Y636476D01*
X133047Y636423D01*
X132972Y636373D01*
X132896Y636327D01*
X132818Y636284D01*
X132738Y636245D01*
X132656Y636209D01*
X132573Y636176D01*
X132488Y636148D01*
X132403Y636123D01*
X132316Y636101D01*
X132228Y636084D01*
X132140Y636071D01*
X132051Y636061D01*
X131962Y636055D01*
X131873Y636053D01*
X131784Y636055D01*
X131695Y636061D01*
X131606Y636071D01*
X131518Y636084D01*
X131430Y636101D01*
X131343Y636123D01*
X131258Y636148D01*
X131173Y636176D01*
X131090Y636209D01*
X131008Y636245D01*
X130928Y636284D01*
X130850Y636327D01*
X130774Y636373D01*
X130699Y636423D01*
X130627Y636476D01*
X130558Y636532D01*
X130491Y636591D01*
X130426Y636652D01*
X130365Y636717D01*
X130306Y636784D01*
X130250Y636853D01*
X130197Y636925D01*
X130147Y637000D01*
X130101Y637076D01*
X130058Y637154D01*
X130019Y637234D01*
X129983Y637316D01*
X129950Y637399D01*
X129922Y637484D01*
X129897Y637569D01*
X129875Y637656D01*
X129858Y637744D01*
X129845Y637832D01*
X129835Y637921D01*
X129829Y638010D01*
X129827Y638099D01*
X129827Y640145D01*
X129829Y640259D01*
X129835Y640373D01*
X129845Y640487D01*
X129859Y640601D01*
X129877Y640714D01*
X129899Y640826D01*
X129924Y640937D01*
X129954Y641047D01*
X129987Y641157D01*
X130024Y641265D01*
X130065Y641371D01*
X130110Y641477D01*
X130158Y641580D01*
X130210Y641682D01*
X130266Y641782D01*
X130324Y641880D01*
X130387Y641976D01*
X130452Y642069D01*
X130521Y642161D01*
X130593Y642249D01*
X130668Y642336D01*
X130746Y642419D01*
X130827Y642500D01*
X130910Y642578D01*
X130997Y642653D01*
X131085Y642725D01*
X131177Y642794D01*
X131270Y642859D01*
X131366Y642921D01*
X131464Y642980D01*
X131564Y643036D01*
X131666Y643088D01*
X131769Y643136D01*
X131875Y643181D01*
X131981Y643222D01*
X132089Y643259D01*
X132199Y643292D01*
X132309Y643322D01*
X132420Y643347D01*
X132532Y643369D01*
X132645Y643387D01*
X132759Y643401D01*
X132873Y643411D01*
X132987Y643417D01*
X133101Y643419D01*
X86874Y728181D02*
X86874Y735547D01*
X90966Y728181D01*
X90966Y735547D01*
X94110Y733092D02*
X95747Y728181D01*
X97384Y733092D01*
X100289Y735547D02*
X100289Y729409D01*
X100291Y729340D01*
X100297Y729272D01*
X100306Y729203D01*
X100320Y729136D01*
X100337Y729069D01*
X100358Y729003D01*
X100382Y728939D01*
X100411Y728876D01*
X100442Y728815D01*
X100477Y728756D01*
X100515Y728698D01*
X100557Y728643D01*
X100601Y728591D01*
X100649Y728541D01*
X100699Y728493D01*
X100751Y728449D01*
X100806Y728407D01*
X100864Y728369D01*
X100923Y728334D01*
X100984Y728303D01*
X101047Y728274D01*
X101111Y728250D01*
X101177Y728229D01*
X101244Y728212D01*
X101311Y728198D01*
X101380Y728189D01*
X101448Y728183D01*
X101517Y728181D01*
X103864Y727363D02*
X107138Y727363D01*
X109629Y728181D02*
X112084Y735547D01*
X114540Y728181D01*
X113926Y730023D02*
X110243Y730023D01*
X118462Y728181D02*
X120508Y728181D01*
X118462Y728181D02*
X118393Y728183D01*
X118325Y728189D01*
X118256Y728198D01*
X118189Y728212D01*
X118122Y728229D01*
X118056Y728250D01*
X117992Y728274D01*
X117929Y728303D01*
X117868Y728334D01*
X117809Y728369D01*
X117751Y728407D01*
X117696Y728449D01*
X117644Y728493D01*
X117594Y728541D01*
X117546Y728591D01*
X117502Y728643D01*
X117460Y728698D01*
X117422Y728756D01*
X117387Y728815D01*
X117356Y728876D01*
X117327Y728939D01*
X117303Y729003D01*
X117282Y729069D01*
X117265Y729136D01*
X117251Y729203D01*
X117242Y729272D01*
X117236Y729340D01*
X117234Y729409D01*
X117234Y731864D01*
X117236Y731933D01*
X117242Y732001D01*
X117251Y732070D01*
X117265Y732137D01*
X117282Y732204D01*
X117303Y732270D01*
X117327Y732334D01*
X117356Y732397D01*
X117387Y732458D01*
X117422Y732517D01*
X117460Y732575D01*
X117502Y732630D01*
X117546Y732682D01*
X117594Y732732D01*
X117644Y732780D01*
X117696Y732824D01*
X117751Y732866D01*
X117809Y732904D01*
X117868Y732939D01*
X117929Y732970D01*
X117992Y732999D01*
X118056Y733023D01*
X118122Y733044D01*
X118189Y733061D01*
X118256Y733075D01*
X118325Y733084D01*
X118393Y733090D01*
X118462Y733092D01*
X120508Y733092D01*
X120508Y726953D01*
X120506Y726884D01*
X120500Y726816D01*
X120491Y726747D01*
X120477Y726680D01*
X120460Y726613D01*
X120439Y726547D01*
X120415Y726483D01*
X120386Y726420D01*
X120355Y726359D01*
X120320Y726300D01*
X120282Y726242D01*
X120240Y726187D01*
X120196Y726135D01*
X120148Y726085D01*
X120098Y726037D01*
X120046Y725993D01*
X119991Y725952D01*
X119933Y725913D01*
X119874Y725878D01*
X119813Y725847D01*
X119750Y725818D01*
X119686Y725794D01*
X119620Y725773D01*
X119553Y725756D01*
X119486Y725742D01*
X119418Y725733D01*
X119349Y725727D01*
X119280Y725725D01*
X119280Y725726D02*
X117643Y725726D01*
X124103Y729409D02*
X124103Y733092D01*
X124102Y729409D02*
X124104Y729340D01*
X124110Y729272D01*
X124119Y729203D01*
X124133Y729136D01*
X124150Y729069D01*
X124171Y729003D01*
X124195Y728939D01*
X124224Y728876D01*
X124255Y728815D01*
X124290Y728756D01*
X124328Y728698D01*
X124370Y728643D01*
X124414Y728591D01*
X124462Y728541D01*
X124512Y728493D01*
X124564Y728449D01*
X124619Y728407D01*
X124677Y728369D01*
X124736Y728334D01*
X124797Y728303D01*
X124860Y728274D01*
X124924Y728250D01*
X124990Y728229D01*
X125057Y728212D01*
X125124Y728198D01*
X125193Y728189D01*
X125261Y728183D01*
X125330Y728181D01*
X127376Y728181D01*
X127376Y733092D01*
X132078Y731046D02*
X133919Y731046D01*
X132078Y731045D02*
X132003Y731043D01*
X131928Y731037D01*
X131854Y731027D01*
X131780Y731014D01*
X131707Y730996D01*
X131635Y730975D01*
X131565Y730950D01*
X131496Y730921D01*
X131428Y730889D01*
X131362Y730853D01*
X131298Y730814D01*
X131236Y730772D01*
X131177Y730726D01*
X131120Y730677D01*
X131065Y730626D01*
X131014Y730571D01*
X130965Y730514D01*
X130919Y730455D01*
X130877Y730393D01*
X130838Y730329D01*
X130802Y730263D01*
X130770Y730195D01*
X130741Y730126D01*
X130716Y730056D01*
X130695Y729984D01*
X130677Y729911D01*
X130664Y729837D01*
X130654Y729763D01*
X130648Y729688D01*
X130646Y729613D01*
X130648Y729538D01*
X130654Y729463D01*
X130664Y729389D01*
X130677Y729315D01*
X130695Y729242D01*
X130716Y729170D01*
X130741Y729100D01*
X130770Y729031D01*
X130802Y728963D01*
X130838Y728897D01*
X130877Y728833D01*
X130919Y728771D01*
X130965Y728712D01*
X131014Y728655D01*
X131065Y728600D01*
X131120Y728549D01*
X131177Y728500D01*
X131236Y728454D01*
X131298Y728412D01*
X131362Y728373D01*
X131428Y728337D01*
X131496Y728305D01*
X131565Y728276D01*
X131635Y728251D01*
X131707Y728230D01*
X131780Y728212D01*
X131854Y728199D01*
X131928Y728189D01*
X132003Y728183D01*
X132078Y728181D01*
X133919Y728181D01*
X133919Y731864D01*
X133917Y731933D01*
X133911Y732001D01*
X133902Y732070D01*
X133888Y732137D01*
X133871Y732204D01*
X133850Y732270D01*
X133826Y732334D01*
X133797Y732397D01*
X133766Y732458D01*
X133731Y732517D01*
X133693Y732575D01*
X133651Y732630D01*
X133607Y732682D01*
X133559Y732732D01*
X133509Y732780D01*
X133457Y732824D01*
X133402Y732866D01*
X133344Y732904D01*
X133285Y732939D01*
X133224Y732970D01*
X133161Y732999D01*
X133097Y733023D01*
X133031Y733044D01*
X132964Y733061D01*
X132897Y733075D01*
X132828Y733084D01*
X132760Y733090D01*
X132691Y733092D01*
X131054Y733092D01*
D10*
X391100Y673850D02*
X391100Y164350D01*
X391100Y673850D02*
X676200Y673850D01*
X676200Y164350D02*
X391100Y164350D01*
X676200Y164350D02*
X676200Y673850D01*
D13*
X680900Y263950D02*
X680902Y264013D01*
X680908Y264075D01*
X680918Y264137D01*
X680931Y264199D01*
X680949Y264259D01*
X680970Y264318D01*
X680995Y264376D01*
X681024Y264432D01*
X681056Y264486D01*
X681091Y264538D01*
X681129Y264587D01*
X681171Y264635D01*
X681215Y264679D01*
X681263Y264721D01*
X681312Y264759D01*
X681364Y264794D01*
X681418Y264826D01*
X681474Y264855D01*
X681532Y264880D01*
X681591Y264901D01*
X681651Y264919D01*
X681713Y264932D01*
X681775Y264942D01*
X681837Y264948D01*
X681900Y264950D01*
X681963Y264948D01*
X682025Y264942D01*
X682087Y264932D01*
X682149Y264919D01*
X682209Y264901D01*
X682268Y264880D01*
X682326Y264855D01*
X682382Y264826D01*
X682436Y264794D01*
X682488Y264759D01*
X682537Y264721D01*
X682585Y264679D01*
X682629Y264635D01*
X682671Y264587D01*
X682709Y264538D01*
X682744Y264486D01*
X682776Y264432D01*
X682805Y264376D01*
X682830Y264318D01*
X682851Y264259D01*
X682869Y264199D01*
X682882Y264137D01*
X682892Y264075D01*
X682898Y264013D01*
X682900Y263950D01*
X682898Y263887D01*
X682892Y263825D01*
X682882Y263763D01*
X682869Y263701D01*
X682851Y263641D01*
X682830Y263582D01*
X682805Y263524D01*
X682776Y263468D01*
X682744Y263414D01*
X682709Y263362D01*
X682671Y263313D01*
X682629Y263265D01*
X682585Y263221D01*
X682537Y263179D01*
X682488Y263141D01*
X682436Y263106D01*
X682382Y263074D01*
X682326Y263045D01*
X682268Y263020D01*
X682209Y262999D01*
X682149Y262981D01*
X682087Y262968D01*
X682025Y262958D01*
X681963Y262952D01*
X681900Y262950D01*
X681837Y262952D01*
X681775Y262958D01*
X681713Y262968D01*
X681651Y262981D01*
X681591Y262999D01*
X681532Y263020D01*
X681474Y263045D01*
X681418Y263074D01*
X681364Y263106D01*
X681312Y263141D01*
X681263Y263179D01*
X681215Y263221D01*
X681171Y263265D01*
X681129Y263313D01*
X681091Y263362D01*
X681056Y263414D01*
X681024Y263468D01*
X680995Y263524D01*
X680970Y263582D01*
X680949Y263641D01*
X680931Y263701D01*
X680918Y263763D01*
X680908Y263825D01*
X680902Y263887D01*
X680900Y263950D01*
D10*
X676200Y164350D02*
X565510Y164350D01*
X498400Y164350D01*
X391100Y164350D01*
X676200Y164350D02*
X676200Y673850D01*
X391100Y673850D02*
X391100Y164350D01*
X622500Y673850D02*
X676200Y673850D01*
X622500Y673850D02*
X445600Y673850D01*
X391100Y673850D01*
D14*
X659890Y151342D02*
X659890Y142904D01*
X659889Y142904D02*
X659891Y142791D01*
X659897Y142678D01*
X659907Y142565D01*
X659921Y142452D01*
X659938Y142340D01*
X659960Y142229D01*
X659985Y142119D01*
X660015Y142009D01*
X660048Y141901D01*
X660085Y141794D01*
X660125Y141688D01*
X660170Y141584D01*
X660218Y141481D01*
X660269Y141380D01*
X660324Y141281D01*
X660382Y141184D01*
X660444Y141089D01*
X660509Y140996D01*
X660577Y140906D01*
X660648Y140818D01*
X660723Y140732D01*
X660800Y140649D01*
X660880Y140569D01*
X660963Y140492D01*
X661049Y140417D01*
X661137Y140346D01*
X661227Y140278D01*
X661320Y140213D01*
X661415Y140151D01*
X661512Y140093D01*
X661611Y140038D01*
X661712Y139987D01*
X661815Y139939D01*
X661919Y139894D01*
X662025Y139854D01*
X662132Y139817D01*
X662240Y139784D01*
X662350Y139754D01*
X662460Y139729D01*
X662571Y139707D01*
X662683Y139690D01*
X662796Y139676D01*
X662909Y139666D01*
X663022Y139660D01*
X663135Y139658D01*
X663248Y139660D01*
X663361Y139666D01*
X663474Y139676D01*
X663587Y139690D01*
X663699Y139707D01*
X663810Y139729D01*
X663920Y139754D01*
X664030Y139784D01*
X664138Y139817D01*
X664245Y139854D01*
X664351Y139894D01*
X664455Y139939D01*
X664558Y139987D01*
X664659Y140038D01*
X664758Y140093D01*
X664855Y140151D01*
X664950Y140213D01*
X665043Y140278D01*
X665133Y140346D01*
X665221Y140417D01*
X665307Y140492D01*
X665390Y140569D01*
X665470Y140649D01*
X665547Y140732D01*
X665622Y140818D01*
X665693Y140906D01*
X665761Y140996D01*
X665826Y141089D01*
X665888Y141184D01*
X665946Y141281D01*
X666001Y141380D01*
X666052Y141481D01*
X666100Y141584D01*
X666145Y141688D01*
X666185Y141794D01*
X666222Y141901D01*
X666255Y142009D01*
X666285Y142119D01*
X666310Y142229D01*
X666332Y142340D01*
X666349Y142452D01*
X666363Y142565D01*
X666373Y142678D01*
X666379Y142791D01*
X666381Y142904D01*
X666381Y151342D01*
X671701Y148746D02*
X674946Y151342D01*
X674946Y139658D01*
X671701Y139658D02*
X678192Y139658D01*
M02*
