M48
;GenerationSoftware,Autodesk,EAGLE,9.6.2*%
;CreationDate,2024-11-15T05:44:11Z*%
FMAT,2
ICI,OFF
METRIC,TZ,000.000
T5C1.016
T4C1.020
T3C1.300
T2C2.286
T1C3.000
%
G90
M71
T1
X65620Y65385
X41110Y65385
X41110Y18435
X65620Y18435
T2
X5080Y76200
X93980Y76200
X5080Y3810
X95250Y3810
T3
X13970Y3760
X13970Y9660
X9270Y6560
T4
X66040Y56875
X66040Y59415
X66040Y61955
X40640Y26395
X40640Y28935
X40640Y31475
X40640Y34015
X40640Y36555
X40640Y39095
X40640Y41635
X40640Y44175
X40640Y46715
X66040Y26395
X40640Y49255
X40640Y51795
X40640Y54335
X40640Y56875
X40640Y59415
X40640Y61955
X66040Y44175
X66040Y28935
X66040Y31475
X66040Y34015
X66040Y36555
X66040Y39095
X66040Y41635
X66040Y46715
X66040Y49255
X66040Y51795
X66040Y54335
T5
X11430Y48260
X11430Y45720
X11430Y43180
X11430Y50800
X11430Y53340
X11430Y55880
X88900Y17780
X88900Y20320
X88900Y22860
X88900Y15240
X88900Y41910
X88900Y44450
X88900Y39370
X88900Y58420
X88900Y60960
X88900Y63500
X11430Y69850
X11430Y67310
X88900Y46990
M30